CooperHewitt-HeavyItalic.ufo
<glyph name="exclam" format="1">
  <advance width="280"/>
  <unicode hex="0021"/>
  <outline>
    <contour>
      <point x="78" y="780" type="line"/>
      <point x="57" y="240" type="line"/>
      <point x="187" y="240" type="line"/>
      <point x="308" y="780" type="line"/>
    </contour>
    <contour>
      <point x="211" y="190" type="line"/>
      <point x="21" y="190" type="line"/>
      <point x="-4" y="0" type="line"/>
      <point x="186" y="0" type="line"/>
    </contour>
  </outline>
</glyph>
<glyph name="quotedbl" format="1">
  <advance width="480"/>
  <unicode hex="0022"/>
  <outline>
    <contour>
      <point x="93" y="780" type="line"/>
      <point x="76" y="440" type="line"/>
      <point x="220" y="440" type="line"/>
      <point x="273" y="780" type="line"/>
    </contour>
    <contour>
      <point x="313" y="780" type="line"/>
      <point x="276" y="440" type="line"/>
      <point x="420" y="440" type="line"/>
      <point x="493" y="780" type="line"/>
    </contour>
  </outline>
</glyph>
<glyph name="numbersign" format="1">
  <advance width="600"/>
  <unicode hex="0023"/>
  <outline>
    <contour>
      <point x="68" y="440" type="line"/>
      <point x="126" y="440" type="line"/>
      <point x="96" y="340" type="line"/>
      <point x="15" y="340" type="line"/>
      <point x="-6" y="180" type="line"/>
      <point x="48" y="180" type="line"/>
      <point x="-5" y="0" type="line"/>
      <point x="155" y="0" type="line"/>
      <point x="208" y="180" type="line"/>
      <point x="268" y="180" type="line"/>
      <point x="215" y="0" type="line"/>
      <point x="375" y="0" type="line"/>
      <point x="428" y="180" type="line"/>
      <point x="514" y="180" type="line"/>
      <point x="535" y="340" type="line"/>
      <point x="476" y="340" type="line"/>
      <point x="506" y="440" type="line"/>
      <point x="588" y="440" type="line"/>
      <point x="609" y="600" type="line"/>
      <point x="554" y="600" type="line"/>
      <point x="609" y="780" type="line"/>
      <point x="449" y="780" type="line"/>
      <point x="394" y="600" type="line"/>
      <point x="334" y="600" type="line"/>
      <point x="389" y="780" type="line"/>
      <point x="229" y="780" type="line"/>
      <point x="174" y="600" type="line"/>
      <point x="89" y="600" type="line"/>
    </contour>
    <contour>
      <point x="286" y="440" type="line"/>
      <point x="346" y="440" type="line"/>
      <point x="316" y="340" type="line"/>
      <point x="256" y="340" type="line"/>
    </contour>
  </outline>
</glyph>
<glyph name="dollar" format="1">
  <advance width="600"/>
  <unicode hex="0024"/>
  <outline>
    <contour>
      <point x="286" y="200" type="curve" smooth="yes"/>
      <point x="281" y="200" type="line" smooth="yes"/>
      <point x="228" y="200"/>
      <point x="205" y="231"/>
      <point x="212" y="283" type="curve"/>
      <point x="25" y="283" type="line"/>
      <point x="24" y="278" type="line" smooth="yes"/>
      <point x="3" y="171"/>
      <point x="46" y="107"/>
      <point x="118" y="75" type="curve"/>
      <point x="69" y="-60" type="line"/>
      <point x="209" y="-60" type="line"/>
      <point x="249" y="49" type="line"/>
      <point x="261" y="49" type="line" smooth="yes"/>
      <point x="427" y="49"/>
      <point x="537" y="133"/>
      <point x="549" y="262" type="curve" smooth="yes"/>
      <point x="550" y="273" type="line" smooth="yes"/>
      <point x="562" y="405"/>
      <point x="470" y="440"/>
      <point x="359" y="459" type="curve" smooth="yes"/>
      <point x="273" y="474"/>
      <point x="249" y="481"/>
      <point x="249" y="520" type="curve" smooth="yes"/>
      <point x="249" y="550"/>
      <point x="270" y="581"/>
      <point x="321" y="581" type="curve" smooth="yes"/>
      <point x="326" y="581" type="line" smooth="yes"/>
      <point x="383" y="581"/>
      <point x="394" y="535"/>
      <point x="388" y="490" type="curve"/>
      <point x="573" y="490" type="line"/>
      <point x="575" y="503" type="line" smooth="yes"/>
      <point x="591" y="608"/>
      <point x="555" y="670"/>
      <point x="491" y="703" type="curve"/>
      <point x="542" y="840" type="line"/>
      <point x="402" y="840" type="line"/>
      <point x="362" y="731" type="line"/>
      <point x="355" y="732"/>
      <point x="348" y="732"/>
      <point x="341" y="732" type="curve" smooth="yes"/>
      <point x="184" y="732"/>
      <point x="73" y="647"/>
      <point x="62" y="522" type="curve" smooth="yes"/>
      <point x="61" y="511" type="line" smooth="yes"/>
      <point x="49" y="379"/>
      <point x="123" y="346"/>
      <point x="245" y="325" type="curve" smooth="yes"/>
      <point x="312" y="313"/>
      <point x="360" y="304"/>
      <point x="360" y="257" type="curve" smooth="yes"/>
      <point x="360" y="229"/>
      <point x="338" y="200"/>
    </contour>
  </outline>
</glyph>
<glyph name="percent" format="1">
  <advance width="1000"/>
  <unicode hex="0025"/>
  <outline>
    <contour>
      <point x="368" y="0" type="line"/>
      <point x="752" y="700" type="line"/>
      <point x="763" y="784" type="line"/>
      <point x="728" y="773"/>
      <point x="634" y="752"/>
      <point x="540" y="752" type="curve" smooth="yes"/>
      <point x="450" y="752"/>
      <point x="410" y="758"/>
      <point x="356" y="780" type="curve" smooth="yes"/>
      <point x="332" y="789"/>
      <point x="305" y="794"/>
      <point x="275" y="794" type="curve" smooth="yes"/>
      <point x="160" y="794"/>
      <point x="70" y="725"/>
      <point x="53" y="600" type="curve"/>
      <point x="52" y="588" type="line"/>
      <point x="35" y="463"/>
      <point x="107" y="394"/>
      <point x="222" y="394" type="curve" smooth="yes"/>
      <point x="337" y="394"/>
      <point x="427" y="463"/>
      <point x="444" y="588" type="curve" smooth="yes"/>
      <point x="447" y="608" type="line"/>
      <point x="458" y="607"/>
      <point x="471" y="606"/>
      <point x="485" y="606" type="curve" smooth="yes"/>
      <point x="507" y="606"/>
      <point x="526" y="608"/>
      <point x="543" y="611" type="curve"/>
      <point x="208" y="0" type="line"/>
    </contour>
    <contour>
      <point x="560" y="192" type="curve" smooth="yes"/>
      <point x="558" y="180" type="line" smooth="yes"/>
      <point x="542" y="55"/>
      <point x="614" y="-14"/>
      <point x="729" y="-14" type="curve" smooth="yes"/>
      <point x="844" y="-14"/>
      <point x="934" y="55"/>
      <point x="950" y="180" type="curve" smooth="yes"/>
      <point x="952" y="192" type="line" smooth="yes"/>
      <point x="968" y="317"/>
      <point x="896" y="386"/>
      <point x="781" y="386" type="curve" smooth="yes"/>
      <point x="666" y="386"/>
      <point x="576" y="317"/>
    </contour>
    <contour>
      <point x="693" y="180" type="curve" smooth="yes"/>
      <point x="695" y="192" type="line" smooth="yes"/>
      <point x="699" y="225"/>
      <point x="723" y="250"/>
      <point x="760" y="250" type="curve" smooth="yes"/>
      <point x="766" y="250" type="line" smooth="yes"/>
      <point x="803" y="250"/>
      <point x="821" y="225"/>
      <point x="817" y="192" type="curve" smooth="yes"/>
      <point x="815" y="180" type="line" smooth="yes"/>
      <point x="811" y="147"/>
      <point x="787" y="122"/>
      <point x="750" y="122" type="curve" smooth="yes"/>
      <point x="744" y="122" type="line" smooth="yes"/>
      <point x="707" y="122"/>
      <point x="689" y="147"/>
    </contour>
    <contour>
      <point x="310" y="600" type="curve"/>
      <point x="309" y="588" type="line" smooth="yes"/>
      <point x="305" y="555"/>
      <point x="280" y="530"/>
      <point x="243" y="530" type="curve" smooth="yes"/>
      <point x="237" y="530" type="line" smooth="yes"/>
      <point x="200" y="530"/>
      <point x="183" y="555"/>
      <point x="187" y="588" type="curve" smooth="yes"/>
      <point x="188" y="600" type="line"/>
      <point x="193" y="633"/>
      <point x="217" y="658"/>
      <point x="254" y="658" type="curve" smooth="yes"/>
      <point x="260" y="658" type="line" smooth="yes"/>
      <point x="297" y="658"/>
      <point x="315" y="633"/>
    </contour>
  </outline>
</glyph>
<glyph name="ampersand" format="1">
  <advance width="700"/>
  <unicode hex="0026"/>
  <outline>
    <contour>
      <point x="205" y="-14" type="curve" smooth="yes"/>
      <point x="282" y="-14"/>
      <point x="347" y="1"/>
      <point x="398" y="28" type="curve"/>
      <point x="418" y="0" type="line"/>
      <point x="639" y="0" type="line"/>
      <point x="548" y="132" type="line"/>
      <point x="628" y="214"/>
      <point x="672" y="311"/>
      <point x="684" y="395" type="curve"/>
      <point x="489" y="395" type="line"/>
      <point x="488" y="388" type="line" smooth="yes"/>
      <point x="483" y="352"/>
      <point x="470" y="314"/>
      <point x="449" y="276" type="curve"/>
      <point x="368" y="394" type="line"/>
      <point x="449" y="434"/>
      <point x="525" y="480"/>
      <point x="542" y="592" type="curve" smooth="yes"/>
      <point x="544" y="605" type="line" smooth="yes"/>
      <point x="559" y="703"/>
      <point x="503" y="794"/>
      <point x="333" y="794" type="curve" smooth="yes"/>
      <point x="177" y="794"/>
      <point x="108" y="711"/>
      <point x="94" y="613" type="curve" smooth="yes"/>
      <point x="92" y="599" type="line" smooth="yes"/>
      <point x="81" y="525"/>
      <point x="97" y="479"/>
      <point x="125" y="430" type="curve"/>
      <point x="62" y="388"/>
      <point x="4" y="327"/>
      <point x="-8" y="224" type="curve" smooth="yes"/>
      <point x="-10" y="207" type="line" smooth="yes"/>
      <point x="-26" y="73"/>
      <point x="55" y="-14"/>
    </contour>
    <contour>
      <point x="247" y="144" type="line" smooth="yes"/>
      <point x="197" y="144"/>
      <point x="175" y="172"/>
      <point x="182" y="228" type="curve" smooth="yes"/>
      <point x="183" y="236" type="line" smooth="yes"/>
      <point x="186" y="264"/>
      <point x="196" y="283"/>
      <point x="212" y="300" type="curve"/>
      <point x="313" y="153" type="line"/>
      <point x="294" y="147"/>
      <point x="273" y="144"/>
      <point x="252" y="144" type="curve" smooth="yes"/>
    </contour>
    <contour>
      <point x="280" y="602" type="line" smooth="yes"/>
      <point x="283" y="627"/>
      <point x="298" y="643"/>
      <point x="320" y="643" type="curve" smooth="yes"/>
      <point x="326" y="643" type="line" smooth="yes"/>
      <point x="348" y="643"/>
      <point x="361" y="627"/>
      <point x="358" y="602" type="curve" smooth="yes"/>
      <point x="357" y="594" type="line" smooth="yes"/>
      <point x="353" y="560"/>
      <point x="327" y="540"/>
      <point x="290" y="518" type="curve"/>
      <point x="280" y="543"/>
      <point x="276" y="567"/>
      <point x="279" y="594" type="curve" smooth="yes"/>
    </contour>
  </outline>
</glyph>
<glyph name="quotesingle" format="1">
  <advance width="280"/>
  <unicode hex="0027"/>
  <outline>
    <contour>
      <point x="93" y="780" type="line"/>
      <point x="76" y="440" type="line"/>
      <point x="220" y="440" type="line"/>
      <point x="293" y="780" type="line"/>
    </contour>
  </outline>
</glyph>
<glyph name="parenleft" format="1">
  <advance width="380"/>
  <unicode hex="0028"/>
  <outline>
    <contour>
      <point x="32" y="346" type="line" smooth="yes"/>
      <point x="9" y="126"/>
      <point x="56" y="-5"/>
      <point x="111" y="-120" type="curve"/>
      <point x="301" y="-120" type="line"/>
      <point x="243" y="5"/>
      <point x="197" y="156"/>
      <point x="217" y="346" type="curve" smooth="yes"/>
      <point x="220" y="375" type="line" smooth="yes"/>
      <point x="240" y="565"/>
      <point x="330" y="725"/>
      <point x="427" y="840" type="curve"/>
      <point x="235" y="840" type="line"/>
      <point x="140" y="735"/>
      <point x="57" y="585"/>
      <point x="35" y="375" type="curve" smooth="yes"/>
    </contour>
  </outline>
</glyph>
<glyph name="parenright" format="1">
  <advance width="380"/>
  <unicode hex="0029"/>
  <outline>
    <contour>
      <point x="345" y="374" type="line" smooth="yes"/>
      <point x="368" y="594"/>
      <point x="321" y="725"/>
      <point x="266" y="840" type="curve"/>
      <point x="76" y="840" type="line"/>
      <point x="134" y="715"/>
      <point x="180" y="564"/>
      <point x="160" y="374" type="curve" smooth="yes"/>
      <point x="157" y="345" type="line" smooth="yes"/>
      <point x="137" y="155"/>
      <point x="47" y="-5"/>
      <point x="-50" y="-120" type="curve"/>
      <point x="142" y="-120" type="line"/>
      <point x="237" y="-15"/>
      <point x="320" y="135"/>
      <point x="342" y="345" type="curve" smooth="yes"/>
    </contour>
  </outline>
</glyph>
<glyph name="asterisk" format="1">
  <advance width="420"/>
  <unicode hex="002A"/>
  <outline>
    <contour>
      <point x="216" y="800" type="line"/>
      <point x="204" y="670" type="line"/>
      <point x="294" y="670" type="line"/>
      <point x="316" y="800" type="line"/>
    </contour>
    <contour>
      <point x="34" y="613" type="line"/>
      <point x="154" y="577" type="line"/>
      <point x="194" y="663" type="line"/>
      <point x="78" y="708" type="line"/>
    </contour>
    <contour>
      <point x="136" y="404" type="line"/>
      <point x="223" y="512" type="line"/>
      <point x="157" y="565" type="line"/>
      <point x="62" y="463" type="line"/>
    </contour>
    <contour>
      <point x="430" y="708" type="line"/>
      <point x="302" y="663" type="line"/>
      <point x="318" y="577" type="line"/>
      <point x="448" y="613" type="line"/>
    </contour>
    <contour>
      <point x="380" y="463" type="line"/>
      <point x="313" y="565" type="line"/>
      <point x="233" y="512" type="line"/>
      <point x="292" y="404" type="line"/>
    </contour>
  </outline>
</glyph>
<glyph name="plus" format="1">
  <advance width="600"/>
  <unicode hex="002B"/>
  <outline>
    <contour>
      <point x="254" y="650" type="line"/>
      <point x="231" y="472" type="line"/>
      <point x="53" y="472" type="line"/>
      <point x="31" y="308" type="line"/>
      <point x="209" y="308" type="line"/>
      <point x="186" y="130" type="line"/>
      <point x="350" y="130" type="line"/>
      <point x="373" y="308" type="line"/>
      <point x="551" y="308" type="line"/>
      <point x="573" y="472" type="line"/>
      <point x="395" y="472" type="line"/>
      <point x="418" y="650" type="line"/>
    </contour>
  </outline>
</glyph>
<glyph name="comma" format="1">
  <advance width="280"/>
  <unicode hex="002C"/>
  <outline>
    <contour>
      <point x="211" y="190" type="line"/>
      <point x="21" y="190" type="line"/>
      <point x="-4" y="0" type="line"/>
      <point x="90" y="0" type="line"/>
      <point x="72" y="-39"/>
      <point x="38" y="-60"/>
      <point x="-12" y="-60" type="curve"/>
      <point x="-24" y="-150" type="line"/>
      <point x="101" y="-150"/>
      <point x="174" y="-85"/>
      <point x="191" y="40" type="curve" smooth="yes"/>
    </contour>
  </outline>
</glyph>
<glyph name="hyphen" format="1">
  <advance width="360"/>
  <unicode hex="002D"/>
  <outline>
    <contour>
      <point x="26" y="270" type="line"/>
      <point x="306" y="270" type="line"/>
      <point x="327" y="430" type="line"/>
      <point x="47" y="430" type="line"/>
    </contour>
  </outline>
</glyph>
<glyph name="period" format="1">
  <advance width="280"/>
  <unicode hex="002E"/>
  <outline>
    <contour>
      <point x="211" y="190" type="line"/>
      <point x="21" y="190" type="line"/>
      <point x="-4" y="0" type="line"/>
      <point x="186" y="0" type="line"/>
    </contour>
  </outline>
</glyph>
<glyph name="slash" format="1">
  <advance width="440"/>
  <unicode hex="002F"/>
  <outline>
    <contour>
      <point x="486" y="840" type="line"/>
      <point x="306" y="840" type="line"/>
      <point x="-49" y="-120" type="line"/>
      <point x="130" y="-120" type="line"/>
    </contour>
  </outline>
</glyph>
<glyph name="zero" format="1">
  <advance width="600"/>
  <unicode hex="0030"/>
  <outline>
    <contour>
      <point x="584" y="560" type="line" smooth="yes"/>
      <point x="602" y="695"/>
      <point x="513" y="794"/>
      <point x="345" y="794" type="curve" smooth="yes"/>
      <point x="170" y="794"/>
      <point x="83" y="700"/>
      <point x="64" y="560" type="curve" smooth="yes"/>
      <point x="19" y="220" type="line" smooth="yes"/>
      <point x="1" y="85"/>
      <point x="90" y="-14"/>
      <point x="258" y="-14" type="curve" smooth="yes"/>
      <point x="433" y="-14"/>
      <point x="520" y="80"/>
      <point x="539" y="220" type="curve" smooth="yes"/>
    </contour>
    <contour>
      <point x="353" y="220" type="line" smooth="yes"/>
      <point x="347" y="175"/>
      <point x="320" y="148"/>
      <point x="273" y="148" type="curve" smooth="yes"/>
      <point x="269" y="148" type="line" smooth="yes"/>
      <point x="222" y="148"/>
      <point x="199" y="178"/>
      <point x="205" y="220" type="curve" smooth="yes"/>
      <point x="250" y="560" type="line" smooth="yes"/>
      <point x="256" y="605"/>
      <point x="283" y="632"/>
      <point x="330" y="632" type="curve" smooth="yes"/>
      <point x="334" y="632" type="line" smooth="yes"/>
      <point x="381" y="632"/>
      <point x="404" y="602"/>
      <point x="398" y="560" type="curve" smooth="yes"/>
    </contour>
  </outline>
</glyph>
<glyph name="one" format="1">
  <advance width="600"/>
  <unicode hex="0031"/>
  <outline>
    <contour>
      <point x="516" y="0" type="line"/>
      <point x="537" y="162" type="line"/>
      <point x="375" y="162" type="line"/>
      <point x="456" y="780" type="line"/>
      <point x="316" y="780" type="line"/>
      <point x="51" y="615" type="line"/>
      <point x="125" y="481" type="line"/>
      <point x="240" y="552" type="line"/>
      <point x="189" y="162" type="line"/>
      <point x="27" y="162" type="line"/>
      <point x="6" y="0" type="line"/>
    </contour>
  </outline>
</glyph>
<glyph name="two" format="1">
  <advance width="600"/>
  <unicode hex="0032"/>
  <outline>
    <contour>
      <point x="342" y="162" type="line"/>
      <point x="272" y="161" type="line"/>
      <point x="470" y="353" type="line" smooth="yes"/>
      <point x="539" y="420"/>
      <point x="574" y="465"/>
      <point x="584" y="555" type="curve" smooth="yes"/>
      <point x="586" y="573" type="line" smooth="yes"/>
      <point x="597" y="669"/>
      <point x="543" y="794"/>
      <point x="344" y="794" type="curve" smooth="yes"/>
      <point x="168" y="794"/>
      <point x="81" y="708"/>
      <point x="61" y="537" type="curve" smooth="yes"/>
      <point x="59" y="520" type="line"/>
      <point x="245" y="520" type="line"/>
      <point x="256" y="605"/>
      <point x="287" y="632"/>
      <point x="326" y="632" type="curve" smooth="yes"/>
      <point x="336" y="632" type="line" smooth="yes"/>
      <point x="375" y="632"/>
      <point x="402" y="607"/>
      <point x="396" y="543" type="curve" smooth="yes"/>
      <point x="395" y="533" type="line" smooth="yes"/>
      <point x="391" y="498"/>
      <point x="365" y="467"/>
      <point x="338" y="440" type="curve" smooth="yes"/>
      <point x="6" y="117" type="line"/>
      <point x="-9" y="0" type="line"/>
      <point x="511" y="0" type="line"/>
      <point x="532" y="162" type="line"/>
    </contour>
  </outline>
</glyph>
<glyph name="three" format="1">
  <advance width="600"/>
  <unicode hex="0033"/>
  <outline>
    <contour>
      <point x="204" y="250" type="curve"/>
      <point x="18" y="250" type="line"/>
      <point x="17" y="243" type="line" smooth="yes"/>
      <point x="-6" y="81"/>
      <point x="86" y="-14"/>
      <point x="265" y="-14" type="curve" smooth="yes"/>
      <point x="461" y="-14"/>
      <point x="534" y="112"/>
      <point x="543" y="203" type="curve" smooth="yes"/>
      <point x="545" y="223" type="line" smooth="yes"/>
      <point x="553" y="306"/>
      <point x="527" y="376"/>
      <point x="479" y="399" type="curve"/>
      <point x="531" y="423"/>
      <point x="572" y="470"/>
      <point x="583" y="551" type="curve" smooth="yes"/>
      <point x="586" y="573" type="line" smooth="yes"/>
      <point x="598" y="659"/>
      <point x="548" y="794"/>
      <point x="343" y="794" type="curve" smooth="yes"/>
      <point x="173" y="794"/>
      <point x="82" y="707"/>
      <point x="61" y="536" type="curve" smooth="yes"/>
      <point x="59" y="520" type="line"/>
      <point x="245" y="520" type="line"/>
      <point x="256" y="605"/>
      <point x="287" y="632"/>
      <point x="330" y="632" type="curve" smooth="yes"/>
      <point x="340" y="632" type="line" smooth="yes"/>
      <point x="375" y="632"/>
      <point x="401" y="604"/>
      <point x="397" y="563" type="curve" smooth="yes"/>
      <point x="396" y="552" type="line" smooth="yes"/>
      <point x="392" y="503"/>
      <point x="362" y="479"/>
      <point x="314" y="479" type="curve" smooth="yes"/>
      <point x="214" y="479" type="line"/>
      <point x="192" y="317" type="line"/>
      <point x="295" y="317" type="line" smooth="yes"/>
      <point x="343" y="317"/>
      <point x="363" y="292"/>
      <point x="359" y="243" type="curve" smooth="yes"/>
      <point x="358" y="232" type="line" smooth="yes"/>
      <point x="353" y="172"/>
      <point x="320" y="148"/>
      <point x="281" y="148" type="curve" smooth="yes"/>
      <point x="271" y="148" type="line" smooth="yes"/>
      <point x="232" y="148"/>
      <point x="194" y="170"/>
    </contour>
  </outline>
</glyph>
<glyph name="four" format="1">
  <advance width="600"/>
  <unicode hex="0034"/>
  <outline>
    <contour>
      <point x="454" y="0" type="line"/>
      <point x="474" y="159" type="line"/>
      <point x="546" y="159" type="line"/>
      <point x="568" y="321" type="line"/>
      <point x="496" y="321" type="line"/>
      <point x="556" y="780" type="line"/>
      <point x="381" y="780" type="line"/>
      <point x="14" y="290" type="line"/>
      <point x="-4" y="159" type="line"/>
      <point x="288" y="159" type="line"/>
      <point x="268" y="0" type="line"/>
    </contour>
    <contour>
      <point x="333" y="486" type="line"/>
      <point x="326" y="442" type="line"/>
      <point x="310" y="321" type="line"/>
      <point x="249" y="321" type="line"/>
      <point x="207" y="319" type="line"/>
    </contour>
  </outline>
</glyph>
<glyph name="five" format="1">
  <advance width="600"/>
  <unicode hex="0035"/>
  <outline>
    <contour>
      <point x="18" y="250" type="line"/>
      <point x="17" y="242" type="line" smooth="yes"/>
      <point x="-3" y="80"/>
      <point x="73" y="-14"/>
      <point x="265" y="-14" type="curve" smooth="yes"/>
      <point x="439" y="-14"/>
      <point x="532" y="86"/>
      <point x="547" y="238" type="curve" smooth="yes"/>
      <point x="549" y="258" type="line" smooth="yes"/>
      <point x="564" y="410"/>
      <point x="492" y="510"/>
      <point x="340" y="510" type="curve" smooth="yes"/>
      <point x="287" y="510"/>
      <point x="251" y="500"/>
      <point x="222" y="481" type="curve"/>
      <point x="246" y="618" type="line"/>
      <point x="587" y="618" type="line"/>
      <point x="608" y="780" type="line"/>
      <point x="112" y="780" type="line"/>
      <point x="38" y="355" type="line"/>
      <point x="191" y="300" type="line"/>
      <point x="213" y="333"/>
      <point x="252" y="348"/>
      <point x="284" y="348" type="curve" smooth="yes"/>
      <point x="289" y="348" type="line" smooth="yes"/>
      <point x="338" y="348"/>
      <point x="369" y="323"/>
      <point x="363" y="253" type="curve" smooth="yes"/>
      <point x="362" y="242" type="line" smooth="yes"/>
      <point x="356" y="172"/>
      <point x="315" y="148"/>
      <point x="276" y="148" type="curve" smooth="yes"/>
      <point x="266" y="148" type="line" smooth="yes"/>
      <point x="227" y="148"/>
      <point x="194" y="170"/>
      <point x="204" y="250" type="curve"/>
    </contour>
  </outline>
</glyph>
<glyph name="six" format="1">
  <advance width="600"/>
  <unicode hex="0036"/>
  <outline>
    <contour>
      <point x="580" y="794" type="line"/>
      <point x="413" y="794"/>
      <point x="284" y="773"/>
      <point x="176" y="658" type="curve" smooth="yes"/>
      <point x="75" y="550"/>
      <point x="40" y="448"/>
      <point x="24" y="296" type="curve" smooth="yes"/>
      <point x="22" y="277" type="line" smooth="yes"/>
      <point x="4" y="106"/>
      <point x="82" y="-14"/>
      <point x="267" y="-14" type="curve" smooth="yes"/>
      <point x="437" y="-14"/>
      <point x="532" y="82"/>
      <point x="547" y="234" type="curve" smooth="yes"/>
      <point x="549" y="254" type="line" smooth="yes"/>
      <point x="564" y="406"/>
      <point x="495" y="492"/>
      <point x="362" y="492" type="curve" smooth="yes"/>
      <point x="322" y="492"/>
      <point x="283" y="482"/>
      <point x="252" y="457" type="curve"/>
      <point x="264" y="499"/>
      <point x="284" y="528"/>
      <point x="307" y="551" type="curve" smooth="yes"/>
      <point x="369" y="611"/>
      <point x="439" y="629"/>
      <point x="558" y="630" type="curve"/>
    </contour>
    <contour>
      <point x="294" y="331" type="curve" smooth="yes"/>
      <point x="299" y="331" type="line" smooth="yes"/>
      <point x="339" y="331"/>
      <point x="370" y="307"/>
      <point x="363" y="247" type="curve" smooth="yes"/>
      <point x="362" y="236" type="line" smooth="yes"/>
      <point x="356" y="182"/>
      <point x="317" y="148"/>
      <point x="275" y="148" type="curve" smooth="yes"/>
      <point x="269" y="148" type="line" smooth="yes"/>
      <point x="227" y="148"/>
      <point x="197" y="186"/>
      <point x="206" y="261" type="curve" smooth="yes"/>
      <point x="209" y="286" type="line"/>
      <point x="233" y="318"/>
      <point x="267" y="331"/>
    </contour>
  </outline>
</glyph>
<glyph name="seven" format="1">
  <advance width="600"/>
  <unicode hex="0037"/>
  <outline>
    <contour>
      <point x="46" y="500" type="line"/>
      <point x="208" y="500" type="line"/>
      <point x="224" y="618" type="line"/>
      <point x="305" y="618" type="line"/>
      <point x="395" y="620" type="line"/>
      <point x="52" y="0" type="line"/>
      <point x="251" y="0" type="line"/>
      <point x="608" y="665" type="line"/>
      <point x="623" y="780" type="line"/>
      <point x="83" y="780" type="line"/>
    </contour>
  </outline>
</glyph>
<glyph name="eight" format="1">
  <advance width="600"/>
  <unicode hex="0038"/>
  <outline>
    <contour>
      <point x="265" y="-14" type="curve" smooth="yes"/>
      <point x="461" y="-14"/>
      <point x="534" y="112"/>
      <point x="543" y="203" type="curve" smooth="yes"/>
      <point x="545" y="223" type="line" smooth="yes"/>
      <point x="553" y="306"/>
      <point x="527" y="376"/>
      <point x="479" y="399" type="curve"/>
      <point x="531" y="423"/>
      <point x="572" y="470"/>
      <point x="583" y="551" type="curve" smooth="yes"/>
      <point x="586" y="573" type="line" smooth="yes"/>
      <point x="598" y="659"/>
      <point x="548" y="794"/>
      <point x="343" y="794" type="curve" smooth="yes"/>
      <point x="144" y="794"/>
      <point x="80" y="675"/>
      <point x="68" y="586" type="curve" smooth="yes"/>
      <point x="65" y="564" type="line" smooth="yes"/>
      <point x="55" y="491"/>
      <point x="90" y="426"/>
      <point x="127" y="399" type="curve"/>
      <point x="70" y="370"/>
      <point x="24" y="311"/>
      <point x="16" y="228" type="curve" smooth="yes"/>
      <point x="14" y="208" type="line" smooth="yes"/>
      <point x="4" y="104"/>
      <point x="66" y="-14"/>
    </contour>
    <contour>
      <point x="294" y="317" type="line" smooth="yes"/>
      <point x="339" y="317"/>
      <point x="363" y="292"/>
      <point x="359" y="243" type="curve" smooth="yes"/>
      <point x="358" y="232" type="line" smooth="yes"/>
      <point x="353" y="172"/>
      <point x="315" y="148"/>
      <point x="276" y="148" type="curve" smooth="yes"/>
      <point x="266" y="148" type="line" smooth="yes"/>
      <point x="221" y="148"/>
      <point x="197" y="173"/>
      <point x="201" y="222" type="curve" smooth="yes"/>
      <point x="202" y="233" type="line" smooth="yes"/>
      <point x="207" y="293"/>
      <point x="245" y="317"/>
      <point x="284" y="317" type="curve" smooth="yes"/>
    </contour>
    <contour>
      <point x="306" y="479" type="line" smooth="yes"/>
      <point x="271" y="479"/>
      <point x="245" y="507"/>
      <point x="249" y="548" type="curve" smooth="yes"/>
      <point x="250" y="559" type="line" smooth="yes"/>
      <point x="254" y="608"/>
      <point x="284" y="632"/>
      <point x="330" y="632" type="curve" smooth="yes"/>
      <point x="340" y="632" type="line" smooth="yes"/>
      <point x="375" y="632"/>
      <point x="401" y="604"/>
      <point x="397" y="563" type="curve" smooth="yes"/>
      <point x="396" y="552" type="line" smooth="yes"/>
      <point x="392" y="503"/>
      <point x="362" y="479"/>
      <point x="316" y="479" type="curve" smooth="yes"/>
    </contour>
  </outline>
</glyph>
<glyph name="nine" format="1">
  <advance width="600"/>
  <unicode hex="0039"/>
  <outline>
    <contour>
      <point x="24" y="-14" type="line"/>
      <point x="191" y="-14"/>
      <point x="320" y="7"/>
      <point x="428" y="122" type="curve" smooth="yes"/>
      <point x="529" y="230"/>
      <point x="564" y="332"/>
      <point x="580" y="484" type="curve" smooth="yes"/>
      <point x="582" y="503" type="line" smooth="yes"/>
      <point x="600" y="674"/>
      <point x="522" y="794"/>
      <point x="337" y="794" type="curve" smooth="yes"/>
      <point x="167" y="794"/>
      <point x="72" y="698"/>
      <point x="57" y="546" type="curve" smooth="yes"/>
      <point x="55" y="526" type="line" smooth="yes"/>
      <point x="40" y="374"/>
      <point x="109" y="288"/>
      <point x="242" y="288" type="curve" smooth="yes"/>
      <point x="282" y="288"/>
      <point x="321" y="298"/>
      <point x="352" y="323" type="curve"/>
      <point x="340" y="281"/>
      <point x="320" y="252"/>
      <point x="297" y="229" type="curve" smooth="yes"/>
      <point x="235" y="169"/>
      <point x="165" y="151"/>
      <point x="46" y="150" type="curve"/>
    </contour>
    <contour>
      <point x="305" y="449" type="line" smooth="yes"/>
      <point x="265" y="449"/>
      <point x="234" y="473"/>
      <point x="241" y="533" type="curve" smooth="yes"/>
      <point x="242" y="544" type="line" smooth="yes"/>
      <point x="248" y="598"/>
      <point x="287" y="632"/>
      <point x="329" y="632" type="curve" smooth="yes"/>
      <point x="335" y="632" type="line" smooth="yes"/>
      <point x="377" y="632"/>
      <point x="407" y="594"/>
      <point x="398" y="519" type="curve" smooth="yes"/>
      <point x="395" y="494" type="line"/>
      <point x="371" y="462"/>
      <point x="337" y="449"/>
      <point x="310" y="449" type="curve" smooth="yes"/>
    </contour>
  </outline>
</glyph>
<glyph name="semicolon" format="1">
  <advance width="280"/>
  <unicode hex="003B"/>
  <outline>
    <contour>
      <point x="211" y="190" type="line"/>
      <point x="21" y="190" type="line"/>
      <point x="-4" y="0" type="line"/>
      <point x="90" y="0" type="line"/>
      <point x="72" y="-39"/>
      <point x="38" y="-60"/>
      <point x="-12" y="-60" type="curve"/>
      <point x="-24" y="-150" type="line"/>
      <point x="101" y="-150"/>
      <point x="174" y="-85"/>
      <point x="191" y="40" type="curve" smooth="yes"/>
    </contour>
    <contour>
      <point x="249" y="485" type="line"/>
      <point x="59" y="485" type="line"/>
      <point x="34" y="295" type="line"/>
      <point x="224" y="295" type="line"/>
    </contour>
  </outline>
</glyph>
<glyph name="less" format="1">
  <advance width="600"/>
  <unicode hex="003C"/>
  <outline>
    <contour>
      <point x="54" y="480" type="line"/>
      <point x="30" y="300" type="line"/>
      <point x="524" y="104" type="line"/>
      <point x="548" y="286" type="line"/>
      <point x="263" y="390" type="line"/>
      <point x="576" y="494" type="line"/>
      <point x="599" y="676" type="line"/>
    </contour>
  </outline>
</glyph>
<glyph name="equal" format="1">
  <advance width="600"/>
  <unicode hex="003D"/>
  <outline>
    <contour>
      <point x="46" y="418" type="line"/>
      <point x="566" y="418" type="line"/>
      <point x="587" y="582" type="line"/>
      <point x="67" y="582" type="line"/>
    </contour>
    <contour>
      <point x="17" y="198" type="line"/>
      <point x="537" y="198" type="line"/>
      <point x="558" y="362" type="line"/>
      <point x="38" y="362" type="line"/>
    </contour>
  </outline>
</glyph>
<glyph name="greater" format="1">
  <advance width="600"/>
  <unicode hex="003E"/>
  <outline>
    <contour>
      <point x="574" y="480" type="line"/>
      <point x="79" y="676" type="line"/>
      <point x="56" y="494" type="line"/>
      <point x="341" y="390" type="line"/>
      <point x="28" y="286" type="line"/>
      <point x="4" y="104" type="line"/>
      <point x="550" y="300" type="line"/>
    </contour>
  </outline>
</glyph>
<glyph name="question" format="1">
  <advance width="510"/>
  <unicode hex="003F"/>
  <outline>
    <contour>
      <point x="294" y="632" type="curve" smooth="yes"/>
      <point x="325" y="632"/>
      <point x="337" y="613"/>
      <point x="337" y="588" type="curve" smooth="yes"/>
      <point x="337" y="511"/>
      <point x="175" y="437"/>
      <point x="167" y="240" type="curve"/>
      <point x="297" y="240" type="line"/>
      <point x="336" y="419"/>
      <point x="526" y="423"/>
      <point x="526" y="621" type="curve" smooth="yes"/>
      <point x="526" y="709"/>
      <point x="479" y="794"/>
      <point x="304" y="794" type="curve" smooth="yes"/>
      <point x="138" y="794"/>
      <point x="59" y="711"/>
      <point x="41" y="539" type="curve" smooth="yes"/>
      <point x="39" y="520" type="line"/>
      <point x="225" y="520" type="line"/>
      <point x="231" y="600"/>
      <point x="255" y="632"/>
    </contour>
    <contour>
      <point x="321" y="190" type="line"/>
      <point x="131" y="190" type="line"/>
      <point x="106" y="0" type="line"/>
      <point x="296" y="0" type="line"/>
    </contour>
  </outline>
</glyph>
<glyph name="at" format="1">
  <advance width="1000"/>
  <unicode hex="0040"/>
  <outline>
    <contour>
      <point x="453" y="-96" type="line" smooth="yes"/>
      <point x="234" y="-96"/>
      <point x="100" y="22"/>
      <point x="131" y="270" type="curve" smooth="yes"/>
      <point x="136" y="310" type="line" smooth="yes"/>
      <point x="167" y="558"/>
      <point x="341" y="676"/>
      <point x="553" y="676" type="curve" smooth="yes"/>
      <point x="559" y="676" type="line" smooth="yes"/>
      <point x="721" y="676"/>
      <point x="886" y="629"/>
      <point x="856" y="401" type="curve" smooth="yes"/>
      <point x="852" y="371" type="line" smooth="yes"/>
      <point x="834" y="233"/>
      <point x="798" y="185"/>
      <point x="686" y="178" type="curve"/>
      <point x="715" y="396" type="line"/>
      <point x="742" y="530" type="line"/>
      <point x="597" y="530" type="line"/>
      <point x="579" y="474" type="line"/>
      <point x="557" y="515"/>
      <point x="516" y="544"/>
      <point x="451" y="544" type="curve" smooth="yes"/>
      <point x="332" y="544"/>
      <point x="261" y="451"/>
      <point x="242" y="313" type="curve" smooth="yes"/>
      <point x="237" y="277" type="line" smooth="yes"/>
      <point x="218" y="139"/>
      <point x="273" y="46"/>
      <point x="392" y="46" type="curve" smooth="yes"/>
      <point x="457" y="46"/>
      <point x="499" y="74"/>
      <point x="532" y="115" type="curve"/>
      <point x="535" y="60" type="line"/>
      <point x="658" y="60" type="line" smooth="yes"/>
      <point x="813" y="60"/>
      <point x="942" y="131"/>
      <point x="974" y="371" type="curve" smooth="yes"/>
      <point x="978" y="401" type="line" smooth="yes"/>
      <point x="1016" y="686"/>
      <point x="808" y="794"/>
      <point x="553" y="794" type="curve" smooth="yes"/>
      <point x="283" y="794"/>
      <point x="55" y="625"/>
      <point x="16" y="310" type="curve" smooth="yes"/>
      <point x="11" y="270" type="line" smooth="yes"/>
      <point x="-28" y="-45"/>
      <point x="159" y="-214"/>
      <point x="456" y="-214" type="curve" smooth="yes"/>
      <point x="563" y="-214"/>
      <point x="712" y="-192"/>
      <point x="861" y="-77" type="curve"/>
      <point x="805" y="15" type="line"/>
      <point x="707" y="-58"/>
      <point x="580" y="-96"/>
      <point x="459" y="-96" type="curve" smooth="yes"/>
    </contour>
    <contour>
      <point x="461" y="187" type="curve" smooth="yes"/>
      <point x="416" y="187"/>
      <point x="396" y="213"/>
      <point x="405" y="277" type="curve" smooth="yes"/>
      <point x="410" y="313" type="line" smooth="yes"/>
      <point x="418" y="371"/>
      <point x="439" y="403"/>
      <point x="484" y="403" type="curve" smooth="yes"/>
      <point x="520" y="403"/>
      <point x="544" y="380"/>
      <point x="551" y="366" type="curve"/>
      <point x="532" y="224" type="line"/>
      <point x="521" y="210"/>
      <point x="497" y="187"/>
    </contour>
  </outline>
</glyph>
<glyph name="A" format="1">
  <advance width="650"/>
  <unicode hex="0041"/>
  <outline>
    <contour>
      <point x="248" y="780" type="line"/>
      <point x="-40" y="0" type="line"/>
      <point x="164" y="0" type="line"/>
      <point x="215" y="158" type="line"/>
      <point x="377" y="158" type="line"/>
      <point x="389" y="0" type="line"/>
      <point x="592" y="0" type="line"/>
      <point x="508" y="780" type="line"/>
    </contour>
    <contour>
      <point x="349" y="560" type="line"/>
      <point x="366" y="322" type="line"/>
      <point x="270" y="322" type="line"/>
    </contour>
  </outline>
</glyph>
<glyph name="B" format="1">
  <advance width="645"/>
  <unicode hex="0042"/>
  <outline>
    <contour>
      <point x="103" y="780" type="line"/>
      <point x="1" y="0" type="line"/>
      <point x="281" y="0" type="line" smooth="yes"/>
      <point x="405" y="0"/>
      <point x="561" y="28"/>
      <point x="581" y="232" type="curve" smooth="yes"/>
      <point x="583" y="252" type="line" smooth="yes"/>
      <point x="591" y="332"/>
      <point x="565" y="376"/>
      <point x="519" y="403" type="curve"/>
      <point x="561" y="430"/>
      <point x="592" y="471"/>
      <point x="601" y="537" type="curve" smooth="yes"/>
      <point x="604" y="559" type="line" smooth="yes"/>
      <point x="631" y="755"/>
      <point x="497" y="780"/>
      <point x="378" y="780" type="curve" smooth="yes"/>
    </contour>
    <contour>
      <point x="327" y="316" type="line" smooth="yes"/>
      <point x="358" y="316"/>
      <point x="397" y="307"/>
      <point x="391" y="246" type="curve" smooth="yes"/>
      <point x="390" y="235" type="line" smooth="yes"/>
      <point x="384" y="174"/>
      <point x="338" y="164"/>
      <point x="307" y="164" type="curve" smooth="yes"/>
      <point x="212" y="164" type="line"/>
      <point x="232" y="316" type="line"/>
    </contour>
    <contour>
      <point x="354" y="616" type="line" smooth="yes"/>
      <point x="384" y="616"/>
      <point x="416" y="608"/>
      <point x="411" y="553" type="curve" smooth="yes"/>
      <point x="410" y="542" type="line" smooth="yes"/>
      <point x="405" y="488"/>
      <point x="364" y="480"/>
      <point x="336" y="480" type="curve" smooth="yes"/>
      <point x="254" y="480" type="line"/>
      <point x="272" y="616" type="line"/>
    </contour>
  </outline>
</glyph>
<glyph name="D" format="1">
  <advance width="670"/>
  <unicode hex="0044"/>
  <outline>
    <contour>
      <point x="641" y="410" type="line" smooth="yes"/>
      <point x="677" y="680"/>
      <point x="593" y="780"/>
      <point x="348" y="780" type="curve" smooth="yes"/>
      <point x="103" y="780" type="line"/>
      <point x="1" y="0" type="line"/>
      <point x="256" y="0" type="line" smooth="yes"/>
      <point x="501" y="0"/>
      <point x="600" y="102"/>
      <point x="636" y="372" type="curve" smooth="yes"/>
    </contour>
    <contour>
      <point x="212" y="164" type="line"/>
      <point x="272" y="616" type="line"/>
      <point x="317" y="616" type="line" smooth="yes"/>
      <point x="447" y="616"/>
      <point x="466" y="545"/>
      <point x="448" y="410" type="curve" smooth="yes"/>
      <point x="443" y="372" type="line" smooth="yes"/>
      <point x="425" y="237"/>
      <point x="397" y="164"/>
      <point x="267" y="164" type="curve" smooth="yes"/>
    </contour>
  </outline>
</glyph>
<glyph name="E" format="1">
  <advance width="580"/>
  <unicode hex="0045"/>
  <outline>
    <contour>
      <point x="103" y="780" type="line"/>
      <point x="1" y="0" type="line"/>
      <point x="491" y="0" type="line"/>
      <point x="512" y="164" type="line"/>
      <point x="212" y="164" type="line"/>
      <point x="232" y="316" type="line"/>
      <point x="482" y="316" type="line"/>
      <point x="504" y="480" type="line"/>
      <point x="254" y="480" type="line"/>
      <point x="272" y="616" type="line"/>
      <point x="572" y="616" type="line"/>
      <point x="593" y="780" type="line"/>
    </contour>
  </outline>
</glyph>
<glyph name="F" format="1">
  <advance width="560"/>
  <unicode hex="0046"/>
  <outline>
    <contour>
      <point x="103" y="780" type="line"/>
      <point x="1" y="0" type="line"/>
      <point x="191" y="0" type="line"/>
      <point x="232" y="316" type="line"/>
      <point x="482" y="316" type="line"/>
      <point x="504" y="480" type="line"/>
      <point x="254" y="480" type="line"/>
      <point x="272" y="616" type="line"/>
      <point x="572" y="616" type="line"/>
      <point x="593" y="780" type="line"/>
    </contour>
  </outline>
</glyph>
<glyph name="H" format="1">
  <advance width="670"/>
  <unicode hex="0048"/>
  <outline>
    <contour>
      <point x="483" y="780" type="line"/>
      <point x="444" y="480" type="line"/>
      <point x="254" y="480" type="line"/>
      <point x="293" y="780" type="line"/>
      <point x="103" y="780" type="line"/>
      <point x="1" y="0" type="line"/>
      <point x="191" y="0" type="line"/>
      <point x="232" y="316" type="line"/>
      <point x="422" y="316" type="line"/>
      <point x="381" y="0" type="line"/>
      <point x="571" y="0" type="line"/>
      <point x="673" y="780" type="line"/>
    </contour>
  </outline>
</glyph>
<glyph name="I" format="1">
  <advance width="300"/>
  <unicode hex="0049"/>
  <outline>
    <contour>
      <point x="298" y="780" type="line"/>
      <point x="108" y="780" type="line"/>
      <point x="6" y="0" type="line"/>
      <point x="196" y="0" type="line"/>
    </contour>
  </outline>
</glyph>
<glyph name="J" format="1">
  <advance width="550"/>
  <unicode hex="004A"/>
  <outline>
    <contour>
      <point x="368" y="780" type="line"/>
      <point x="300" y="260" type="line" smooth="yes"/>
      <point x="291" y="192"/>
      <point x="273" y="150"/>
      <point x="226" y="150" type="curve" smooth="yes"/>
      <point x="179" y="150"/>
      <point x="177" y="192"/>
      <point x="187" y="270" type="curve"/>
      <point x="7" y="270" type="line"/>
      <point x="3" y="240" type="line" smooth="yes"/>
      <point x="-18" y="78"/>
      <point x="36" y="-14"/>
      <point x="216" y="-14" type="curve" smooth="yes"/>
      <point x="386" y="-14"/>
      <point x="466" y="78"/>
      <point x="487" y="238" type="curve" smooth="yes"/>
      <point x="558" y="780" type="line"/>
    </contour>
  </outline>
</glyph>
<glyph name="K" format="1">
  <advance width="645"/>
  <unicode hex="004B"/>
  <outline>
    <contour>
      <point x="293" y="780" type="line"/>
      <point x="103" y="780" type="line"/>
      <point x="1" y="0" type="line"/>
      <point x="191" y="0" type="line"/>
      <point x="219" y="220" type="line"/>
      <point x="283" y="297" type="line"/>
      <point x="371" y="0" type="line"/>
      <point x="581" y="0" type="line"/>
      <point x="429" y="473" type="line"/>
      <point x="683" y="780" type="line"/>
      <point x="453" y="780" type="line"/>
      <point x="258" y="512" type="line"/>
    </contour>
  </outline>
</glyph>
<glyph name="L" format="1">
  <advance width="530"/>
  <unicode hex="004C"/>
  <outline>
    <contour>
      <point x="466" y="0" type="line"/>
      <point x="487" y="164" type="line"/>
      <point x="212" y="164" type="line"/>
      <point x="293" y="780" type="line"/>
      <point x="103" y="780" type="line"/>
      <point x="1" y="0" type="line"/>
    </contour>
  </outline>
</glyph>
<glyph name="Q" format="1">
  <advance width="680"/>
  <unicode hex="0051"/>
  <outline>
    <contour>
      <point x="385" y="794" type="curve" smooth="yes"/>
      <point x="175" y="794"/>
      <point x="73" y="678"/>
      <point x="37" y="408" type="curve" smooth="yes"/>
      <point x="32" y="370" type="line" smooth="yes"/>
      <point x="-4" y="100"/>
      <point x="90" y="-14"/>
      <point x="300" y="-14" type="curve" smooth="yes"/>
      <point x="307" y="-14"/>
      <point x="313" y="-13"/>
      <point x="320" y="-13" type="curve"/>
      <point x="342" y="-100" type="line"/>
      <point x="487" y="-100" type="line"/>
      <point x="455" y="16" type="line"/>
      <point x="563" y="66"/>
      <point x="621" y="180"/>
      <point x="647" y="372" type="curve" smooth="yes"/>
      <point x="652" y="410" type="line" smooth="yes"/>
      <point x="688" y="680"/>
      <point x="595" y="794"/>
    </contour>
    <contour>
      <point x="386" y="273" type="line"/>
      <point x="246" y="273" type="line"/>
      <point x="277" y="153" type="line"/>
      <point x="213" y="170"/>
      <point x="209" y="250"/>
      <point x="225" y="370" type="curve" smooth="yes"/>
      <point x="230" y="408" type="line" smooth="yes"/>
      <point x="248" y="544"/>
      <point x="278" y="630"/>
      <point x="368" y="630" type="curve" smooth="yes"/>
      <point x="379" y="630" type="line" smooth="yes"/>
      <point x="469" y="630"/>
      <point x="477" y="546"/>
      <point x="459" y="410" type="curve" smooth="yes"/>
      <point x="454" y="372" type="line" smooth="yes"/>
      <point x="444" y="297"/>
      <point x="431" y="238"/>
      <point x="406" y="199" type="curve"/>
    </contour>
  </outline>
</glyph>
<glyph name="T" format="1">
  <advance width="570"/>
  <unicode hex="0054"/>
  <outline>
    <contour>
      <point x="412" y="616" type="line"/>
      <point x="587" y="616" type="line"/>
      <point x="608" y="780" type="line"/>
      <point x="68" y="780" type="line"/>
      <point x="47" y="616" type="line"/>
      <point x="222" y="616" type="line"/>
      <point x="141" y="0" type="line"/>
      <point x="331" y="0" type="line"/>
    </contour>
  </outline>
</glyph>
<glyph name="V" format="1">
  <advance width="650"/>
  <unicode hex="0056"/>
  <outline>
    <contour>
      <point x="406" y="0" type="line"/>
      <point x="694" y="780" type="line"/>
      <point x="490" y="780" type="line"/>
      <point x="304" y="220" type="line"/>
      <point x="265" y="780" type="line"/>
      <point x="62" y="780" type="line"/>
      <point x="146" y="0" type="line"/>
    </contour>
  </outline>
</glyph>
<glyph name="X" format="1">
  <advance width="660"/>
  <unicode hex="0058"/>
  <outline>
    <contour>
      <point x="-34" y="0" type="line"/>
      <point x="176" y="0" type="line"/>
      <point x="315" y="265" type="line"/>
      <point x="386" y="0" type="line"/>
      <point x="596" y="0" type="line"/>
      <point x="469" y="413" type="line"/>
      <point x="698" y="780" type="line"/>
      <point x="478" y="780" type="line"/>
      <point x="352" y="542" type="line"/>
      <point x="288" y="780" type="line"/>
      <point x="68" y="780" type="line"/>
      <point x="200" y="413" type="line"/>
    </contour>
  </outline>
</glyph>
<glyph name="Z" format="1">
  <advance width="610"/>
  <unicode hex="005A"/>
  <outline>
    <contour>
      <point x="7" y="130" type="line"/>
      <point x="-10" y="0" type="line"/>
      <point x="520" y="0" type="line"/>
      <point x="541" y="164" type="line"/>
      <point x="391" y="164" type="line"/>
      <point x="243" y="160" type="line"/>
      <point x="595" y="650" type="line"/>
      <point x="612" y="780" type="line"/>
      <point x="102" y="780" type="line"/>
      <point x="81" y="616" type="line"/>
      <point x="211" y="616" type="line"/>
      <point x="359" y="620" type="line"/>
    </contour>
  </outline>
</glyph>
<glyph name="bracketleft" format="1">
  <advance width="380"/>
  <unicode hex="005B"/>
  <outline>
    <contour>
      <point x="116" y="840" type="line"/>
      <point x="-10" y="-120" type="line"/>
      <point x="285" y="-120" type="line"/>
      <point x="306" y="40" type="line"/>
      <point x="195" y="40" type="line"/>
      <point x="279" y="680" type="line"/>
      <point x="390" y="680" type="line"/>
      <point x="411" y="840" type="line"/>
    </contour>
  </outline>
</glyph>
<glyph name="backslash" format="1">
  <advance width="438"/>
  <unicode hex="005C"/>
  <outline>
    <contour>
      <point x="180" y="-120" type="line"/>
      <point x="360" y="-120" type="line"/>
      <point x="256" y="840" type="line"/>
      <point x="76" y="840" type="line"/>
    </contour>
  </outline>
</glyph>
<glyph name="bracketright" format="1">
  <advance width="380"/>
  <unicode hex="005D"/>
  <outline>
    <contour>
      <point x="260" y="-120" type="line"/>
      <point x="386" y="840" type="line"/>
      <point x="91" y="840" type="line"/>
      <point x="70" y="680" type="line"/>
      <point x="181" y="680" type="line"/>
      <point x="97" y="40" type="line"/>
      <point x="-14" y="40" type="line"/>
      <point x="-35" y="-120" type="line"/>
    </contour>
  </outline>
</glyph>
<glyph name="asciicircum" format="1">
  <advance width="600"/>
  <unicode hex="005E"/>
  <outline>
    <contour>
      <point x="443" y="780" type="line"/>
      <point x="263" y="780" type="line"/>
      <point x="-1" y="260" type="line"/>
      <point x="181" y="260" type="line"/>
      <point x="324" y="559" type="line"/>
      <point x="389" y="260" type="line"/>
      <point x="571" y="260" type="line"/>
    </contour>
  </outline>
</glyph>
<glyph name="underscore" format="1">
  <advance width="320"/>
  <unicode hex="005F"/>
  <outline>
    <contour>
      <point x="-36" y="-200" type="line"/>
      <point x="204" y="-200" type="line"/>
      <point x="225" y="-40" type="line"/>
      <point x="-15" y="-40" type="line"/>
    </contour>
  </outline>
</glyph>
<glyph name="grave" format="1">
  <advance width="500"/>
  <unicode hex="0060"/>
  <outline>
    <contour>
      <point x="101" y="780" type="line"/>
      <point x="187" y="590" type="line"/>
      <point x="369" y="590" type="line"/>
      <point x="303" y="780" type="line"/>
    </contour>
  </outline>
</glyph>
<glyph name="i" format="1">
  <advance width="280"/>
  <unicode hex="0069"/>
  <outline>
    <contour>
      <point x="-1" y="0" type="line"/>
      <point x="183" y="0" type="line"/>
      <point x="252" y="530" type="line"/>
      <point x="68" y="530" type="line"/>
    </contour>
    <contour>
      <point x="288" y="780" type="line"/>
      <point x="98" y="780" type="line"/>
      <point x="73" y="590" type="line"/>
      <point x="263" y="590" type="line"/>
    </contour>
  </outline>
</glyph>
<glyph name="k" format="1">
  <advance width="580"/>
  <unicode hex="006B"/>
  <outline>
    <contour>
      <point x="-4" y="0" type="line"/>
      <point x="180" y="0" type="line"/>
      <point x="198" y="141" type="line"/>
      <point x="238" y="182" type="line"/>
      <point x="301" y="0" type="line"/>
      <point x="516" y="0" type="line"/>
      <point x="385" y="329" type="line"/>
      <point x="585" y="530" type="line"/>
      <point x="365" y="530" type="line"/>
      <point x="230" y="382" type="line"/>
      <point x="285" y="800" type="line"/>
      <point x="101" y="800" type="line"/>
    </contour>
  </outline>
</glyph>
<glyph name="l" format="1">
  <advance width="280"/>
  <unicode hex="006C"/>
  <outline>
    <contour>
      <point x="-1" y="0" type="line"/>
      <point x="183" y="0" type="line"/>
      <point x="288" y="800" type="line"/>
      <point x="104" y="800" type="line"/>
    </contour>
  </outline>
</glyph>
<glyph name="q" format="1">
  <advance width="593"/>
  <unicode hex="0071"/>
  <outline>
    <contour>
      <point x="279" y="-200" type="line"/>
      <point x="463" y="-200" type="line"/>
      <point x="540" y="380" type="line"/>
      <point x="569" y="530" type="line"/>
      <point x="403" y="530" type="line"/>
      <point x="384" y="469" type="line"/>
      <point x="360" y="513"/>
      <point x="317" y="544"/>
      <point x="238" y="544" type="curve" smooth="yes"/>
      <point x="103" y="544"/>
      <point x="36" y="436"/>
      <point x="16" y="284" type="curve" smooth="yes"/>
      <point x="11" y="246" type="line" smooth="yes"/>
      <point x="-10" y="86"/>
      <point x="41" y="-14"/>
      <point x="164" y="-14" type="curve" smooth="yes"/>
      <point x="233" y="-14"/>
      <point x="277" y="8"/>
      <point x="311" y="40" type="curve"/>
    </contour>
    <contour>
      <point x="330" y="185" type="line"/>
      <point x="318" y="170"/>
      <point x="292" y="144"/>
      <point x="252" y="144" type="curve" smooth="yes"/>
      <point x="202" y="144"/>
      <point x="185" y="179"/>
      <point x="194" y="246" type="curve" smooth="yes"/>
      <point x="199" y="284" type="line" smooth="yes"/>
      <point x="208" y="353"/>
      <point x="235" y="386"/>
      <point x="285" y="386" type="curve" smooth="yes"/>
      <point x="325" y="386"/>
      <point x="343" y="360"/>
      <point x="351" y="345" type="curve"/>
    </contour>
  </outline>
</glyph>
<glyph name="t" format="1">
  <advance width="440"/>
  <unicode hex="0074"/>
  <outline>
    <contour>
      <point x="299" y="530" type="line"/>
      <point x="319" y="680" type="line"/>
      <point x="135" y="680" type="line"/>
      <point x="115" y="530" type="line"/>
      <point x="35" y="530" type="line"/>
      <point x="14" y="370" type="line"/>
      <point x="94" y="370" type="line"/>
      <point x="71" y="195" type="line" smooth="yes"/>
      <point x="51" y="40"/>
      <point x="129" y="-14"/>
      <point x="256" y="-14" type="curve" smooth="yes"/>
      <point x="306" y="-14"/>
      <point x="337" y="-5"/>
      <point x="347" y="0" type="curve"/>
      <point x="366" y="150" type="line"/>
      <point x="361" y="148"/>
      <point x="335" y="144"/>
      <point x="319" y="144" type="curve" smooth="yes"/>
      <point x="277" y="144"/>
      <point x="250" y="155"/>
      <point x="258" y="215" type="curve" smooth="yes"/>
      <point x="278" y="370" type="line"/>
      <point x="405" y="370" type="line"/>
      <point x="426" y="530" type="line"/>
    </contour>
  </outline>
</glyph>
<glyph name="v" format="1">
  <advance width="560"/>
  <unicode hex="0076"/>
  <outline>
    <contour>
      <point x="101" y="0" type="line"/>
      <point x="361" y="0" type="line"/>
      <point x="575" y="530" type="line"/>
      <point x="385" y="530" type="line"/>
      <point x="250" y="145" type="line"/>
      <point x="215" y="530" type="line"/>
      <point x="25" y="530" type="line"/>
    </contour>
  </outline>
</glyph>
<glyph name="w" format="1">
  <advance width="780"/>
  <unicode hex="0077"/>
  <outline>
    <contour>
      <point x="385" y="340" type="line"/>
      <point x="401" y="0" type="line"/>
      <point x="631" y="0" type="line"/>
      <point x="785" y="530" type="line"/>
      <point x="605" y="530" type="line"/>
      <point x="537" y="200" type="line"/>
      <point x="520" y="530" type="line"/>
      <point x="300" y="530" type="line"/>
      <point x="197" y="200" type="line"/>
      <point x="215" y="530" type="line"/>
      <point x="35" y="530" type="line"/>
      <point x="51" y="0" type="line"/>
      <point x="281" y="0" type="line"/>
    </contour>
  </outline>
</glyph>
<glyph name="x" format="1">
  <advance width="580"/>
  <unicode hex="0078"/>
  <outline>
    <contour>
      <point x="35" y="530" type="line"/>
      <point x="130" y="275" type="line"/>
      <point x="-34" y="0" type="line"/>
      <point x="172" y="0" type="line"/>
      <point x="263" y="172" type="line"/>
      <point x="310" y="0" type="line"/>
      <point x="516" y="0" type="line"/>
      <point x="423" y="275" type="line"/>
      <point x="585" y="530" type="line"/>
      <point x="373" y="530" type="line"/>
      <point x="288" y="362" type="line"/>
      <point x="247" y="530" type="line"/>
    </contour>
  </outline>
</glyph>
<glyph name="y" format="1">
  <advance width="570"/>
  <unicode hex="0079"/>
  <outline>
    <contour>
      <point x="264" y="220" type="line"/>
      <point x="220" y="530" type="line"/>
      <point x="20" y="530" type="line"/>
      <point x="139" y="30" type="line"/>
      <point x="23" y="-200" type="line"/>
      <point x="243" y="-200" type="line"/>
      <point x="339" y="30" type="line"/>
      <point x="590" y="530" type="line"/>
      <point x="390" y="530" type="line"/>
    </contour>
  </outline>
</glyph>
<glyph name="z" format="1">
  <advance width="510"/>
  <unicode hex="007A"/>
  <outline>
    <contour>
      <point x="-14" y="126" type="line"/>
      <point x="-30" y="0" type="line"/>
      <point x="440" y="0" type="line"/>
      <point x="461" y="160" type="line"/>
      <point x="341" y="160" type="line"/>
      <point x="232" y="156" type="line"/>
      <point x="483" y="404" type="line"/>
      <point x="499" y="530" type="line"/>
      <point x="49" y="530" type="line"/>
      <point x="28" y="370" type="line"/>
      <point x="128" y="370" type="line"/>
      <point x="237" y="374" type="line"/>
    </contour>
  </outline>
</glyph>
<glyph name="braceleft" format="1">
  <advance width="380"/>
  <unicode hex="007B"/>
  <outline>
    <contour>
      <point x="411" y="840" type="line"/>
      <point x="381" y="840" type="line" smooth="yes"/>
      <point x="241" y="840"/>
      <point x="150" y="790"/>
      <point x="131" y="650" type="curve" smooth="yes"/>
      <point x="114" y="520" type="line" smooth="yes"/>
      <point x="107" y="465"/>
      <point x="81" y="440"/>
      <point x="32" y="440" type="curve"/>
      <point x="11" y="280" type="line"/>
      <point x="60" y="280"/>
      <point x="79" y="255"/>
      <point x="72" y="200" type="curve" smooth="yes"/>
      <point x="55" y="70" type="line" smooth="yes"/>
      <point x="36" y="-70"/>
      <point x="115" y="-120"/>
      <point x="255" y="-120" type="curve" smooth="yes"/>
      <point x="285" y="-120" type="line"/>
      <point x="306" y="40" type="line"/>
      <point x="257" y="40"/>
      <point x="238" y="65"/>
      <point x="245" y="120" type="curve" smooth="yes"/>
      <point x="261" y="240" type="line" smooth="yes"/>
      <point x="269" y="298"/>
      <point x="253" y="336"/>
      <point x="215" y="360" type="curve"/>
      <point x="259" y="383"/>
      <point x="285" y="422"/>
      <point x="293" y="480" type="curve" smooth="yes"/>
      <point x="308" y="600" type="line" smooth="yes"/>
      <point x="316" y="655"/>
      <point x="341" y="680"/>
      <point x="390" y="680" type="curve"/>
    </contour>
  </outline>
</glyph>
<glyph name="bar" format="1">
  <advance width="280"/>
  <unicode hex="007C"/>
  <outline>
    <contour>
      <point x="-15" y="-120" type="line"/>
      <point x="165" y="-120" type="line"/>
      <point x="291" y="840" type="line"/>
      <point x="111" y="840" type="line"/>
    </contour>
  </outline>
</glyph>
<glyph name="braceright" format="1">
  <advance width="380"/>
  <unicode hex="007D"/>
  <outline>
    <contour>
      <point x="-35" y="-120" type="line"/>
      <point x="-5" y="-120" type="line" smooth="yes"/>
      <point x="135" y="-120"/>
      <point x="226" y="-70"/>
      <point x="245" y="70" type="curve" smooth="yes"/>
      <point x="263" y="208" type="line" smooth="yes"/>
      <point x="271" y="257"/>
      <point x="296" y="280"/>
      <point x="343" y="280" type="curve"/>
      <point x="364" y="440" type="line"/>
      <point x="315" y="440"/>
      <point x="297" y="465"/>
      <point x="304" y="520" type="curve" smooth="yes"/>
      <point x="321" y="650" type="line" smooth="yes"/>
      <point x="340" y="790"/>
      <point x="261" y="840"/>
      <point x="121" y="840" type="curve" smooth="yes"/>
      <point x="91" y="840" type="line"/>
      <point x="70" y="680" type="line"/>
      <point x="119" y="680"/>
      <point x="138" y="655"/>
      <point x="130" y="600" type="curve" smooth="yes"/>
      <point x="115" y="480" type="line" smooth="yes"/>
      <point x="107" y="422"/>
      <point x="123" y="383"/>
      <point x="160" y="360" type="curve"/>
      <point x="117" y="336"/>
      <point x="91" y="298"/>
      <point x="83" y="240" type="curve" smooth="yes"/>
      <point x="67" y="120" type="line" smooth="yes"/>
      <point x="60" y="65"/>
      <point x="35" y="40"/>
      <point x="-14" y="40" type="curve"/>
    </contour>
  </outline>
</glyph>
<glyph name="asciitilde" format="1">
  <advance width="600"/>
  <unicode hex="007E"/>
  <outline>
    <contour>
      <point x="201" y="492" type="curve" smooth="yes"/>
      <point x="130" y="492"/>
      <point x="69" y="447"/>
      <point x="27" y="391" type="curve"/>
      <point x="101" y="306" type="line"/>
      <point x="118" y="324"/>
      <point x="152" y="352"/>
      <point x="192" y="352" type="curve" smooth="yes"/>
      <point x="259" y="352"/>
      <point x="299" y="288"/>
      <point x="402" y="288" type="curve" smooth="yes"/>
      <point x="473" y="288"/>
      <point x="534" y="333"/>
      <point x="577" y="389" type="curve"/>
      <point x="503" y="474" type="line"/>
      <point x="486" y="456"/>
      <point x="452" y="428"/>
      <point x="412" y="428" type="curve" smooth="yes"/>
      <point x="345" y="428"/>
      <point x="304" y="492"/>
    </contour>
  </outline>
</glyph>
<glyph name="exclamdown" format="1">
  <advance width="280"/>
  <unicode hex="00A1"/>
  <outline>
    <contour>
      <point x="179" y="-200" type="line"/>
      <point x="194" y="290" type="line"/>
      <point x="64" y="290" type="line"/>
      <point x="-50" y="-200" type="line"/>
    </contour>
    <contour>
      <point x="40" y="340" type="line"/>
      <point x="230" y="340" type="line"/>
      <point x="255" y="530" type="line"/>
      <point x="65" y="530" type="line"/>
    </contour>
  </outline>
</glyph>
<glyph name="cent" format="1">
  <advance width="600"/>
  <unicode hex="00A2"/>
  <outline>
    <contour>
      <point x="202" y="-60" type="line"/>
      <point x="242" y="50" type="line"/>
      <point x="253" y="49"/>
      <point x="265" y="49"/>
      <point x="277" y="49" type="curve" smooth="yes"/>
      <point x="441" y="49"/>
      <point x="527" y="124"/>
      <point x="555" y="281" type="curve" smooth="yes"/>
      <point x="558" y="298" type="line"/>
      <point x="376" y="298" type="line"/>
      <point x="368" y="246"/>
      <point x="341" y="210"/>
      <point x="294" y="210" type="curve" smooth="yes"/>
      <point x="286" y="210" type="line" smooth="yes"/>
      <point x="201" y="210"/>
      <point x="212" y="317"/>
      <point x="219" y="371" type="curve" smooth="yes"/>
      <point x="224" y="409" type="line" smooth="yes"/>
      <point x="236" y="502"/>
      <point x="266" y="571"/>
      <point x="332" y="571" type="curve" smooth="yes"/>
      <point x="340" y="571" type="line" smooth="yes"/>
      <point x="389" y="571"/>
      <point x="409" y="536"/>
      <point x="398" y="463" type="curve"/>
      <point x="579" y="463" type="line"/>
      <point x="584" y="494" type="line" smooth="yes"/>
      <point x="602" y="604"/>
      <point x="560" y="672"/>
      <point x="485" y="706" type="curve"/>
      <point x="535" y="840" type="line"/>
      <point x="395" y="840" type="line"/>
      <point x="355" y="732" type="line"/>
      <point x="346" y="732" type="line" smooth="yes"/>
      <point x="156" y="732"/>
      <point x="63" y="623"/>
      <point x="36" y="410" type="curve" smooth="yes"/>
      <point x="31" y="370" type="line" smooth="yes"/>
      <point x="17" y="246"/>
      <point x="40" y="145"/>
      <point x="117" y="91" type="curve"/>
      <point x="62" y="-60" type="line"/>
    </contour>
  </outline>
</glyph>
<glyph name="sterling" format="1">
  <advance width="600"/>
  <unicode hex="00A3"/>
  <outline>
    <contour>
      <point x="352" y="632" type="curve" smooth="yes"/>
      <point x="404" y="632"/>
      <point x="397" y="550"/>
      <point x="390" y="500" type="curve"/>
      <point x="576" y="500" type="line"/>
      <point x="579" y="519" type="line" smooth="yes"/>
      <point x="605" y="683"/>
      <point x="561" y="794"/>
      <point x="365" y="794" type="curve" smooth="yes"/>
      <point x="139" y="794"/>
      <point x="108" y="612"/>
      <point x="108" y="520" type="curve" smooth="yes"/>
      <point x="108" y="487"/>
      <point x="110" y="463"/>
      <point x="113" y="440" type="curve"/>
      <point x="48" y="440" type="line"/>
      <point x="27" y="280" type="line"/>
      <point x="146" y="280" type="line"/>
      <point x="153" y="243"/>
      <point x="159" y="205"/>
      <point x="161" y="162" type="curve"/>
      <point x="12" y="162" type="line"/>
      <point x="-9" y="0" type="line"/>
      <point x="511" y="0" type="line"/>
      <point x="532" y="162" type="line"/>
      <point x="323" y="162" type="line"/>
      <point x="326" y="204"/>
      <point x="324" y="241"/>
      <point x="321" y="280" type="curve"/>
      <point x="448" y="280" type="line"/>
      <point x="469" y="440" type="line"/>
      <point x="301" y="440" type="line"/>
      <point x="297" y="470"/>
      <point x="294" y="499"/>
      <point x="294" y="533" type="curve" smooth="yes"/>
      <point x="294" y="590"/>
      <point x="303" y="632"/>
    </contour>
  </outline>
</glyph>
<glyph name="yen" format="1">
  <advance width="600"/>
  <unicode hex="00A5"/>
  <outline>
    <contour>
      <point x="33" y="320" type="line"/>
      <point x="182" y="320" type="line"/>
      <point x="192" y="280" type="line"/>
      <point x="27" y="280" type="line"/>
      <point x="6" y="120" type="line"/>
      <point x="171" y="120" type="line"/>
      <point x="156" y="0" type="line"/>
      <point x="346" y="0" type="line"/>
      <point x="361" y="120" type="line"/>
      <point x="526" y="120" type="line"/>
      <point x="547" y="280" type="line"/>
      <point x="382" y="280" type="line"/>
      <point x="404" y="320" type="line"/>
      <point x="553" y="320" type="line"/>
      <point x="574" y="480" type="line"/>
      <point x="489" y="480" type="line"/>
      <point x="649" y="780" type="line"/>
      <point x="441" y="780" type="line"/>
      <point x="314" y="480" type="line"/>
      <point x="265" y="780" type="line"/>
      <point x="57" y="780" type="line"/>
      <point x="138" y="480" type="line"/>
      <point x="54" y="480" type="line"/>
    </contour>
  </outline>
</glyph>
<glyph name="brokenbar" format="1">
  <advance width="280"/>
  <unicode hex="00A6"/>
  <outline>
    <contour>
      <point x="51" y="380" type="line"/>
      <point x="231" y="380" type="line"/>
      <point x="291" y="840" type="line"/>
      <point x="111" y="840" type="line"/>
    </contour>
    <contour>
      <point x="-15" y="-120" type="line"/>
      <point x="165" y="-120" type="line"/>
      <point x="225" y="340" type="line"/>
      <point x="45" y="340" type="line"/>
    </contour>
  </outline>
</glyph>
<glyph name="section" format="1">
  <advance width="560"/>
  <unicode hex="00A7"/>
  <outline>
    <contour>
      <point x="275" y="336" type="line" smooth="yes"/>
      <point x="230" y="336"/>
      <point x="213" y="355"/>
      <point x="213" y="381" type="curve" smooth="yes"/>
      <point x="213" y="413"/>
      <point x="233" y="444"/>
      <point x="281" y="444" type="curve" smooth="yes"/>
      <point x="289" y="444" type="line" smooth="yes"/>
      <point x="334" y="444"/>
      <point x="351" y="425"/>
      <point x="351" y="399" type="curve" smooth="yes"/>
      <point x="351" y="367"/>
      <point x="331" y="336"/>
      <point x="283" y="336" type="curve" smooth="yes"/>
    </contour>
    <contour>
      <point x="340" y="794" type="curve" smooth="yes"/>
      <point x="214" y="794"/>
      <point x="114" y="745"/>
      <point x="96" y="614" type="curve" smooth="yes"/>
      <point x="95" y="604" type="line" smooth="yes"/>
      <point x="90" y="566"/>
      <point x="95" y="532"/>
      <point x="117" y="510" type="curve"/>
      <point x="63" y="490"/>
      <point x="37" y="442"/>
      <point x="30" y="384" type="curve" smooth="yes"/>
      <point x="29" y="376" type="line" smooth="yes"/>
      <point x="14" y="254"/>
      <point x="103" y="219"/>
      <point x="235" y="208" type="curve" smooth="yes"/>
      <point x="274" y="204"/>
      <point x="287" y="188"/>
      <point x="287" y="167" type="curve" smooth="yes"/>
      <point x="287" y="142"/>
      <point x="269" y="124"/>
      <point x="232" y="124" type="curve" smooth="yes"/>
      <point x="199" y="124"/>
      <point x="184" y="143"/>
      <point x="189" y="175" type="curve"/>
      <point x="9" y="175" type="line"/>
      <point x="8" y="167" type="line" smooth="yes"/>
      <point x="-7" y="51"/>
      <point x="65" y="-14"/>
      <point x="224" y="-14" type="curve" smooth="yes"/>
      <point x="350" y="-14"/>
      <point x="450" y="35"/>
      <point x="468" y="166" type="curve" smooth="yes"/>
      <point x="469" y="176" type="line" smooth="yes"/>
      <point x="474" y="214"/>
      <point x="469" y="248"/>
      <point x="447" y="270" type="curve"/>
      <point x="501" y="290"/>
      <point x="527" y="338"/>
      <point x="534" y="396" type="curve" smooth="yes"/>
      <point x="535" y="404" type="line" smooth="yes"/>
      <point x="550" y="526"/>
      <point x="461" y="560"/>
      <point x="329" y="572" type="curve" smooth="yes"/>
      <point x="290" y="576"/>
      <point x="277" y="592"/>
      <point x="277" y="613" type="curve" smooth="yes"/>
      <point x="277" y="638"/>
      <point x="295" y="656"/>
      <point x="332" y="656" type="curve" smooth="yes"/>
      <point x="365" y="656"/>
      <point x="380" y="637"/>
      <point x="375" y="605" type="curve"/>
      <point x="555" y="605" type="line"/>
      <point x="556" y="613" type="line" smooth="yes"/>
      <point x="571" y="729"/>
      <point x="499" y="794"/>
    </contour>
  </outline>
</glyph>
<glyph name="dieresis" format="1">
  <advance width="500"/>
  <unicode hex="00A8"/>
  <outline>
    <contour>
      <point x="283" y="780" type="line"/>
      <point x="93" y="780" type="line"/>
      <point x="68" y="590" type="line"/>
      <point x="258" y="590" type="line"/>
    </contour>
    <contour>
      <point x="513" y="780" type="line"/>
      <point x="323" y="780" type="line"/>
      <point x="298" y="590" type="line"/>
      <point x="488" y="590" type="line"/>
    </contour>
  </outline>
</glyph>
<glyph name="ordfeminine" format="1">
  <advance width="440"/>
  <unicode hex="00AA"/>
  <outline>
    <contour>
      <point x="274" y="387" type="line"/>
      <point x="419" y="387" type="line"/>
      <point x="426" y="499" type="line"/>
      <point x="445" y="640" type="line" smooth="yes"/>
      <point x="457" y="730"/>
      <point x="405" y="794"/>
      <point x="260" y="794" type="curve" smooth="yes"/>
      <point x="135" y="794"/>
      <point x="85" y="736"/>
      <point x="77" y="661" type="curve" smooth="yes"/>
      <point x="76" y="652" type="line"/>
      <point x="226" y="652" type="line"/>
      <point x="228" y="663"/>
      <point x="235" y="676"/>
      <point x="256" y="676" type="curve" smooth="yes"/>
      <point x="277" y="676"/>
      <point x="285" y="668"/>
      <point x="285" y="652" type="curve"/>
      <point x="210" y="640" type="line" smooth="yes"/>
      <point x="113" y="625"/>
      <point x="60" y="602"/>
      <point x="44" y="514" type="curve" smooth="yes"/>
      <point x="42" y="503" type="line" smooth="yes"/>
      <point x="31" y="443"/>
      <point x="58" y="376"/>
      <point x="150" y="376" type="curve" smooth="yes"/>
      <point x="207" y="376"/>
      <point x="244" y="395"/>
      <point x="274" y="423" type="curve"/>
    </contour>
    <contour>
      <point x="10" y="172" type="line"/>
      <point x="388" y="172" type="line"/>
      <point x="406" y="309" type="line"/>
      <point x="28" y="309" type="line"/>
    </contour>
    <contour>
      <point x="229" y="503" type="curve" smooth="yes"/>
      <point x="209" y="503"/>
      <point x="202" y="515"/>
      <point x="204" y="527" type="curve" smooth="yes"/>
      <point x="205" y="533" type="line" smooth="yes"/>
      <point x="207" y="545"/>
      <point x="218" y="554"/>
      <point x="235" y="557" type="curve" smooth="yes"/>
      <point x="275" y="563" type="line"/>
      <point x="268" y="516" type="line"/>
      <point x="258" y="509"/>
      <point x="242" y="503"/>
    </contour>
  </outline>
</glyph>
<glyph name="guillemotleft" format="1">
  <advance width="580"/>
  <unicode hex="00AB"/>
  <outline>
    <contour>
      <point x="296" y="575" type="line"/>
      <point x="57" y="430" type="line"/>
      <point x="33" y="250" type="line"/>
      <point x="234" y="105" type="line"/>
      <point x="255" y="265" type="line"/>
      <point x="168" y="340" type="line"/>
      <point x="275" y="415" type="line"/>
    </contour>
    <contour>
      <point x="556" y="575" type="line"/>
      <point x="317" y="430" type="line"/>
      <point x="293" y="250" type="line"/>
      <point x="494" y="105" type="line"/>
      <point x="515" y="265" type="line"/>
      <point x="428" y="340" type="line"/>
      <point x="535" y="415" type="line"/>
    </contour>
  </outline>
</glyph>
<glyph name="logicalnot" format="1">
  <advance width="600"/>
  <unicode hex="00AC"/>
  <outline>
    <contour>
      <point x="46" y="418" type="line"/>
      <point x="402" y="418" type="line"/>
      <point x="371" y="188" type="line"/>
      <point x="535" y="188" type="line"/>
      <point x="587" y="582" type="line"/>
      <point x="67" y="582" type="line"/>
    </contour>
  </outline>
</glyph>
<glyph name="registered" format="1">
  <advance width="330"/>
  <unicode hex="00AE"/>
  <outline>
    <contour>
      <point x="16" y="665" type="curve" smooth="yes"/>
      <point x="16" y="583"/>
      <point x="83" y="516"/>
      <point x="165" y="516" type="curve" smooth="yes"/>
      <point x="247" y="516"/>
      <point x="314" y="583"/>
      <point x="314" y="665" type="curve" smooth="yes"/>
      <point x="314" y="747"/>
      <point x="247" y="814"/>
      <point x="165" y="814" type="curve" smooth="yes"/>
      <point x="83" y="814"/>
      <point x="16" y="747"/>
    </contour>
    <contour>
      <point x="40" y="665" type="curve" smooth="yes"/>
      <point x="40" y="734"/>
      <point x="96" y="790"/>
      <point x="165" y="790" type="curve" smooth="yes"/>
      <point x="234" y="790"/>
      <point x="290" y="734"/>
      <point x="290" y="665" type="curve" smooth="yes"/>
      <point x="290" y="596"/>
      <point x="234" y="540"/>
      <point x="165" y="540" type="curve" smooth="yes"/>
      <point x="96" y="540"/>
      <point x="40" y="596"/>
    </contour>
    <contour>
      <point x="245" y="688" type="curve" smooth="yes"/>
      <point x="245" y="692" type="line" smooth="yes"/>
      <point x="245" y="740"/>
      <point x="212" y="751"/>
      <point x="182" y="751" type="curve" smooth="yes"/>
      <point x="85" y="751" type="line"/>
      <point x="85" y="579" type="line"/>
      <point x="146" y="579" type="line"/>
      <point x="146" y="629" type="line"/>
      <point x="162" y="629" type="line"/>
      <point x="181" y="579" type="line"/>
      <point x="245" y="579" type="line"/>
      <point x="217" y="636" type="line"/>
      <point x="233" y="644"/>
      <point x="245" y="659"/>
    </contour>
    <contour>
      <point x="184" y="691" type="curve" smooth="yes"/>
      <point x="184" y="689" type="line" smooth="yes"/>
      <point x="184" y="676"/>
      <point x="176" y="673"/>
      <point x="168" y="673" type="curve" smooth="yes"/>
      <point x="146" y="673" type="line"/>
      <point x="146" y="707" type="line"/>
      <point x="168" y="707" type="line" smooth="yes"/>
      <point x="176" y="707"/>
      <point x="184" y="704"/>
    </contour>
  </outline>
</glyph>
<glyph name="macron" format="1">
  <advance width="500"/>
  <unicode hex="00AF"/>
  <outline>
    <contour>
      <point x="120" y="605" type="line"/>
      <point x="440" y="605" type="line"/>
      <point x="461" y="765" type="line"/>
      <point x="141" y="765" type="line"/>
    </contour>
  </outline>
</glyph>
<glyph name="degree" format="1">
  <advance width="400"/>
  <unicode hex="00B0"/>
  <outline>
    <contour>
      <point x="244" y="684" type="line" smooth="yes"/>
      <point x="274" y="684"/>
      <point x="292" y="661"/>
      <point x="289" y="633" type="curve" smooth="yes"/>
      <point x="288" y="622" type="line" smooth="yes"/>
      <point x="285" y="589"/>
      <point x="263" y="571"/>
      <point x="233" y="571" type="curve" smooth="yes"/>
      <point x="223" y="571" type="line" smooth="yes"/>
      <point x="193" y="571"/>
      <point x="175" y="594"/>
      <point x="178" y="622" type="curve" smooth="yes"/>
      <point x="179" y="633" type="line" smooth="yes"/>
      <point x="182" y="666"/>
      <point x="204" y="684"/>
      <point x="234" y="684" type="curve" smooth="yes"/>
    </contour>
    <contour>
      <point x="245" y="794" type="curve" smooth="yes"/>
      <point x="152" y="794"/>
      <point x="78" y="733"/>
      <point x="69" y="632" type="curve" smooth="yes"/>
      <point x="68" y="621" type="line" smooth="yes"/>
      <point x="59" y="520"/>
      <point x="122" y="461"/>
      <point x="222" y="461" type="curve" smooth="yes"/>
      <point x="315" y="461"/>
      <point x="389" y="522"/>
      <point x="398" y="623" type="curve" smooth="yes"/>
      <point x="399" y="634" type="line" smooth="yes"/>
      <point x="408" y="735"/>
      <point x="345" y="794"/>
    </contour>
  </outline>
</glyph>
<glyph name="plusminus" format="1">
  <advance width="600"/>
  <unicode hex="00B1"/>
  <outline>
    <contour>
      <point x="258" y="680" type="line"/>
      <point x="245" y="582" type="line"/>
      <point x="67" y="582" type="line"/>
      <point x="46" y="418" type="line"/>
      <point x="224" y="418" type="line"/>
      <point x="211" y="320" type="line"/>
      <point x="375" y="320" type="line"/>
      <point x="388" y="418" type="line"/>
      <point x="566" y="418" type="line"/>
      <point x="587" y="582" type="line"/>
      <point x="409" y="582" type="line"/>
      <point x="422" y="680" type="line"/>
    </contour>
    <contour>
      <point x="7" y="128" type="line"/>
      <point x="527" y="128" type="line"/>
      <point x="549" y="292" type="line"/>
      <point x="29" y="292" type="line"/>
    </contour>
  </outline>
</glyph>
<glyph name="twosuperior" format="1">
  <advance width="300"/>
  <unicode hex="00B2"/>
  <outline>
    <contour>
      <point x="302" y="503" type="line"/>
      <point x="210" y="503" type="line"/>
      <point x="267" y="560" type="line" smooth="yes"/>
      <point x="300" y="593"/>
      <point x="318" y="616"/>
      <point x="323" y="657" type="curve" smooth="yes"/>
      <point x="325" y="675" type="line" smooth="yes"/>
      <point x="329" y="715"/>
      <point x="310" y="788"/>
      <point x="196" y="788" type="curve" smooth="yes"/>
      <point x="106" y="788"/>
      <point x="61" y="750"/>
      <point x="52" y="660" type="curve" smooth="yes"/>
      <point x="51" y="650" type="line"/>
      <point x="176" y="650" type="line"/>
      <point x="179" y="674" type="line" smooth="yes"/>
      <point x="180" y="683"/>
      <point x="194" y="683"/>
      <point x="193" y="674" type="curve" smooth="yes"/>
      <point x="189" y="644" type="line" smooth="yes"/>
      <point x="188" y="634"/>
      <point x="183" y="629"/>
      <point x="177" y="623" type="curve" smooth="yes"/>
      <point x="28" y="473" type="line"/>
      <point x="17" y="390" type="line"/>
      <point x="287" y="390" type="line"/>
    </contour>
  </outline>
</glyph>
<glyph name="acute" format="1">
  <advance width="500"/>
  <unicode hex="00B4"/>
  <outline>
    <contour>
      <point x="303" y="780" type="line"/>
      <point x="187" y="590" type="line"/>
      <point x="369" y="590" type="line"/>
      <point x="505" y="780" type="line"/>
    </contour>
  </outline>
</glyph>
<glyph name="paragraph" format="1">
  <advance width="560"/>
  <unicode hex="00B6"/>
  <outline>
    <contour>
      <point x="270" y="0" type="line"/>
      <point x="460" y="0" type="line"/>
      <point x="562" y="780" type="line"/>
      <point x="353" y="780" type="line" smooth="yes"/>
      <point x="221" y="780"/>
      <point x="69" y="750"/>
      <point x="40" y="534" type="curve" smooth="yes"/>
      <point x="37" y="512" type="line" smooth="yes"/>
      <point x="8" y="296"/>
      <point x="154" y="268"/>
      <point x="286" y="268" type="curve" smooth="yes"/>
      <point x="305" y="268" type="line"/>
    </contour>
  </outline>
</glyph>
<glyph name="periodcentered" format="1">
  <advance width="280"/>
  <unicode hex="00B7"/>
  <outline>
    <contour>
      <point x="244" y="445" type="line"/>
      <point x="54" y="445" type="line"/>
      <point x="29" y="255" type="line"/>
      <point x="219" y="255" type="line"/>
    </contour>
  </outline>
</glyph>
<glyph name="cedilla" format="1">
  <advance width="602"/>
  <unicode hex="00B8"/>
  <outline>
    <contour>
      <point x="67" y="-188" type="line"/>
      <point x="84" y="-200"/>
      <point x="122" y="-216"/>
      <point x="178" y="-216" type="curve" smooth="yes"/>
      <point x="263" y="-216"/>
      <point x="312" y="-178"/>
      <point x="312" y="-115" type="curve" smooth="yes"/>
      <point x="312" y="-65"/>
      <point x="275" y="-42"/>
      <point x="223" y="-37" type="curve"/>
      <point x="243" y="0" type="line"/>
      <point x="163" y="0" type="line"/>
      <point x="125" y="-70" type="line"/>
      <point x="135" y="-99" type="line"/>
      <point x="135" y="-99"/>
      <point x="157" y="-94"/>
      <point x="176" y="-94" type="curve" smooth="yes"/>
      <point x="207" y="-94"/>
      <point x="217" y="-102"/>
      <point x="217" y="-115" type="curve" smooth="yes"/>
      <point x="217" y="-129"/>
      <point x="207" y="-138"/>
      <point x="170" y="-138" type="curve" smooth="yes"/>
      <point x="144" y="-138"/>
      <point x="116" y="-130"/>
      <point x="103" y="-121" type="curve"/>
    </contour>
  </outline>
</glyph>
<glyph name="onesuperior" format="1">
  <advance width="300"/>
  <unicode hex="00B9"/>
  <outline>
    <contour>
      <point x="289" y="390" type="line"/>
      <point x="304" y="503" type="line"/>
      <point x="238" y="503" type="line"/>
      <point x="274" y="778" type="line"/>
      <point x="171" y="778" type="line"/>
      <point x="40" y="696" type="line"/>
      <point x="92" y="603" type="line"/>
      <point x="121" y="621" type="line"/>
      <point x="106" y="503" type="line"/>
      <point x="39" y="503" type="line"/>
      <point x="24" y="390" type="line"/>
    </contour>
  </outline>
</glyph>
<glyph name="ordmasculine" format="1">
  <advance width="450"/>
  <unicode hex="00BA"/>
  <outline>
    <contour>
      <point x="11" y="172" type="line"/>
      <point x="385" y="172" type="line"/>
      <point x="403" y="309" type="line"/>
      <point x="29" y="309" type="line"/>
    </contour>
    <contour>
      <point x="234" y="376" type="curve" smooth="yes"/>
      <point x="362" y="376"/>
      <point x="431" y="454"/>
      <point x="447" y="571" type="curve" smooth="yes"/>
      <point x="451" y="600" type="line" smooth="yes"/>
      <point x="467" y="717"/>
      <point x="397" y="795"/>
      <point x="270" y="795" type="curve" smooth="yes"/>
      <point x="142" y="795"/>
      <point x="73" y="717"/>
      <point x="57" y="600" type="curve" smooth="yes"/>
      <point x="53" y="571" type="line" smooth="yes"/>
      <point x="37" y="454"/>
      <point x="107" y="376"/>
    </contour>
    <contour>
      <point x="260" y="658" type="curve" smooth="yes"/>
      <point x="289" y="658"/>
      <point x="298" y="640"/>
      <point x="292" y="600" type="curve" smooth="yes"/>
      <point x="288" y="571" type="line" smooth="yes"/>
      <point x="282" y="527"/>
      <point x="268" y="513"/>
      <point x="244" y="513" type="curve" smooth="yes"/>
      <point x="215" y="513"/>
      <point x="206" y="531"/>
      <point x="212" y="571" type="curve" smooth="yes"/>
      <point x="216" y="600" type="line" smooth="yes"/>
      <point x="222" y="644"/>
      <point x="236" y="658"/>
    </contour>
  </outline>
</glyph>
<glyph name="guillemotright" format="1">
  <advance width="580"/>
  <unicode hex="00BB"/>
  <outline>
    <contour>
      <point x="315" y="415" type="line"/>
      <point x="402" y="340" type="line"/>
      <point x="295" y="265" type="line"/>
      <point x="274" y="105" type="line"/>
      <point x="513" y="250" type="line"/>
      <point x="537" y="430" type="line"/>
      <point x="336" y="575" type="line"/>
    </contour>
    <contour>
      <point x="55" y="415" type="line"/>
      <point x="142" y="340" type="line"/>
      <point x="35" y="265" type="line"/>
      <point x="14" y="105" type="line"/>
      <point x="253" y="250" type="line"/>
      <point x="277" y="430" type="line"/>
      <point x="76" y="575" type="line"/>
    </contour>
  </outline>
</glyph>
<glyph name="onehalf" format="1">
  <advance width="800"/>
  <unicode hex="00BD"/>
  <outline>
    <contour>
      <point x="289" y="390" type="line"/>
      <point x="304" y="503" type="line"/>
      <point x="238" y="503" type="line"/>
      <point x="274" y="778" type="line"/>
      <point x="171" y="778" type="line"/>
      <point x="40" y="696" type="line"/>
      <point x="92" y="603" type="line"/>
      <point x="121" y="621" type="line"/>
      <point x="106" y="503" type="line"/>
      <point x="39" y="503" type="line"/>
      <point x="24" y="390" type="line"/>
    </contour>
    <contour>
      <point x="137" y="0" type="line"/>
      <point x="815" y="780" type="line"/>
      <point x="665" y="780" type="line"/>
      <point x="-13" y="0" type="line"/>
    </contour>
    <contour>
      <point x="750" y="113" type="line"/>
      <point x="658" y="113" type="line"/>
      <point x="715" y="170" type="line" smooth="yes"/>
      <point x="748" y="203"/>
      <point x="766" y="226"/>
      <point x="771" y="267" type="curve" smooth="yes"/>
      <point x="773" y="285" type="line" smooth="yes"/>
      <point x="777" y="325"/>
      <point x="758" y="398"/>
      <point x="644" y="398" type="curve" smooth="yes"/>
      <point x="554" y="398"/>
      <point x="509" y="360"/>
      <point x="500" y="270" type="curve" smooth="yes"/>
      <point x="499" y="260" type="line"/>
      <point x="624" y="260" type="line"/>
      <point x="627" y="284" type="line" smooth="yes"/>
      <point x="628" y="293"/>
      <point x="642" y="293"/>
      <point x="641" y="284" type="curve" smooth="yes"/>
      <point x="637" y="254" type="line" smooth="yes"/>
      <point x="636" y="244"/>
      <point x="631" y="239"/>
      <point x="625" y="233" type="curve" smooth="yes"/>
      <point x="476" y="83" type="line"/>
      <point x="465" y="0" type="line"/>
      <point x="735" y="0" type="line"/>
    </contour>
  </outline>
</glyph>
<glyph name="threequarters" format="1">
  <advance width="800"/>
  <unicode hex="00BE"/>
  <outline>
    <contour>
      <point x="162" y="515" type="line"/>
      <point x="30" y="515" type="line"/>
      <point x="29" y="506" type="line" smooth="yes"/>
      <point x="20" y="424"/>
      <point x="65" y="381"/>
      <point x="160" y="381" type="curve" smooth="yes"/>
      <point x="272" y="381"/>
      <point x="301" y="458"/>
      <point x="304" y="497" type="curve" smooth="yes"/>
      <point x="305" y="510" type="line" smooth="yes"/>
      <point x="308" y="552"/>
      <point x="292" y="575"/>
      <point x="271" y="590" type="curve"/>
      <point x="299" y="603"/>
      <point x="321" y="630"/>
      <point x="324" y="669" type="curve" smooth="yes"/>
      <point x="325" y="682" type="line" smooth="yes"/>
      <point x="328" y="720"/>
      <point x="310" y="788"/>
      <point x="196" y="788" type="curve" smooth="yes"/>
      <point x="108" y="788"/>
      <point x="61" y="750"/>
      <point x="52" y="660" type="curve" smooth="yes"/>
      <point x="51" y="650" type="line"/>
      <point x="176" y="650" type="line"/>
      <point x="179" y="674" type="line" smooth="yes"/>
      <point x="180" y="683"/>
      <point x="194" y="683"/>
      <point x="193" y="674" type="curve" smooth="yes"/>
      <point x="190" y="650" type="line" smooth="yes"/>
      <point x="189" y="642"/>
      <point x="184" y="638"/>
      <point x="175" y="638" type="curve" smooth="yes"/>
      <point x="135" y="638" type="line"/>
      <point x="121" y="532" type="line"/>
      <point x="163" y="532" type="line" smooth="yes"/>
      <point x="172" y="532"/>
      <point x="177" y="528"/>
      <point x="176" y="515" type="curve" smooth="yes"/>
      <point x="174" y="496" type="line" smooth="yes"/>
      <point x="173" y="487"/>
      <point x="159" y="487"/>
      <point x="160" y="496" type="curve" smooth="yes"/>
    </contour>
    <contour>
      <point x="137" y="0" type="line"/>
      <point x="815" y="780" type="line"/>
      <point x="665" y="780" type="line"/>
      <point x="-13" y="0" type="line"/>
    </contour>
    <contour>
      <point x="724" y="0" type="line"/>
      <point x="732" y="63" type="line"/>
      <point x="748" y="63" type="line"/>
      <point x="763" y="177" type="line"/>
      <point x="747" y="177" type="line"/>
      <point x="775" y="390" type="line"/>
      <point x="650" y="390" type="line"/>
      <point x="479" y="156" type="line"/>
      <point x="467" y="63" type="line"/>
      <point x="600" y="63" type="line"/>
      <point x="592" y="0" type="line"/>
    </contour>
    <contour>
      <point x="593" y="175" type="line"/>
      <point x="622" y="215" type="line"/>
      <point x="615" y="175" type="line"/>
    </contour>
  </outline>
</glyph>
<glyph name="questiondown" format="1">
  <advance width="510"/>
  <unicode hex="00BF"/>
  <outline>
    <contour>
      <point x="191" y="-52" type="curve" smooth="yes"/>
      <point x="159" y="-52"/>
      <point x="149" y="-37"/>
      <point x="149" y="-15" type="curve" smooth="yes"/>
      <point x="149" y="56"/>
      <point x="310" y="129"/>
      <point x="314" y="290" type="curve"/>
      <point x="184" y="290" type="line"/>
      <point x="149" y="144"/>
      <point x="-40" y="151"/>
      <point x="-40" y="-48" type="curve" smooth="yes"/>
      <point x="-40" y="-135"/>
      <point x="8" y="-214"/>
      <point x="185" y="-214" type="curve" smooth="yes"/>
      <point x="351" y="-214"/>
      <point x="423" y="-126"/>
      <point x="446" y="45" type="curve" smooth="yes"/>
      <point x="448" y="60" type="line"/>
      <point x="262" y="60" type="line"/>
      <point x="256" y="-26"/>
      <point x="230" y="-52"/>
    </contour>
    <contour>
      <point x="160" y="340" type="line"/>
      <point x="350" y="340" type="line"/>
      <point x="375" y="530" type="line"/>
      <point x="185" y="530" type="line"/>
    </contour>
  </outline>
</glyph>
<glyph name="Agrave" format="1">
  <advance width="650"/>
  <unicode hex="00C0"/>
  <outline>
    <contour>
      <point x="248" y="780" type="line"/>
      <point x="-40" y="0" type="line"/>
      <point x="164" y="0" type="line"/>
      <point x="215" y="158" type="line"/>
      <point x="377" y="158" type="line"/>
      <point x="389" y="0" type="line"/>
      <point x="592" y="0" type="line"/>
      <point x="508" y="780" type="line"/>
    </contour>
    <contour>
      <point x="246" y="950" type="line"/>
      <point x="295" y="840" type="line"/>
      <point x="477" y="840" type="line"/>
      <point x="439" y="950" type="line"/>
    </contour>
    <contour>
      <point x="349" y="560" type="line"/>
      <point x="366" y="322" type="line"/>
      <point x="270" y="322" type="line"/>
    </contour>
  </outline>
</glyph>
<glyph name="Acircumflex" format="1">
  <advance width="650"/>
  <unicode hex="00C2"/>
  <outline>
    <contour>
      <point x="248" y="780" type="line"/>
      <point x="-40" y="0" type="line"/>
      <point x="164" y="0" type="line"/>
      <point x="215" y="158" type="line"/>
      <point x="377" y="158" type="line"/>
      <point x="389" y="0" type="line"/>
      <point x="592" y="0" type="line"/>
      <point x="508" y="780" type="line"/>
    </contour>
    <contour>
      <point x="326" y="840" type="line"/>
      <point x="391" y="879" type="line"/>
      <point x="446" y="840" type="line"/>
      <point x="611" y="840" type="line"/>
      <point x="496" y="950" type="line"/>
      <point x="306" y="950" type="line"/>
      <point x="161" y="840" type="line"/>
    </contour>
    <contour>
      <point x="349" y="560" type="line"/>
      <point x="366" y="322" type="line"/>
      <point x="270" y="322" type="line"/>
    </contour>
  </outline>
</glyph>
<glyph name="Atilde" format="1">
  <advance width="650"/>
  <unicode hex="00C3"/>
  <outline>
    <contour>
      <point x="248" y="780" type="line"/>
      <point x="-40" y="0" type="line"/>
      <point x="164" y="0" type="line"/>
      <point x="215" y="158" type="line"/>
      <point x="377" y="158" type="line"/>
      <point x="389" y="0" type="line"/>
      <point x="592" y="0" type="line"/>
      <point x="508" y="780" type="line"/>
    </contour>
    <contour>
      <point x="501" y="950" type="line"/>
      <point x="498" y="927"/>
      <point x="482" y="920"/>
      <point x="464" y="920" type="curve" smooth="yes"/>
      <point x="427" y="920"/>
      <point x="383" y="966"/>
      <point x="318" y="966" type="curve" smooth="yes"/>
      <point x="262" y="966"/>
      <point x="204" y="935"/>
      <point x="191" y="840" type="curve"/>
      <point x="286" y="840" type="line"/>
      <point x="289" y="863"/>
      <point x="305" y="870"/>
      <point x="323" y="870" type="curve" smooth="yes"/>
      <point x="360" y="870"/>
      <point x="404" y="824"/>
      <point x="469" y="824" type="curve" smooth="yes"/>
      <point x="525" y="824"/>
      <point x="583" y="855"/>
      <point x="596" y="950" type="curve"/>
    </contour>
    <contour>
      <point x="349" y="560" type="line"/>
      <point x="366" y="322" type="line"/>
      <point x="270" y="322" type="line"/>
    </contour>
  </outline>
</glyph>
<glyph name="Adieresis" format="1">
  <advance width="650"/>
  <unicode hex="00C4"/>
  <outline>
    <contour>
      <point x="248" y="780" type="line"/>
      <point x="-40" y="0" type="line"/>
      <point x="164" y="0" type="line"/>
      <point x="215" y="158" type="line"/>
      <point x="377" y="158" type="line"/>
      <point x="389" y="0" type="line"/>
      <point x="592" y="0" type="line"/>
      <point x="508" y="780" type="line"/>
    </contour>
    <contour>
      <point x="386" y="950" type="line"/>
      <point x="236" y="950" type="line"/>
      <point x="221" y="840" type="line"/>
      <point x="371" y="840" type="line"/>
    </contour>
    <contour>
      <point x="566" y="950" type="line"/>
      <point x="416" y="950" type="line"/>
      <point x="401" y="840" type="line"/>
      <point x="551" y="840" type="line"/>
    </contour>
    <contour>
      <point x="349" y="560" type="line"/>
      <point x="366" y="322" type="line"/>
      <point x="270" y="322" type="line"/>
    </contour>
  </outline>
</glyph>
<glyph name="Aring" format="1">
  <advance width="650"/>
  <unicode hex="00C5"/>
  <outline>
    <contour>
      <point x="248" y="780" type="line"/>
      <point x="-40" y="0" type="line"/>
      <point x="164" y="0" type="line"/>
      <point x="215" y="158" type="line"/>
      <point x="377" y="158" type="line"/>
      <point x="389" y="0" type="line"/>
      <point x="592" y="0" type="line"/>
      <point x="508" y="780" type="line"/>
      <point x="459" y="780" type="line"/>
      <point x="482" y="802"/>
      <point x="497" y="832"/>
      <point x="497" y="868" type="curve" smooth="yes"/>
      <point x="497" y="923"/>
      <point x="456" y="964"/>
      <point x="399" y="964" type="curve" smooth="yes"/>
      <point x="332" y="964"/>
      <point x="276" y="912"/>
      <point x="276" y="842" type="curve" smooth="yes"/>
      <point x="276" y="818"/>
      <point x="284" y="796"/>
      <point x="297" y="780" type="curve"/>
    </contour>
    <contour>
      <point x="349" y="560" type="line"/>
      <point x="366" y="322" type="line"/>
      <point x="270" y="322" type="line"/>
    </contour>
    <contour>
      <point x="393" y="904" type="curve" smooth="yes"/>
      <point x="418" y="904"/>
      <point x="436" y="886"/>
      <point x="436" y="860" type="curve" smooth="yes"/>
      <point x="436" y="828"/>
      <point x="411" y="806"/>
      <point x="380" y="806" type="curve" smooth="yes"/>
      <point x="355" y="806"/>
      <point x="337" y="824"/>
      <point x="337" y="850" type="curve" smooth="yes"/>
      <point x="337" y="882"/>
      <point x="362" y="904"/>
    </contour>
  </outline>
</glyph>
<glyph name="AE" format="1">
  <advance width="900"/>
  <unicode hex="00C6"/>
  <outline>
    <contour>
      <point x="324" y="780" type="line"/>
      <point x="-45" y="0" type="line"/>
      <point x="159" y="0" type="line"/>
      <point x="227" y="158" type="line"/>
      <point x="388" y="158" type="line"/>
      <point x="384" y="0" type="line"/>
      <point x="811" y="0" type="line"/>
      <point x="832" y="164" type="line"/>
      <point x="586" y="164" type="line"/>
      <point x="585" y="316" type="line"/>
      <point x="802" y="316" type="line"/>
      <point x="824" y="480" type="line"/>
      <point x="585" y="480" type="line"/>
      <point x="585" y="616" type="line"/>
      <point x="892" y="616" type="line"/>
      <point x="913" y="780" type="line"/>
    </contour>
    <contour>
      <point x="402" y="560" type="line"/>
      <point x="394" y="322" type="line"/>
      <point x="299" y="322" type="line"/>
    </contour>
  </outline>
</glyph>
<glyph name="Ccedilla" format="1">
  <advance width="660"/>
  <unicode hex="00C7"/>
  <outline>
    <contour>
      <point x="161" y="-188" type="line"/>
      <point x="178" y="-200"/>
      <point x="216" y="-216"/>
      <point x="272" y="-216" type="curve" smooth="yes"/>
      <point x="357" y="-216"/>
      <point x="406" y="-178"/>
      <point x="406" y="-115" type="curve" smooth="yes"/>
      <point x="406" y="-65"/>
      <point x="369" y="-42"/>
      <point x="317" y="-37" type="curve"/>
      <point x="330" y="-13" type="line"/>
      <point x="488" y="-5"/>
      <point x="589" y="70"/>
      <point x="610" y="261" type="curve" smooth="yes"/>
      <point x="611" y="270" type="line"/>
      <point x="421" y="270" type="line"/>
      <point x="412" y="200"/>
      <point x="383" y="150"/>
      <point x="316" y="150" type="curve" smooth="yes"/>
      <point x="305" y="150" type="line" smooth="yes"/>
      <point x="215" y="150"/>
      <point x="207" y="234"/>
      <point x="225" y="370" type="curve" smooth="yes"/>
      <point x="230" y="408" type="line" smooth="yes"/>
      <point x="248" y="543"/>
      <point x="273" y="630"/>
      <point x="368" y="630" type="curve" smooth="yes"/>
      <point x="379" y="630" type="line" smooth="yes"/>
      <point x="454" y="630"/>
      <point x="461" y="570"/>
      <point x="449" y="480" type="curve"/>
      <point x="639" y="480" type="line"/>
      <point x="644" y="519" type="line" smooth="yes"/>
      <point x="668" y="707"/>
      <point x="575" y="794"/>
      <point x="385" y="794" type="curve" smooth="yes"/>
      <point x="175" y="794"/>
      <point x="73" y="678"/>
      <point x="37" y="408" type="curve" smooth="yes"/>
      <point x="32" y="370" type="line" smooth="yes"/>
      <point x="-1" y="122"/>
      <point x="75" y="6"/>
      <point x="250" y="-11" type="curve"/>
      <point x="219" y="-70" type="line"/>
      <point x="229" y="-99" type="line"/>
      <point x="229" y="-99"/>
      <point x="251" y="-94"/>
      <point x="270" y="-94" type="curve" smooth="yes"/>
      <point x="301" y="-94"/>
      <point x="311" y="-102"/>
      <point x="311" y="-115" type="curve" smooth="yes"/>
      <point x="311" y="-129"/>
      <point x="301" y="-138"/>
      <point x="264" y="-138" type="curve" smooth="yes"/>
      <point x="238" y="-138"/>
      <point x="210" y="-130"/>
      <point x="197" y="-121" type="curve"/>
    </contour>
  </outline>
</glyph>
<glyph name="Eacute" format="1">
  <advance width="580"/>
  <unicode hex="00C9"/>
  <outline>
    <contour>
      <point x="103" y="780" type="line"/>
      <point x="1" y="0" type="line"/>
      <point x="491" y="0" type="line"/>
      <point x="512" y="164" type="line"/>
      <point x="212" y="164" type="line"/>
      <point x="232" y="316" type="line"/>
      <point x="482" y="316" type="line"/>
      <point x="504" y="480" type="line"/>
      <point x="254" y="480" type="line"/>
      <point x="272" y="616" type="line"/>
      <point x="572" y="616" type="line"/>
      <point x="593" y="780" type="line"/>
    </contour>
    <contour>
      <point x="333" y="950" type="line"/>
      <point x="265" y="840" type="line"/>
      <point x="447" y="840" type="line"/>
      <point x="526" y="950" type="line"/>
    </contour>
  </outline>
</glyph>
<glyph name="Ecircumflex" format="1">
  <advance width="580"/>
  <unicode hex="00CA"/>
  <outline>
    <contour>
      <point x="103" y="780" type="line"/>
      <point x="1" y="0" type="line"/>
      <point x="491" y="0" type="line"/>
      <point x="512" y="164" type="line"/>
      <point x="212" y="164" type="line"/>
      <point x="232" y="316" type="line"/>
      <point x="482" y="316" type="line"/>
      <point x="504" y="480" type="line"/>
      <point x="254" y="480" type="line"/>
      <point x="272" y="616" type="line"/>
      <point x="572" y="616" type="line"/>
      <point x="593" y="780" type="line"/>
    </contour>
    <contour>
      <point x="296" y="840" type="line"/>
      <point x="361" y="879" type="line"/>
      <point x="416" y="840" type="line"/>
      <point x="581" y="840" type="line"/>
      <point x="466" y="950" type="line"/>
      <point x="276" y="950" type="line"/>
      <point x="131" y="840" type="line"/>
    </contour>
  </outline>
</glyph>
<glyph name="Igrave" format="1">
  <advance width="300"/>
  <unicode hex="00CC"/>
  <outline>
    <contour>
      <point x="298" y="780" type="line"/>
      <point x="108" y="780" type="line"/>
      <point x="6" y="0" type="line"/>
      <point x="196" y="0" type="line"/>
    </contour>
    <contour>
      <point x="71" y="950" type="line"/>
      <point x="120" y="840" type="line"/>
      <point x="302" y="840" type="line"/>
      <point x="264" y="950" type="line"/>
    </contour>
  </outline>
</glyph>
<glyph name="Icircumflex" format="1">
  <advance width="300"/>
  <unicode hex="00CE"/>
  <outline>
    <contour>
      <point x="298" y="780" type="line"/>
      <point x="108" y="780" type="line"/>
      <point x="6" y="0" type="line"/>
      <point x="196" y="0" type="line"/>
    </contour>
    <contour>
      <point x="151" y="840" type="line"/>
      <point x="216" y="879" type="line"/>
      <point x="271" y="840" type="line"/>
      <point x="436" y="840" type="line"/>
      <point x="321" y="950" type="line"/>
      <point x="131" y="950" type="line"/>
      <point x="-14" y="840" type="line"/>
    </contour>
  </outline>
</glyph>
<glyph name="Idieresis" format="1">
  <advance width="300"/>
  <unicode hex="00CF"/>
  <outline>
    <contour>
      <point x="298" y="780" type="line"/>
      <point x="108" y="780" type="line"/>
      <point x="6" y="0" type="line"/>
      <point x="196" y="0" type="line"/>
    </contour>
    <contour>
      <point x="391" y="950" type="line"/>
      <point x="241" y="950" type="line"/>
      <point x="226" y="840" type="line"/>
      <point x="376" y="840" type="line"/>
    </contour>
    <contour>
      <point x="211" y="950" type="line"/>
      <point x="61" y="950" type="line"/>
      <point x="46" y="840" type="line"/>
      <point x="196" y="840" type="line"/>
    </contour>
  </outline>
</glyph>
<glyph name="Ntilde" format="1">
  <advance width="690"/>
  <unicode hex="00D1"/>
  <outline>
    <contour>
      <point x="693" y="780" type="line"/>
      <point x="513" y="780" type="line"/>
      <point x="476" y="500" type="line"/>
      <point x="462" y="350" type="line"/>
      <point x="303" y="780" type="line"/>
      <point x="103" y="780" type="line"/>
      <point x="1" y="0" type="line"/>
      <point x="181" y="0" type="line"/>
      <point x="217" y="280" type="line"/>
      <point x="232" y="430" type="line"/>
      <point x="391" y="0" type="line"/>
      <point x="591" y="0" type="line"/>
    </contour>
    <contour>
      <point x="521" y="950" type="line"/>
      <point x="518" y="927"/>
      <point x="502" y="920"/>
      <point x="484" y="920" type="curve" smooth="yes"/>
      <point x="447" y="920"/>
      <point x="403" y="966"/>
      <point x="338" y="966" type="curve" smooth="yes"/>
      <point x="282" y="966"/>
      <point x="224" y="935"/>
      <point x="211" y="840" type="curve"/>
      <point x="306" y="840" type="line"/>
      <point x="309" y="863"/>
      <point x="325" y="870"/>
      <point x="343" y="870" type="curve" smooth="yes"/>
      <point x="380" y="870"/>
      <point x="424" y="824"/>
      <point x="489" y="824" type="curve" smooth="yes"/>
      <point x="545" y="824"/>
      <point x="603" y="855"/>
      <point x="616" y="950" type="curve"/>
    </contour>
  </outline>
</glyph>
<glyph name="Otilde" format="1">
  <advance width="680"/>
  <unicode hex="00D5"/>
  <outline>
    <contour>
      <point x="516" y="950" type="line"/>
      <point x="513" y="927"/>
      <point x="497" y="920"/>
      <point x="479" y="920" type="curve" smooth="yes"/>
      <point x="442" y="920"/>
      <point x="398" y="966"/>
      <point x="333" y="966" type="curve" smooth="yes"/>
      <point x="277" y="966"/>
      <point x="219" y="935"/>
      <point x="206" y="840" type="curve"/>
      <point x="301" y="840" type="line"/>
      <point x="304" y="863"/>
      <point x="320" y="870"/>
      <point x="338" y="870" type="curve" smooth="yes"/>
      <point x="375" y="870"/>
      <point x="419" y="824"/>
      <point x="484" y="824" type="curve" smooth="yes"/>
      <point x="540" y="824"/>
      <point x="598" y="855"/>
      <point x="611" y="950" type="curve"/>
    </contour>
    <contour>
      <point x="385" y="794" type="curve" smooth="yes"/>
      <point x="175" y="794"/>
      <point x="73" y="678"/>
      <point x="37" y="408" type="curve" smooth="yes"/>
      <point x="32" y="370" type="line" smooth="yes"/>
      <point x="-4" y="100"/>
      <point x="90" y="-14"/>
      <point x="300" y="-14" type="curve" smooth="yes"/>
      <point x="510" y="-14"/>
      <point x="611" y="102"/>
      <point x="647" y="372" type="curve" smooth="yes"/>
      <point x="652" y="410" type="line" smooth="yes"/>
      <point x="688" y="680"/>
      <point x="595" y="794"/>
    </contour>
    <contour>
      <point x="305" y="150" type="line" smooth="yes"/>
      <point x="215" y="150"/>
      <point x="207" y="234"/>
      <point x="225" y="370" type="curve" smooth="yes"/>
      <point x="230" y="408" type="line" smooth="yes"/>
      <point x="248" y="544"/>
      <point x="278" y="630"/>
      <point x="368" y="630" type="curve" smooth="yes"/>
      <point x="379" y="630" type="line" smooth="yes"/>
      <point x="469" y="630"/>
      <point x="477" y="546"/>
      <point x="459" y="410" type="curve" smooth="yes"/>
      <point x="454" y="372" type="line" smooth="yes"/>
      <point x="436" y="236"/>
      <point x="406" y="150"/>
      <point x="316" y="150" type="curve" smooth="yes"/>
    </contour>
  </outline>
</glyph>
<glyph name="multiply" format="1">
  <advance width="600"/>
  <unicode hex="00D7"/>
  <outline>
    <contour>
      <point x="109" y="117" type="line"/>
      <point x="287" y="274" type="line"/>
      <point x="423" y="117" type="line"/>
      <point x="554" y="233" type="line"/>
      <point x="418" y="390" type="line"/>
      <point x="596" y="547" type="line"/>
      <point x="495" y="663" type="line"/>
      <point x="317" y="506" type="line"/>
      <point x="181" y="663" type="line"/>
      <point x="50" y="547" type="line"/>
      <point x="186" y="390" type="line"/>
      <point x="8" y="233" type="line"/>
    </contour>
  </outline>
</glyph>
<glyph name="Oslash" format="1">
  <advance width="680"/>
  <unicode hex="00D8"/>
  <outline>
    <contour>
      <point x="385" y="794" type="curve" smooth="yes"/>
      <point x="175" y="794"/>
      <point x="73" y="678"/>
      <point x="37" y="408" type="curve" smooth="yes"/>
      <point x="32" y="370" type="line" smooth="yes"/>
      <point x="16" y="249"/>
      <point x="25" y="160"/>
      <point x="60" y="98" type="curve"/>
      <point x="-16" y="0" type="line"/>
      <point x="94" y="0" type="line"/>
      <point x="119" y="32" type="line"/>
      <point x="164" y="0"/>
      <point x="224" y="-14"/>
      <point x="300" y="-14" type="curve" smooth="yes"/>
      <point x="510" y="-14"/>
      <point x="611" y="102"/>
      <point x="647" y="372" type="curve" smooth="yes"/>
      <point x="652" y="410" type="line" smooth="yes"/>
      <point x="668" y="531"/>
      <point x="658" y="620"/>
      <point x="624" y="682" type="curve"/>
      <point x="700" y="780" type="line"/>
      <point x="590" y="780" type="line"/>
      <point x="565" y="748" type="line"/>
      <point x="521" y="779"/>
      <point x="460" y="794"/>
    </contour>
    <contour>
      <point x="225" y="370" type="curve" smooth="yes"/>
      <point x="230" y="408" type="line" smooth="yes"/>
      <point x="248" y="544"/>
      <point x="278" y="630"/>
      <point x="368" y="630" type="curve" smooth="yes"/>
      <point x="379" y="630" type="line" smooth="yes"/>
      <point x="412" y="630"/>
      <point x="434" y="618"/>
      <point x="448" y="597" type="curve"/>
      <point x="218" y="301" type="line"/>
      <point x="219" y="322"/>
      <point x="221" y="345"/>
    </contour>
    <contour>
      <point x="305" y="150" type="line" smooth="yes"/>
      <point x="271" y="150"/>
      <point x="249" y="161"/>
      <point x="236" y="183" type="curve"/>
      <point x="466" y="479" type="line"/>
      <point x="465" y="458"/>
      <point x="462" y="435"/>
      <point x="459" y="410" type="curve" smooth="yes"/>
      <point x="454" y="372" type="line" smooth="yes"/>
      <point x="436" y="236"/>
      <point x="406" y="150"/>
      <point x="316" y="150" type="curve" smooth="yes"/>
    </contour>
  </outline>
</glyph>
<glyph name="Uacute" format="1">
  <advance width="670"/>
  <unicode hex="00DA"/>
  <outline>
    <contour>
      <point x="373" y="950" type="line"/>
      <point x="305" y="840" type="line"/>
      <point x="487" y="840" type="line"/>
      <point x="566" y="950" type="line"/>
    </contour>
    <contour>
      <point x="290" y="-14" type="curve" smooth="yes"/>
      <point x="516" y="-14"/>
      <point x="587" y="84"/>
      <point x="608" y="248" type="curve" smooth="yes"/>
      <point x="678" y="780" type="line"/>
      <point x="488" y="780" type="line"/>
      <point x="419" y="253" type="line" smooth="yes"/>
      <point x="411" y="191"/>
      <point x="384" y="150"/>
      <point x="301" y="150" type="curve" smooth="yes"/>
      <point x="218" y="150"/>
      <point x="211" y="191"/>
      <point x="219" y="253" type="curve" smooth="yes"/>
      <point x="288" y="780" type="line"/>
      <point x="98" y="780" type="line"/>
      <point x="28" y="248" type="line" smooth="yes"/>
      <point x="7" y="84"/>
      <point x="64" y="-14"/>
    </contour>
  </outline>
</glyph>
<glyph name="Yacute" format="1">
  <advance width="640"/>
  <unicode hex="00DD"/>
  <outline>
    <contour>
      <point x="397" y="240" type="line"/>
      <point x="689" y="780" type="line"/>
      <point x="481" y="780" type="line"/>
      <point x="333" y="474" type="line"/>
      <point x="265" y="780" type="line"/>
      <point x="57" y="780" type="line"/>
      <point x="207" y="240" type="line"/>
      <point x="176" y="0" type="line"/>
      <point x="366" y="0" type="line"/>
    </contour>
    <contour>
      <point x="358" y="950" type="line"/>
      <point x="290" y="840" type="line"/>
      <point x="472" y="840" type="line"/>
      <point x="551" y="950" type="line"/>
    </contour>
  </outline>
</glyph>
<glyph name="Thorn" format="1">
  <advance width="620"/>
  <unicode hex="00DE"/>
  <outline>
    <contour>
      <point x="293" y="780" type="line"/>
      <point x="103" y="780" type="line"/>
      <point x="1" y="0" type="line"/>
      <point x="191" y="0" type="line"/>
      <point x="208" y="134" type="line"/>
      <point x="287" y="134" type="line" smooth="yes"/>
      <point x="419" y="134"/>
      <point x="571" y="164"/>
      <point x="600" y="380" type="curve" smooth="yes"/>
      <point x="603" y="402" type="line" smooth="yes"/>
      <point x="632" y="618"/>
      <point x="486" y="646"/>
      <point x="354" y="646" type="curve" smooth="yes"/>
      <point x="276" y="646" type="line"/>
    </contour>
    <contour>
      <point x="229" y="298" type="line"/>
      <point x="254" y="482" type="line"/>
      <point x="341" y="482" type="line" smooth="yes"/>
      <point x="378" y="482"/>
      <point x="417" y="470"/>
      <point x="410" y="396" type="curve" smooth="yes"/>
      <point x="409" y="385" type="line" smooth="yes"/>
      <point x="402" y="313"/>
      <point x="353" y="298"/>
      <point x="316" y="298" type="curve" smooth="yes"/>
    </contour>
  </outline>
</glyph>
<glyph name="germandbls" format="1">
  <advance width="650"/>
  <unicode hex="00DF"/>
  <outline>
    <contour>
      <point x="284" y="324" type="line"/>
      <point x="373" y="256" type="line" smooth="yes"/>
      <point x="415" y="224"/>
      <point x="421" y="191"/>
      <point x="420" y="163" type="curve" smooth="yes"/>
      <point x="419" y="142"/>
      <point x="412" y="124"/>
      <point x="392" y="124" type="curve" smooth="yes"/>
      <point x="374" y="124"/>
      <point x="370" y="141"/>
      <point x="374" y="170" type="curve"/>
      <point x="231" y="170" type="line"/>
      <point x="230" y="161" type="line" smooth="yes"/>
      <point x="217" y="65"/>
      <point x="244" y="-14"/>
      <point x="384" y="-14" type="curve" smooth="yes"/>
      <point x="530" y="-14"/>
      <point x="589" y="57"/>
      <point x="602" y="153" type="curve" smooth="yes"/>
      <point x="604" y="168" type="line" smooth="yes"/>
      <point x="616" y="260"/>
      <point x="570" y="328"/>
      <point x="495" y="387" type="curve" smooth="yes"/>
      <point x="481" y="398" type="line"/>
      <point x="537" y="432"/>
      <point x="584" y="490"/>
      <point x="595" y="575" type="curve" smooth="yes"/>
      <point x="597" y="590" type="line" smooth="yes"/>
      <point x="613" y="713"/>
      <point x="547" y="814"/>
      <point x="354" y="814" type="curve" smooth="yes"/>
      <point x="159" y="814"/>
      <point x="88" y="713"/>
      <point x="72" y="589" type="curve" smooth="yes"/>
      <point x="-5" y="0" type="line"/>
      <point x="179" y="0" type="line"/>
      <point x="255" y="580" type="line" smooth="yes"/>
      <point x="259" y="615"/>
      <point x="287" y="656"/>
      <point x="340" y="656" type="curve" smooth="yes"/>
      <point x="393" y="656"/>
      <point x="412" y="629"/>
      <point x="412" y="588" type="curve" smooth="yes"/>
      <point x="412" y="524"/>
      <point x="361" y="470"/>
      <point x="299" y="439" type="curve"/>
    </contour>
  </outline>
</glyph>
<glyph name="adieresis" format="1">
  <advance width="560"/>
  <unicode hex="00E4"/>
  <outline>
    <contour>
      <point x="313" y="780" type="line"/>
      <point x="123" y="780" type="line"/>
      <point x="98" y="590" type="line"/>
      <point x="288" y="590" type="line"/>
    </contour>
    <contour>
      <point x="543" y="780" type="line"/>
      <point x="353" y="780" type="line"/>
      <point x="328" y="590" type="line"/>
      <point x="518" y="590" type="line"/>
    </contour>
    <contour>
      <point x="311" y="0" type="line"/>
      <point x="477" y="0" type="line"/>
      <point x="486" y="150" type="line"/>
      <point x="511" y="340" type="line" smooth="yes"/>
      <point x="527" y="464"/>
      <point x="460" y="544"/>
      <point x="286" y="544" type="curve" smooth="yes"/>
      <point x="111" y="544"/>
      <point x="52" y="465"/>
      <point x="43" y="366" type="curve" smooth="yes"/>
      <point x="42" y="355" type="line"/>
      <point x="215" y="355" type="line"/>
      <point x="217" y="382"/>
      <point x="235" y="406"/>
      <point x="277" y="406" type="curve" smooth="yes"/>
      <point x="320" y="406"/>
      <point x="333" y="388"/>
      <point x="329" y="350" type="curve"/>
      <point x="207" y="331" type="line" smooth="yes"/>
      <point x="87" y="312"/>
      <point x="12" y="280"/>
      <point x="-3" y="166" type="curve" smooth="yes"/>
      <point x="-5" y="151" type="line" smooth="yes"/>
      <point x="-16" y="67"/>
      <point x="20" y="-14"/>
      <point x="145" y="-14" type="curve" smooth="yes"/>
      <point x="215" y="-14"/>
      <point x="266" y="11"/>
      <point x="311" y="54" type="curve"/>
    </contour>
    <contour>
      <point x="225" y="134" type="curve" smooth="yes"/>
      <point x="191" y="134"/>
      <point x="180" y="155"/>
      <point x="182" y="176" type="curve" smooth="yes"/>
      <point x="183" y="185" type="line" smooth="yes"/>
      <point x="186" y="209"/>
      <point x="203" y="227"/>
      <point x="238" y="232" type="curve" smooth="yes"/>
      <point x="315" y="244" type="line"/>
      <point x="304" y="165" type="line"/>
      <point x="287" y="148"/>
      <point x="256" y="134"/>
    </contour>
  </outline>
</glyph>
<glyph name="aring" format="1">
  <advance width="560"/>
  <unicode hex="00E5"/>
  <outline>
    <contour>
      <point x="308" y="576" type="curve" smooth="yes"/>
      <point x="375" y="576"/>
      <point x="431" y="628"/>
      <point x="431" y="698" type="curve" smooth="yes"/>
      <point x="431" y="753"/>
      <point x="390" y="794"/>
      <point x="333" y="794" type="curve" smooth="yes"/>
      <point x="266" y="794"/>
      <point x="210" y="742"/>
      <point x="210" y="672" type="curve" smooth="yes"/>
      <point x="210" y="617"/>
      <point x="251" y="576"/>
    </contour>
    <contour>
      <point x="327" y="734" type="curve" smooth="yes"/>
      <point x="352" y="734"/>
      <point x="370" y="716"/>
      <point x="370" y="690" type="curve" smooth="yes"/>
      <point x="370" y="658"/>
      <point x="345" y="636"/>
      <point x="314" y="636" type="curve" smooth="yes"/>
      <point x="289" y="636"/>
      <point x="271" y="654"/>
      <point x="271" y="680" type="curve" smooth="yes"/>
      <point x="271" y="712"/>
      <point x="296" y="734"/>
    </contour>
    <contour>
      <point x="311" y="0" type="line"/>
      <point x="477" y="0" type="line"/>
      <point x="486" y="150" type="line"/>
      <point x="511" y="340" type="line" smooth="yes"/>
      <point x="527" y="464"/>
      <point x="460" y="544"/>
      <point x="286" y="544" type="curve" smooth="yes"/>
      <point x="111" y="544"/>
      <point x="52" y="465"/>
      <point x="43" y="366" type="curve" smooth="yes"/>
      <point x="42" y="355" type="line"/>
      <point x="215" y="355" type="line"/>
      <point x="217" y="382"/>
      <point x="235" y="406"/>
      <point x="277" y="406" type="curve" smooth="yes"/>
      <point x="320" y="406"/>
      <point x="333" y="388"/>
      <point x="329" y="350" type="curve"/>
      <point x="207" y="331" type="line" smooth="yes"/>
      <point x="87" y="312"/>
      <point x="12" y="280"/>
      <point x="-3" y="166" type="curve" smooth="yes"/>
      <point x="-5" y="151" type="line" smooth="yes"/>
      <point x="-16" y="67"/>
      <point x="20" y="-14"/>
      <point x="145" y="-14" type="curve" smooth="yes"/>
      <point x="215" y="-14"/>
      <point x="266" y="11"/>
      <point x="311" y="54" type="curve"/>
    </contour>
    <contour>
      <point x="225" y="134" type="curve" smooth="yes"/>
      <point x="191" y="134"/>
      <point x="180" y="155"/>
      <point x="182" y="176" type="curve" smooth="yes"/>
      <point x="183" y="185" type="line" smooth="yes"/>
      <point x="186" y="209"/>
      <point x="203" y="227"/>
      <point x="238" y="232" type="curve" smooth="yes"/>
      <point x="315" y="244" type="line"/>
      <point x="304" y="165" type="line"/>
      <point x="287" y="148"/>
      <point x="256" y="134"/>
    </contour>
  </outline>
</glyph>
<glyph name="ae" format="1">
  <advance width="856"/>
  <unicode hex="00E6"/>
  <outline>
    <contour>
      <point x="286" y="544" type="curve" smooth="yes"/>
      <point x="111" y="544"/>
      <point x="52" y="465"/>
      <point x="43" y="366" type="curve" smooth="yes"/>
      <point x="42" y="355" type="line"/>
      <point x="215" y="355" type="line"/>
      <point x="217" y="382"/>
      <point x="235" y="406"/>
      <point x="277" y="406" type="curve" smooth="yes"/>
      <point x="320" y="406"/>
      <point x="333" y="388"/>
      <point x="329" y="350" type="curve"/>
      <point x="207" y="331" type="line" smooth="yes"/>
      <point x="87" y="312"/>
      <point x="12" y="280"/>
      <point x="-3" y="166" type="curve" smooth="yes"/>
      <point x="-5" y="151" type="line" smooth="yes"/>
      <point x="-16" y="67"/>
      <point x="25" y="-14"/>
      <point x="165" y="-14" type="curve" smooth="yes"/>
      <point x="244" y="-14"/>
      <point x="308" y="11"/>
      <point x="361" y="58" type="curve"/>
      <point x="401" y="13"/>
      <point x="466" y="-14"/>
      <point x="557" y="-14" type="curve" smooth="yes"/>
      <point x="713" y="-14"/>
      <point x="799" y="57"/>
      <point x="814" y="163" type="curve" smooth="yes"/>
      <point x="815" y="170" type="line"/>
      <point x="642" y="170" type="line"/>
      <point x="639" y="145"/>
      <point x="611" y="124"/>
      <point x="565" y="124" type="curve" smooth="yes"/>
      <point x="526" y="124"/>
      <point x="491" y="140"/>
      <point x="493" y="200" type="curve"/>
      <point x="819" y="200" type="line"/>
      <point x="827" y="260" type="line" smooth="yes"/>
      <point x="850" y="433"/>
      <point x="772" y="544"/>
      <point x="597" y="544" type="curve" smooth="yes"/>
      <point x="531" y="544"/>
      <point x="483" y="523"/>
      <point x="448" y="491" type="curve"/>
      <point x="418" y="524"/>
      <point x="367" y="544"/>
    </contour>
    <contour>
      <point x="225" y="134" type="curve" smooth="yes"/>
      <point x="191" y="134"/>
      <point x="180" y="155"/>
      <point x="182" y="176" type="curve" smooth="yes"/>
      <point x="183" y="185" type="line" smooth="yes"/>
      <point x="186" y="209"/>
      <point x="203" y="227"/>
      <point x="238" y="232" type="curve" smooth="yes"/>
      <point x="314" y="244" type="line"/>
      <point x="311" y="218"/>
      <point x="311" y="194"/>
      <point x="313" y="171" type="curve"/>
      <point x="278" y="142"/>
      <point x="253" y="134"/>
    </contour>
    <contour>
      <point x="591" y="406" type="curve" smooth="yes"/>
      <point x="638" y="406"/>
      <point x="654" y="381"/>
      <point x="652" y="330" type="curve"/>
      <point x="510" y="330" type="line"/>
      <point x="522" y="386"/>
      <point x="553" y="406"/>
    </contour>
  </outline>
</glyph>
<glyph name="ccedilla" format="1">
  <advance width="528"/>
  <unicode hex="00E7"/>
  <outline>
    <contour>
      <point x="89" y="-188" type="line"/>
      <point x="106" y="-200"/>
      <point x="144" y="-216"/>
      <point x="200" y="-216" type="curve" smooth="yes"/>
      <point x="285" y="-216"/>
      <point x="334" y="-178"/>
      <point x="334" y="-115" type="curve" smooth="yes"/>
      <point x="334" y="-65"/>
      <point x="297" y="-42"/>
      <point x="245" y="-37" type="curve"/>
      <point x="258" y="-13" type="line"/>
      <point x="394" y="-4"/>
      <point x="464" y="70"/>
      <point x="479" y="178" type="curve" smooth="yes"/>
      <point x="482" y="200" type="line"/>
      <point x="309" y="200" type="line"/>
      <point x="305" y="169"/>
      <point x="287" y="144"/>
      <point x="250" y="144" type="curve" smooth="yes"/>
      <point x="203" y="144"/>
      <point x="182" y="179"/>
      <point x="191" y="246" type="curve" smooth="yes"/>
      <point x="196" y="284" type="line" smooth="yes"/>
      <point x="205" y="353"/>
      <point x="235" y="386"/>
      <point x="279" y="386" type="curve" smooth="yes"/>
      <point x="321" y="386"/>
      <point x="329" y="354"/>
      <point x="325" y="320" type="curve"/>
      <point x="498" y="320" type="line"/>
      <point x="501" y="342" type="line" smooth="yes"/>
      <point x="519" y="475"/>
      <point x="443" y="544"/>
      <point x="288" y="544" type="curve" smooth="yes"/>
      <point x="118" y="544"/>
      <point x="32" y="430"/>
      <point x="13" y="284" type="curve" smooth="yes"/>
      <point x="8" y="246" type="line" smooth="yes"/>
      <point x="-10" y="112"/>
      <point x="50" y="11"/>
      <point x="179" y="-10" type="curve"/>
      <point x="147" y="-70" type="line"/>
      <point x="157" y="-99" type="line"/>
      <point x="157" y="-99"/>
      <point x="179" y="-94"/>
      <point x="198" y="-94" type="curve" smooth="yes"/>
      <point x="229" y="-94"/>
      <point x="239" y="-102"/>
      <point x="239" y="-115" type="curve" smooth="yes"/>
      <point x="239" y="-129"/>
      <point x="229" y="-138"/>
      <point x="192" y="-138" type="curve" smooth="yes"/>
      <point x="166" y="-138"/>
      <point x="138" y="-130"/>
      <point x="125" y="-121" type="curve"/>
    </contour>
  </outline>
</glyph>
<glyph name="egrave" format="1">
  <advance width="560"/>
  <unicode hex="00E8"/>
  <outline>
    <contour>
      <point x="135" y="780" type="line"/>
      <point x="221" y="590" type="line"/>
      <point x="403" y="590" type="line"/>
      <point x="337" y="780" type="line"/>
    </contour>
    <contour>
      <point x="512" y="200" type="line"/>
      <point x="520" y="260" type="line" smooth="yes"/>
      <point x="543" y="433"/>
      <point x="465" y="544"/>
      <point x="290" y="544" type="curve" smooth="yes"/>
      <point x="117" y="544"/>
      <point x="32" y="430"/>
      <point x="13" y="284" type="curve" smooth="yes"/>
      <point x="8" y="246" type="line" smooth="yes"/>
      <point x="-12" y="96"/>
      <point x="66" y="-14"/>
      <point x="250" y="-14" type="curve" smooth="yes"/>
      <point x="406" y="-14"/>
      <point x="492" y="57"/>
      <point x="507" y="163" type="curve" smooth="yes"/>
      <point x="508" y="170" type="line"/>
      <point x="335" y="170" type="line"/>
      <point x="332" y="145"/>
      <point x="304" y="124"/>
      <point x="258" y="124" type="curve" smooth="yes"/>
      <point x="219" y="124"/>
      <point x="184" y="140"/>
      <point x="186" y="200" type="curve"/>
    </contour>
    <contour>
      <point x="284" y="406" type="curve" smooth="yes"/>
      <point x="331" y="406"/>
      <point x="347" y="381"/>
      <point x="345" y="330" type="curve"/>
      <point x="203" y="330" type="line"/>
      <point x="215" y="386"/>
      <point x="246" y="406"/>
    </contour>
  </outline>
</glyph>
<glyph name="igrave" format="1">
  <advance width="280"/>
  <unicode hex="00EC"/>
  <outline>
    <contour>
      <point x="-1" y="0" type="line"/>
      <point x="183" y="0" type="line"/>
      <point x="252" y="530" type="line"/>
      <point x="68" y="530" type="line"/>
    </contour>
    <contour>
      <point x="-9" y="780" type="line"/>
      <point x="77" y="590" type="line"/>
      <point x="259" y="590" type="line"/>
      <point x="193" y="780" type="line"/>
    </contour>
  </outline>
</glyph>
<glyph name="iacute" format="1">
  <advance width="280"/>
  <unicode hex="00ED"/>
  <outline>
    <contour>
      <point x="-1" y="0" type="line"/>
      <point x="183" y="0" type="line"/>
      <point x="252" y="530" type="line"/>
      <point x="68" y="530" type="line"/>
    </contour>
    <contour>
      <point x="193" y="780" type="line"/>
      <point x="77" y="590" type="line"/>
      <point x="259" y="590" type="line"/>
      <point x="395" y="780" type="line"/>
    </contour>
  </outline>
</glyph>
<glyph name="icircumflex" format="1">
  <advance width="280"/>
  <unicode hex="00EE"/>
  <outline>
    <contour>
      <point x="-1" y="0" type="line"/>
      <point x="183" y="0" type="line"/>
      <point x="252" y="530" type="line"/>
      <point x="68" y="530" type="line"/>
    </contour>
    <contour>
      <point x="103" y="590" type="line"/>
      <point x="178" y="663" type="line"/>
      <point x="233" y="590" type="line"/>
      <point x="393" y="590" type="line"/>
      <point x="283" y="780" type="line"/>
      <point x="103" y="780" type="line"/>
      <point x="-56" y="590" type="line"/>
    </contour>
  </outline>
</glyph>
<glyph name="idieresis" format="1">
  <advance width="280"/>
  <unicode hex="00EF"/>
  <outline>
    <contour>
      <point x="-1" y="0" type="line"/>
      <point x="183" y="0" type="line"/>
      <point x="252" y="530" type="line"/>
      <point x="68" y="530" type="line"/>
    </contour>
    <contour>
      <point x="403" y="780" type="line"/>
      <point x="213" y="780" type="line"/>
      <point x="188" y="590" type="line"/>
      <point x="378" y="590" type="line"/>
    </contour>
    <contour>
      <point x="173" y="780" type="line"/>
      <point x="-17" y="780" type="line"/>
      <point x="-42" y="590" type="line"/>
      <point x="148" y="590" type="line"/>
    </contour>
  </outline>
</glyph>
<glyph name="eth" format="1">
  <advance width="560"/>
  <unicode hex="00F0"/>
  <outline>
    <contour>
      <point x="61" y="650" type="line"/>
      <point x="92" y="649"/>
      <point x="118" y="645"/>
      <point x="150" y="636" type="curve"/>
      <point x="79" y="600" type="line"/>
      <point x="66" y="500" type="line"/>
      <point x="257" y="598" type="line"/>
      <point x="281" y="585"/>
      <point x="299" y="569"/>
      <point x="318" y="539" type="curve"/>
      <point x="309" y="542"/>
      <point x="290" y="544"/>
      <point x="270" y="544" type="curve" smooth="yes"/>
      <point x="145" y="544"/>
      <point x="34" y="445"/>
      <point x="13" y="284" type="curve" smooth="yes"/>
      <point x="8" y="246" type="line" smooth="yes"/>
      <point x="-12" y="95"/>
      <point x="66" y="-14"/>
      <point x="241" y="-14" type="curve" smooth="yes"/>
      <point x="414" y="-14"/>
      <point x="499" y="100"/>
      <point x="518" y="246" type="curve" smooth="yes"/>
      <point x="523" y="285" type="line" smooth="yes"/>
      <point x="539" y="409"/>
      <point x="537" y="542"/>
      <point x="468" y="653" type="curve" smooth="yes"/>
      <point x="459" y="667"/>
      <point x="450" y="679"/>
      <point x="439" y="691" type="curve"/>
      <point x="484" y="714" type="line"/>
      <point x="498" y="814" type="line"/>
      <point x="367" y="747" type="line"/>
      <point x="291" y="790"/>
      <point x="190" y="807"/>
      <point x="83" y="814" type="curve"/>
    </contour>
    <contour>
      <point x="196" y="284" type="line" smooth="yes"/>
      <point x="205" y="353"/>
      <point x="233" y="386"/>
      <point x="279" y="386" type="curve" smooth="yes"/>
      <point x="332" y="386"/>
      <point x="349" y="351"/>
      <point x="340" y="284" type="curve" smooth="yes"/>
      <point x="335" y="246" type="line" smooth="yes"/>
      <point x="326" y="177"/>
      <point x="298" y="144"/>
      <point x="252" y="144" type="curve" smooth="yes"/>
      <point x="199" y="144"/>
      <point x="182" y="179"/>
      <point x="191" y="246" type="curve" smooth="yes"/>
    </contour>
  </outline>
</glyph>
<glyph name="ntilde" format="1">
  <advance width="595"/>
  <unicode hex="00F1"/>
  <outline>
    <contour>
      <point x="449" y="780" type="line"/>
      <point x="446" y="755"/>
      <point x="433" y="745"/>
      <point x="415" y="745" type="curve" smooth="yes"/>
      <point x="375" y="745"/>
      <point x="326" y="796"/>
      <point x="261" y="796" type="curve" smooth="yes"/>
      <point x="195" y="796"/>
      <point x="135" y="745"/>
      <point x="118" y="620" type="curve"/>
      <point x="238" y="620" type="line"/>
      <point x="241" y="645"/>
      <point x="255" y="655"/>
      <point x="273" y="655" type="curve" smooth="yes"/>
      <point x="313" y="655"/>
      <point x="361" y="604"/>
      <point x="426" y="604" type="curve" smooth="yes"/>
      <point x="492" y="604"/>
      <point x="553" y="655"/>
      <point x="569" y="780" type="curve"/>
    </contour>
    <contour>
      <point x="502" y="0" type="line"/>
      <point x="548" y="355" type="line" smooth="yes"/>
      <point x="561" y="450"/>
      <point x="533" y="544"/>
      <point x="408" y="544" type="curve" smooth="yes"/>
      <point x="329" y="544"/>
      <point x="271" y="513"/>
      <point x="226" y="460" type="curve"/>
      <point x="226" y="530" type="line"/>
      <point x="60" y="530" type="line"/>
      <point x="51" y="380" type="line"/>
      <point x="1" y="0" type="line"/>
      <point x="185" y="0" type="line"/>
      <point x="230" y="345" type="line"/>
      <point x="242" y="360"/>
      <point x="273" y="386"/>
      <point x="313" y="386" type="curve" smooth="yes"/>
      <point x="363" y="386"/>
      <point x="364" y="350"/>
      <point x="361" y="325" type="curve" smooth="yes"/>
      <point x="318" y="0" type="line"/>
    </contour>
  </outline>
</glyph>
<glyph name="otilde" format="1">
  <advance width="560"/>
  <unicode hex="00F5"/>
  <outline>
    <contour>
      <point x="428" y="780" type="line"/>
      <point x="425" y="755"/>
      <point x="412" y="745"/>
      <point x="394" y="745" type="curve" smooth="yes"/>
      <point x="354" y="745"/>
      <point x="305" y="796"/>
      <point x="240" y="796" type="curve" smooth="yes"/>
      <point x="174" y="796"/>
      <point x="114" y="745"/>
      <point x="97" y="620" type="curve"/>
      <point x="217" y="620" type="line"/>
      <point x="220" y="645"/>
      <point x="234" y="655"/>
      <point x="252" y="655" type="curve" smooth="yes"/>
      <point x="292" y="655"/>
      <point x="340" y="604"/>
      <point x="405" y="604" type="curve" smooth="yes"/>
      <point x="471" y="604"/>
      <point x="532" y="655"/>
      <point x="548" y="780" type="curve"/>
    </contour>
    <contour>
      <point x="523" y="284" type="line" smooth="yes"/>
      <point x="543" y="435"/>
      <point x="465" y="544"/>
      <point x="290" y="544" type="curve" smooth="yes"/>
      <point x="117" y="544"/>
      <point x="32" y="430"/>
      <point x="13" y="284" type="curve" smooth="yes"/>
      <point x="8" y="246" type="line" smooth="yes"/>
      <point x="-11" y="95"/>
      <point x="66" y="-14"/>
      <point x="241" y="-14" type="curve" smooth="yes"/>
      <point x="414" y="-14"/>
      <point x="499" y="100"/>
      <point x="518" y="246" type="curve" smooth="yes"/>
    </contour>
    <contour>
      <point x="196" y="284" type="line" smooth="yes"/>
      <point x="205" y="353"/>
      <point x="233" y="386"/>
      <point x="279" y="386" type="curve" smooth="yes"/>
      <point x="332" y="386"/>
      <point x="349" y="351"/>
      <point x="340" y="284" type="curve" smooth="yes"/>
      <point x="335" y="246" type="line" smooth="yes"/>
      <point x="326" y="177"/>
      <point x="298" y="144"/>
      <point x="252" y="144" type="curve" smooth="yes"/>
      <point x="199" y="144"/>
      <point x="182" y="179"/>
      <point x="191" y="246" type="curve" smooth="yes"/>
    </contour>
  </outline>
</glyph>
<glyph name="divide" format="1">
  <advance width="600"/>
  <unicode hex="00F7"/>
  <outline>
    <contour>
      <point x="31" y="308" type="line"/>
      <point x="551" y="308" type="line"/>
      <point x="573" y="472" type="line"/>
      <point x="53" y="472" type="line"/>
    </contour>
    <contour>
      <point x="382" y="280" type="line"/>
      <point x="192" y="280" type="line"/>
      <point x="167" y="90" type="line"/>
      <point x="357" y="90" type="line"/>
    </contour>
    <contour>
      <point x="436" y="690" type="line"/>
      <point x="246" y="690" type="line"/>
      <point x="221" y="500" type="line"/>
      <point x="411" y="500" type="line"/>
    </contour>
  </outline>
</glyph>
<glyph name="oslash" format="1">
  <advance width="560"/>
  <unicode hex="00F8"/>
  <outline>
    <contour>
      <point x="523" y="284" type="line" smooth="yes"/>
      <point x="532" y="353"/>
      <point x="521" y="413"/>
      <point x="489" y="458" type="curve"/>
      <point x="555" y="530" type="line"/>
      <point x="465" y="530" type="line"/>
      <point x="441" y="504" type="line"/>
      <point x="403" y="530"/>
      <point x="353" y="544"/>
      <point x="290" y="544" type="curve" smooth="yes"/>
      <point x="117" y="544"/>
      <point x="32" y="430"/>
      <point x="13" y="284" type="curve" smooth="yes"/>
      <point x="8" y="246" type="line" smooth="yes"/>
      <point x="0" y="177"/>
      <point x="10" y="117"/>
      <point x="42" y="72" type="curve"/>
      <point x="-25" y="0" type="line"/>
      <point x="65" y="0" type="line"/>
      <point x="89" y="26" type="line"/>
      <point x="127" y="0"/>
      <point x="177" y="-14"/>
      <point x="241" y="-14" type="curve" smooth="yes"/>
      <point x="414" y="-14"/>
      <point x="499" y="100"/>
      <point x="518" y="246" type="curve" smooth="yes"/>
    </contour>
    <contour>
      <point x="335" y="246" type="line" smooth="yes"/>
      <point x="326" y="177"/>
      <point x="298" y="144"/>
      <point x="252" y="144" type="curve" smooth="yes"/>
      <point x="234" y="144"/>
      <point x="219" y="148"/>
      <point x="209" y="156" type="curve"/>
      <point x="341" y="299" type="line"/>
      <point x="341" y="294"/>
      <point x="340" y="289"/>
      <point x="340" y="284" type="curve"/>
    </contour>
    <contour>
      <point x="196" y="284" type="line" smooth="yes"/>
      <point x="205" y="353"/>
      <point x="233" y="386"/>
      <point x="279" y="386" type="curve" smooth="yes"/>
      <point x="297" y="386"/>
      <point x="311" y="382"/>
      <point x="321" y="374" type="curve"/>
      <point x="189" y="232" type="line"/>
      <point x="191" y="246" type="line"/>
    </contour>
  </outline>
</glyph>
<glyph name="ucircumflex" format="1">
  <advance width="595"/>
  <unicode hex="00FB"/>
  <outline>
    <contour>
      <point x="257" y="590" type="line"/>
      <point x="332" y="663" type="line"/>
      <point x="387" y="590" type="line"/>
      <point x="547" y="590" type="line"/>
      <point x="437" y="780" type="line"/>
      <point x="257" y="780" type="line"/>
      <point x="97" y="590" type="line"/>
    </contour>
    <contour>
      <point x="64" y="530" type="line"/>
      <point x="18" y="175" type="line" smooth="yes"/>
      <point x="5" y="80"/>
      <point x="33" y="-14"/>
      <point x="158" y="-14" type="curve" smooth="yes"/>
      <point x="237" y="-14"/>
      <point x="295" y="17"/>
      <point x="340" y="70" type="curve"/>
      <point x="340" y="0" type="line"/>
      <point x="506" y="0" type="line"/>
      <point x="515" y="150" type="line"/>
      <point x="565" y="530" type="line"/>
      <point x="381" y="530" type="line"/>
      <point x="336" y="185" type="line"/>
      <point x="324" y="170"/>
      <point x="293" y="144"/>
      <point x="253" y="144" type="curve" smooth="yes"/>
      <point x="203" y="144"/>
      <point x="202" y="180"/>
      <point x="205" y="205" type="curve" smooth="yes"/>
      <point x="248" y="530" type="line"/>
    </contour>
  </outline>
</glyph>
<glyph name="yacute" format="1">
  <advance width="570"/>
  <unicode hex="00FD"/>
  <outline>
    <contour>
      <point x="264" y="220" type="line"/>
      <point x="220" y="530" type="line"/>
      <point x="20" y="530" type="line"/>
      <point x="139" y="30" type="line"/>
      <point x="23" y="-200" type="line"/>
      <point x="243" y="-200" type="line"/>
      <point x="339" y="30" type="line"/>
      <point x="590" y="530" type="line"/>
      <point x="390" y="530" type="line"/>
    </contour>
    <contour>
      <point x="338" y="780" type="line"/>
      <point x="222" y="590" type="line"/>
      <point x="404" y="590" type="line"/>
      <point x="540" y="780" type="line"/>
    </contour>
  </outline>
</glyph>
<glyph name="ydieresis" format="1">
  <advance width="570"/>
  <unicode hex="00FF"/>
  <outline>
    <contour>
      <point x="264" y="220" type="line"/>
      <point x="220" y="530" type="line"/>
      <point x="20" y="530" type="line"/>
      <point x="139" y="30" type="line"/>
      <point x="23" y="-200" type="line"/>
      <point x="243" y="-200" type="line"/>
      <point x="339" y="30" type="line"/>
      <point x="590" y="530" type="line"/>
      <point x="390" y="530" type="line"/>
    </contour>
    <contour>
      <point x="548" y="780" type="line"/>
      <point x="358" y="780" type="line"/>
      <point x="333" y="590" type="line"/>
      <point x="523" y="590" type="line"/>
    </contour>
    <contour>
      <point x="318" y="780" type="line"/>
      <point x="128" y="780" type="line"/>
      <point x="103" y="590" type="line"/>
      <point x="293" y="590" type="line"/>
    </contour>
  </outline>
</glyph>
<glyph name="Amacron" format="1">
  <advance width="650"/>
  <unicode hex="0100"/>
  <outline>
    <contour>
      <point x="248" y="780" type="line"/>
      <point x="-40" y="0" type="line"/>
      <point x="164" y="0" type="line"/>
      <point x="215" y="158" type="line"/>
      <point x="377" y="158" type="line"/>
      <point x="389" y="0" type="line"/>
      <point x="592" y="0" type="line"/>
      <point x="508" y="780" type="line"/>
    </contour>
    <contour>
      <point x="226" y="840" type="line"/>
      <point x="546" y="840" type="line"/>
      <point x="561" y="950" type="line"/>
      <point x="241" y="950" type="line"/>
    </contour>
    <contour>
      <point x="349" y="560" type="line"/>
      <point x="366" y="322" type="line"/>
      <point x="270" y="322" type="line"/>
    </contour>
  </outline>
</glyph>
<glyph name="Abreve" format="1">
  <advance width="650"/>
  <unicode hex="0102"/>
  <outline>
    <contour>
      <point x="248" y="780" type="line"/>
      <point x="-40" y="0" type="line"/>
      <point x="164" y="0" type="line"/>
      <point x="215" y="158" type="line"/>
      <point x="377" y="158" type="line"/>
      <point x="389" y="0" type="line"/>
      <point x="592" y="0" type="line"/>
      <point x="508" y="780" type="line"/>
    </contour>
    <contour>
      <point x="384" y="824" type="curve" smooth="yes"/>
      <point x="544" y="824"/>
      <point x="587" y="883"/>
      <point x="596" y="950" type="curve"/>
      <point x="471" y="950" type="line"/>
      <point x="468" y="930"/>
      <point x="447" y="920"/>
      <point x="397" y="920" type="curve" smooth="yes"/>
      <point x="347" y="920"/>
      <point x="328" y="930"/>
      <point x="331" y="950" type="curve"/>
      <point x="206" y="950" type="line"/>
      <point x="197" y="883"/>
      <point x="224" y="824"/>
    </contour>
    <contour>
      <point x="349" y="560" type="line"/>
      <point x="366" y="322" type="line"/>
      <point x="270" y="322" type="line"/>
    </contour>
  </outline>
</glyph>
<glyph name="abreve" format="1">
  <advance width="560"/>
  <unicode hex="0103"/>
  <outline>
    <contour>
      <point x="306" y="576" type="curve" smooth="yes"/>
      <point x="454" y="576"/>
      <point x="516" y="663"/>
      <point x="528" y="780" type="curve"/>
      <point x="398" y="780" type="line"/>
      <point x="391" y="725"/>
      <point x="357" y="714"/>
      <point x="324" y="714" type="curve" smooth="yes"/>
      <point x="291" y="714"/>
      <point x="261" y="725"/>
      <point x="268" y="780" type="curve"/>
      <point x="138" y="780" type="line"/>
      <point x="120" y="663"/>
      <point x="158" y="576"/>
    </contour>
    <contour>
      <point x="311" y="0" type="line"/>
      <point x="477" y="0" type="line"/>
      <point x="486" y="150" type="line"/>
      <point x="511" y="340" type="line" smooth="yes"/>
      <point x="527" y="464"/>
      <point x="460" y="544"/>
      <point x="286" y="544" type="curve" smooth="yes"/>
      <point x="111" y="544"/>
      <point x="52" y="465"/>
      <point x="43" y="366" type="curve" smooth="yes"/>
      <point x="42" y="355" type="line"/>
      <point x="215" y="355" type="line"/>
      <point x="217" y="382"/>
      <point x="235" y="406"/>
      <point x="277" y="406" type="curve" smooth="yes"/>
      <point x="320" y="406"/>
      <point x="333" y="388"/>
      <point x="329" y="350" type="curve"/>
      <point x="207" y="331" type="line" smooth="yes"/>
      <point x="87" y="312"/>
      <point x="12" y="280"/>
      <point x="-3" y="166" type="curve" smooth="yes"/>
      <point x="-5" y="151" type="line" smooth="yes"/>
      <point x="-16" y="67"/>
      <point x="20" y="-14"/>
      <point x="145" y="-14" type="curve" smooth="yes"/>
      <point x="215" y="-14"/>
      <point x="266" y="11"/>
      <point x="311" y="54" type="curve"/>
    </contour>
    <contour>
      <point x="225" y="134" type="curve" smooth="yes"/>
      <point x="191" y="134"/>
      <point x="180" y="155"/>
      <point x="182" y="176" type="curve" smooth="yes"/>
      <point x="183" y="185" type="line" smooth="yes"/>
      <point x="186" y="209"/>
      <point x="203" y="227"/>
      <point x="238" y="232" type="curve" smooth="yes"/>
      <point x="315" y="244" type="line"/>
      <point x="304" y="165" type="line"/>
      <point x="287" y="148"/>
      <point x="256" y="134"/>
    </contour>
  </outline>
</glyph>
<glyph name="Aogonek" format="1">
  <advance width="650"/>
  <unicode hex="0104"/>
  <outline>
    <contour>
      <point x="592" y="0" type="curve"/>
      <point x="508" y="780" type="line"/>
      <point x="248" y="780" type="line"/>
      <point x="-40" y="0" type="line"/>
      <point x="164" y="0" type="line"/>
      <point x="215" y="158" type="line"/>
      <point x="377" y="158" type="line"/>
      <point x="389" y="0" type="line"/>
      <point x="443" y="0" type="line"/>
      <point x="410" y="-32"/>
      <point x="387" y="-75"/>
      <point x="387" y="-123" type="curve" smooth="yes"/>
      <point x="387" y="-186"/>
      <point x="437" y="-216"/>
      <point x="515" y="-216" type="curve" smooth="yes"/>
      <point x="560" y="-216"/>
      <point x="604" y="-203"/>
      <point x="626" y="-190" type="curve"/>
      <point x="600" y="-80" type="line"/>
      <point x="593" y="-84"/>
      <point x="581" y="-90"/>
      <point x="563" y="-90" type="curve" smooth="yes"/>
      <point x="542" y="-90"/>
      <point x="528" y="-79"/>
      <point x="528" y="-63" type="curve" smooth="yes"/>
      <point x="528" y="-29"/>
      <point x="567" y="-11"/>
    </contour>
    <contour>
      <point x="349" y="560" type="line"/>
      <point x="366" y="322" type="line"/>
      <point x="270" y="322" type="line"/>
    </contour>
  </outline>
</glyph>
<glyph name="aogonek" format="1">
  <advance width="560"/>
  <unicode hex="0105"/>
  <outline>
    <contour>
      <point x="477" y="0" type="curve"/>
      <point x="486" y="150" type="line"/>
      <point x="511" y="340" type="line" smooth="yes"/>
      <point x="527" y="464"/>
      <point x="460" y="544"/>
      <point x="286" y="544" type="curve" smooth="yes"/>
      <point x="111" y="544"/>
      <point x="52" y="465"/>
      <point x="43" y="366" type="curve" smooth="yes"/>
      <point x="42" y="355" type="line"/>
      <point x="215" y="355" type="line"/>
      <point x="217" y="382"/>
      <point x="235" y="406"/>
      <point x="277" y="406" type="curve" smooth="yes"/>
      <point x="320" y="406"/>
      <point x="333" y="388"/>
      <point x="329" y="350" type="curve"/>
      <point x="207" y="331" type="line" smooth="yes"/>
      <point x="87" y="312"/>
      <point x="12" y="280"/>
      <point x="-3" y="166" type="curve" smooth="yes"/>
      <point x="-5" y="151" type="line" smooth="yes"/>
      <point x="-16" y="67"/>
      <point x="20" y="-14"/>
      <point x="145" y="-14" type="curve" smooth="yes"/>
      <point x="215" y="-14"/>
      <point x="266" y="11"/>
      <point x="311" y="54" type="curve"/>
      <point x="311" y="-18" type="line"/>
      <point x="287" y="-48"/>
      <point x="272" y="-83"/>
      <point x="272" y="-123" type="curve" smooth="yes"/>
      <point x="272" y="-186"/>
      <point x="322" y="-216"/>
      <point x="400" y="-216" type="curve" smooth="yes"/>
      <point x="445" y="-216"/>
      <point x="489" y="-203"/>
      <point x="511" y="-190" type="curve"/>
      <point x="485" y="-80" type="line"/>
      <point x="478" y="-84"/>
      <point x="466" y="-90"/>
      <point x="448" y="-90" type="curve" smooth="yes"/>
      <point x="427" y="-90"/>
      <point x="413" y="-79"/>
      <point x="413" y="-63" type="curve" smooth="yes"/>
      <point x="413" y="-29"/>
      <point x="452" y="-11"/>
    </contour>
    <contour>
      <point x="225" y="134" type="curve" smooth="yes"/>
      <point x="191" y="134"/>
      <point x="180" y="155"/>
      <point x="182" y="176" type="curve" smooth="yes"/>
      <point x="183" y="185" type="line" smooth="yes"/>
      <point x="186" y="209"/>
      <point x="203" y="227"/>
      <point x="238" y="232" type="curve" smooth="yes"/>
      <point x="315" y="244" type="line"/>
      <point x="304" y="165" type="line"/>
      <point x="287" y="148"/>
      <point x="256" y="134"/>
    </contour>
  </outline>
</glyph>
<glyph name="Ccircumflex" format="1">
  <advance width="660"/>
  <unicode hex="0108"/>
  <outline>
    <contour>
      <point x="336" y="840" type="line"/>
      <point x="401" y="879" type="line"/>
      <point x="456" y="840" type="line"/>
      <point x="621" y="840" type="line"/>
      <point x="506" y="950" type="line"/>
      <point x="316" y="950" type="line"/>
      <point x="171" y="840" type="line"/>
    </contour>
    <contour>
      <point x="230" y="408" type="line" smooth="yes"/>
      <point x="248" y="543"/>
      <point x="273" y="630"/>
      <point x="368" y="630" type="curve" smooth="yes"/>
      <point x="379" y="630" type="line" smooth="yes"/>
      <point x="454" y="630"/>
      <point x="461" y="570"/>
      <point x="449" y="480" type="curve"/>
      <point x="639" y="480" type="line"/>
      <point x="644" y="519" type="line" smooth="yes"/>
      <point x="668" y="707"/>
      <point x="575" y="794"/>
      <point x="385" y="794" type="curve" smooth="yes"/>
      <point x="175" y="794"/>
      <point x="73" y="678"/>
      <point x="37" y="408" type="curve" smooth="yes"/>
      <point x="32" y="370" type="line" smooth="yes"/>
      <point x="-4" y="100"/>
      <point x="90" y="-14"/>
      <point x="300" y="-14" type="curve" smooth="yes"/>
      <point x="475" y="-14"/>
      <point x="588" y="59"/>
      <point x="610" y="261" type="curve" smooth="yes"/>
      <point x="611" y="270" type="line"/>
      <point x="421" y="270" type="line"/>
      <point x="412" y="200"/>
      <point x="383" y="150"/>
      <point x="316" y="150" type="curve" smooth="yes"/>
      <point x="305" y="150" type="line" smooth="yes"/>
      <point x="215" y="150"/>
      <point x="207" y="234"/>
      <point x="225" y="370" type="curve" smooth="yes"/>
    </contour>
  </outline>
</glyph>
<glyph name="ccircumflex" format="1">
  <advance width="528"/>
  <unicode hex="0109"/>
  <outline>
    <contour>
      <point x="233" y="590" type="line"/>
      <point x="308" y="663" type="line"/>
      <point x="363" y="590" type="line"/>
      <point x="523" y="590" type="line"/>
      <point x="413" y="780" type="line"/>
      <point x="233" y="780" type="line"/>
      <point x="73" y="590" type="line"/>
    </contour>
    <contour>
      <point x="196" y="284" type="line" smooth="yes"/>
      <point x="205" y="353"/>
      <point x="235" y="386"/>
      <point x="279" y="386" type="curve" smooth="yes"/>
      <point x="321" y="386"/>
      <point x="329" y="354"/>
      <point x="325" y="320" type="curve"/>
      <point x="498" y="320" type="line"/>
      <point x="501" y="342" type="line" smooth="yes"/>
      <point x="519" y="475"/>
      <point x="443" y="544"/>
      <point x="288" y="544" type="curve" smooth="yes"/>
      <point x="118" y="544"/>
      <point x="32" y="430"/>
      <point x="13" y="284" type="curve" smooth="yes"/>
      <point x="8" y="246" type="line" smooth="yes"/>
      <point x="-12" y="95"/>
      <point x="67" y="-14"/>
      <point x="232" y="-14" type="curve" smooth="yes"/>
      <point x="386" y="-14"/>
      <point x="463" y="64"/>
      <point x="479" y="178" type="curve" smooth="yes"/>
      <point x="482" y="200" type="line"/>
      <point x="309" y="200" type="line"/>
      <point x="305" y="169"/>
      <point x="287" y="144"/>
      <point x="250" y="144" type="curve" smooth="yes"/>
      <point x="203" y="144"/>
      <point x="182" y="179"/>
      <point x="191" y="246" type="curve" smooth="yes"/>
    </contour>
  </outline>
</glyph>
<glyph name="ccaron" format="1">
  <advance width="528"/>
  <unicode hex="010D"/>
  <outline>
    <contour>
      <point x="98" y="780" type="line"/>
      <point x="208" y="590" type="line"/>
      <point x="388" y="590" type="line"/>
      <point x="548" y="780" type="line"/>
      <point x="388" y="780" type="line"/>
      <point x="313" y="706" type="line"/>
      <point x="258" y="780" type="line"/>
    </contour>
    <contour>
      <point x="196" y="284" type="line" smooth="yes"/>
      <point x="205" y="353"/>
      <point x="235" y="386"/>
      <point x="279" y="386" type="curve" smooth="yes"/>
      <point x="321" y="386"/>
      <point x="329" y="354"/>
      <point x="325" y="320" type="curve"/>
      <point x="498" y="320" type="line"/>
      <point x="501" y="342" type="line" smooth="yes"/>
      <point x="519" y="475"/>
      <point x="443" y="544"/>
      <point x="288" y="544" type="curve" smooth="yes"/>
      <point x="118" y="544"/>
      <point x="32" y="430"/>
      <point x="13" y="284" type="curve" smooth="yes"/>
      <point x="8" y="246" type="line" smooth="yes"/>
      <point x="-12" y="95"/>
      <point x="67" y="-14"/>
      <point x="232" y="-14" type="curve" smooth="yes"/>
      <point x="386" y="-14"/>
      <point x="463" y="64"/>
      <point x="479" y="178" type="curve" smooth="yes"/>
      <point x="482" y="200" type="line"/>
      <point x="309" y="200" type="line"/>
      <point x="305" y="169"/>
      <point x="287" y="144"/>
      <point x="250" y="144" type="curve" smooth="yes"/>
      <point x="203" y="144"/>
      <point x="182" y="179"/>
      <point x="191" y="246" type="curve" smooth="yes"/>
    </contour>
  </outline>
</glyph>
<glyph name="Dcroat" format="1">
  <advance width="730"/>
  <unicode hex="0110"/>
  <outline>
    <contour>
      <point x="700" y="410" type="line" smooth="yes"/>
      <point x="736" y="680"/>
      <point x="652" y="780"/>
      <point x="407" y="780" type="curve" smooth="yes"/>
      <point x="162" y="780" type="line"/>
      <point x="121" y="470" type="line"/>
      <point x="22" y="470" type="line"/>
      <point x="4" y="330" type="line"/>
      <point x="103" y="330" type="line"/>
      <point x="60" y="0" type="line"/>
      <point x="315" y="0" type="line" smooth="yes"/>
      <point x="560" y="0"/>
      <point x="659" y="102"/>
      <point x="695" y="372" type="curve" smooth="yes"/>
    </contour>
    <contour>
      <point x="271" y="164" type="line"/>
      <point x="293" y="330" type="line"/>
      <point x="444" y="330" type="line"/>
      <point x="462" y="470" type="line"/>
      <point x="311" y="470" type="line"/>
      <point x="331" y="616" type="line"/>
      <point x="376" y="616" type="line" smooth="yes"/>
      <point x="506" y="616"/>
      <point x="525" y="545"/>
      <point x="507" y="410" type="curve" smooth="yes"/>
      <point x="502" y="372" type="line" smooth="yes"/>
      <point x="484" y="237"/>
      <point x="456" y="164"/>
      <point x="326" y="164" type="curve" smooth="yes"/>
    </contour>
  </outline>
</glyph>
<glyph name="dcroat" format="1">
  <advance width="595"/>
  <unicode hex="0111"/>
  <outline>
    <contour>
      <point x="336" y="185" type="line"/>
      <point x="324" y="170"/>
      <point x="298" y="144"/>
      <point x="258" y="144" type="curve" smooth="yes"/>
      <point x="208" y="144"/>
      <point x="191" y="179"/>
      <point x="200" y="246" type="curve" smooth="yes"/>
      <point x="205" y="284" type="line" smooth="yes"/>
      <point x="214" y="353"/>
      <point x="241" y="386"/>
      <point x="291" y="386" type="curve" smooth="yes"/>
      <point x="331" y="386"/>
      <point x="349" y="360"/>
      <point x="357" y="345" type="curve"/>
    </contour>
    <contour>
      <point x="170" y="-14" type="curve" smooth="yes"/>
      <point x="239" y="-14"/>
      <point x="301" y="13"/>
      <point x="340" y="65" type="curve"/>
      <point x="340" y="0" type="line"/>
      <point x="506" y="0" type="line"/>
      <point x="515" y="150" type="line"/>
      <point x="574" y="600" type="line"/>
      <point x="634" y="600" type="line"/>
      <point x="652" y="730" type="line"/>
      <point x="591" y="730" type="line"/>
      <point x="601" y="800" type="line"/>
      <point x="417" y="800" type="line"/>
      <point x="407" y="730" type="line"/>
      <point x="301" y="730" type="line"/>
      <point x="283" y="600" type="line"/>
      <point x="390" y="600" type="line"/>
      <point x="376" y="490" type="line"/>
      <point x="355" y="515"/>
      <point x="323" y="544"/>
      <point x="244" y="544" type="curve" smooth="yes"/>
      <point x="109" y="544"/>
      <point x="42" y="436"/>
      <point x="22" y="284" type="curve" smooth="yes"/>
      <point x="17" y="246" type="line" smooth="yes"/>
      <point x="-4" y="86"/>
      <point x="47" y="-14"/>
    </contour>
  </outline>
</glyph>
<glyph name="Emacron" format="1">
  <advance width="580"/>
  <unicode hex="0112"/>
  <outline>
    <contour>
      <point x="103" y="780" type="line"/>
      <point x="1" y="0" type="line"/>
      <point x="491" y="0" type="line"/>
      <point x="512" y="164" type="line"/>
      <point x="212" y="164" type="line"/>
      <point x="232" y="316" type="line"/>
      <point x="482" y="316" type="line"/>
      <point x="504" y="480" type="line"/>
      <point x="254" y="480" type="line"/>
      <point x="272" y="616" type="line"/>
      <point x="572" y="616" type="line"/>
      <point x="593" y="780" type="line"/>
    </contour>
    <contour>
      <point x="196" y="840" type="line"/>
      <point x="516" y="840" type="line"/>
      <point x="531" y="950" type="line"/>
      <point x="211" y="950" type="line"/>
    </contour>
  </outline>
</glyph>
<glyph name="Ebreve" format="1">
  <advance width="580"/>
  <unicode hex="0114"/>
  <outline>
    <contour>
      <point x="103" y="780" type="line"/>
      <point x="1" y="0" type="line"/>
      <point x="491" y="0" type="line"/>
      <point x="512" y="164" type="line"/>
      <point x="212" y="164" type="line"/>
      <point x="232" y="316" type="line"/>
      <point x="482" y="316" type="line"/>
      <point x="504" y="480" type="line"/>
      <point x="254" y="480" type="line"/>
      <point x="272" y="616" type="line"/>
      <point x="572" y="616" type="line"/>
      <point x="593" y="780" type="line"/>
    </contour>
    <contour>
      <point x="354" y="824" type="curve" smooth="yes"/>
      <point x="514" y="824"/>
      <point x="557" y="883"/>
      <point x="566" y="950" type="curve"/>
      <point x="441" y="950" type="line"/>
      <point x="438" y="930"/>
      <point x="417" y="920"/>
      <point x="367" y="920" type="curve" smooth="yes"/>
      <point x="317" y="920"/>
      <point x="298" y="930"/>
      <point x="301" y="950" type="curve"/>
      <point x="176" y="950" type="line"/>
      <point x="167" y="883"/>
      <point x="194" y="824"/>
    </contour>
  </outline>
</glyph>
<glyph name="ebreve" format="1">
  <advance width="560"/>
  <unicode hex="0115"/>
  <outline>
    <contour>
      <point x="310" y="576" type="curve" smooth="yes"/>
      <point x="458" y="576"/>
      <point x="520" y="663"/>
      <point x="532" y="780" type="curve"/>
      <point x="402" y="780" type="line"/>
      <point x="395" y="725"/>
      <point x="361" y="714"/>
      <point x="328" y="714" type="curve" smooth="yes"/>
      <point x="295" y="714"/>
      <point x="265" y="725"/>
      <point x="272" y="780" type="curve"/>
      <point x="142" y="780" type="line"/>
      <point x="124" y="663"/>
      <point x="162" y="576"/>
    </contour>
    <contour>
      <point x="512" y="200" type="line"/>
      <point x="520" y="260" type="line" smooth="yes"/>
      <point x="543" y="433"/>
      <point x="465" y="544"/>
      <point x="290" y="544" type="curve" smooth="yes"/>
      <point x="117" y="544"/>
      <point x="32" y="430"/>
      <point x="13" y="284" type="curve" smooth="yes"/>
      <point x="8" y="246" type="line" smooth="yes"/>
      <point x="-12" y="96"/>
      <point x="66" y="-14"/>
      <point x="250" y="-14" type="curve" smooth="yes"/>
      <point x="406" y="-14"/>
      <point x="492" y="57"/>
      <point x="507" y="163" type="curve" smooth="yes"/>
      <point x="508" y="170" type="line"/>
      <point x="335" y="170" type="line"/>
      <point x="332" y="145"/>
      <point x="304" y="124"/>
      <point x="258" y="124" type="curve" smooth="yes"/>
      <point x="219" y="124"/>
      <point x="184" y="140"/>
      <point x="186" y="200" type="curve"/>
    </contour>
    <contour>
      <point x="284" y="406" type="curve" smooth="yes"/>
      <point x="331" y="406"/>
      <point x="347" y="381"/>
      <point x="345" y="330" type="curve"/>
      <point x="203" y="330" type="line"/>
      <point x="215" y="386"/>
      <point x="246" y="406"/>
    </contour>
  </outline>
</glyph>
<glyph name="Eogonek" format="1">
  <advance width="580"/>
  <unicode hex="0118"/>
  <outline>
    <contour>
      <point x="491" y="0" type="curve"/>
      <point x="512" y="164" type="line"/>
      <point x="212" y="164" type="line"/>
      <point x="232" y="316" type="line"/>
      <point x="482" y="316" type="line"/>
      <point x="504" y="480" type="line"/>
      <point x="254" y="480" type="line"/>
      <point x="272" y="616" type="line"/>
      <point x="572" y="616" type="line"/>
      <point x="593" y="780" type="line"/>
      <point x="103" y="780" type="line"/>
      <point x="1" y="0" type="line"/>
      <point x="342" y="0" type="line"/>
      <point x="309" y="-32"/>
      <point x="286" y="-75"/>
      <point x="286" y="-123" type="curve" smooth="yes"/>
      <point x="286" y="-186"/>
      <point x="336" y="-216"/>
      <point x="414" y="-216" type="curve" smooth="yes"/>
      <point x="459" y="-216"/>
      <point x="503" y="-203"/>
      <point x="525" y="-190" type="curve"/>
      <point x="499" y="-80" type="line"/>
      <point x="492" y="-84"/>
      <point x="480" y="-90"/>
      <point x="462" y="-90" type="curve" smooth="yes"/>
      <point x="441" y="-90"/>
      <point x="427" y="-79"/>
      <point x="427" y="-63" type="curve" smooth="yes"/>
      <point x="427" y="-29"/>
      <point x="466" y="-11"/>
    </contour>
  </outline>
</glyph>
<glyph name="eogonek" format="1">
  <advance width="560"/>
  <unicode hex="0119"/>
  <outline>
    <contour>
      <point x="512" y="200" type="line"/>
      <point x="520" y="260" type="line" smooth="yes"/>
      <point x="543" y="433"/>
      <point x="465" y="544"/>
      <point x="290" y="544" type="curve" smooth="yes"/>
      <point x="117" y="544"/>
      <point x="32" y="430"/>
      <point x="13" y="284" type="curve" smooth="yes"/>
      <point x="8" y="246" type="line" smooth="yes"/>
      <point x="-10" y="111"/>
      <point x="51" y="8"/>
      <point x="198" y="-11" type="curve"/>
      <point x="171" y="-42"/>
      <point x="153" y="-79"/>
      <point x="153" y="-123" type="curve" smooth="yes"/>
      <point x="153" y="-186"/>
      <point x="203" y="-216"/>
      <point x="281" y="-216" type="curve" smooth="yes"/>
      <point x="326" y="-216"/>
      <point x="370" y="-203"/>
      <point x="392" y="-190" type="curve"/>
      <point x="366" y="-80" type="line"/>
      <point x="359" y="-84"/>
      <point x="347" y="-90"/>
      <point x="329" y="-90" type="curve" smooth="yes"/>
      <point x="308" y="-90"/>
      <point x="294" y="-79"/>
      <point x="294" y="-63" type="curve" smooth="yes"/>
      <point x="294" y="-29"/>
      <point x="331" y="-8"/>
      <point x="358" y="0" type="curve" smooth="yes"/>
      <point x="444" y="25"/>
      <point x="496" y="84"/>
      <point x="507" y="163" type="curve" smooth="yes"/>
      <point x="508" y="170" type="line"/>
      <point x="335" y="170" type="line"/>
      <point x="332" y="145"/>
      <point x="304" y="124"/>
      <point x="258" y="124" type="curve" smooth="yes"/>
      <point x="219" y="124"/>
      <point x="184" y="140"/>
      <point x="186" y="200" type="curve"/>
    </contour>
    <contour>
      <point x="284" y="406" type="curve" smooth="yes"/>
      <point x="331" y="406"/>
      <point x="347" y="381"/>
      <point x="345" y="330" type="curve"/>
      <point x="203" y="330" type="line"/>
      <point x="215" y="386"/>
      <point x="246" y="406"/>
    </contour>
  </outline>
</glyph>
<glyph name="Ecaron" format="1">
  <advance width="580"/>
  <unicode hex="011A"/>
  <outline>
    <contour>
      <point x="103" y="780" type="line"/>
      <point x="1" y="0" type="line"/>
      <point x="491" y="0" type="line"/>
      <point x="512" y="164" type="line"/>
      <point x="212" y="164" type="line"/>
      <point x="232" y="316" type="line"/>
      <point x="482" y="316" type="line"/>
      <point x="504" y="480" type="line"/>
      <point x="254" y="480" type="line"/>
      <point x="272" y="616" type="line"/>
      <point x="572" y="616" type="line"/>
      <point x="593" y="780" type="line"/>
    </contour>
    <contour>
      <point x="146" y="950" type="line"/>
      <point x="261" y="840" type="line"/>
      <point x="451" y="840" type="line"/>
      <point x="596" y="950" type="line"/>
      <point x="431" y="950" type="line"/>
      <point x="365" y="910" type="line"/>
      <point x="311" y="950" type="line"/>
    </contour>
  </outline>
</glyph>
<glyph name="Gbreve" format="1">
  <advance width="680"/>
  <unicode hex="011E"/>
  <outline>
    <contour>
      <point x="399" y="824" type="curve" smooth="yes"/>
      <point x="559" y="824"/>
      <point x="602" y="883"/>
      <point x="611" y="950" type="curve"/>
      <point x="486" y="950" type="line"/>
      <point x="483" y="930"/>
      <point x="462" y="920"/>
      <point x="412" y="920" type="curve" smooth="yes"/>
      <point x="362" y="920"/>
      <point x="343" y="930"/>
      <point x="346" y="950" type="curve"/>
      <point x="221" y="950" type="line"/>
      <point x="212" y="883"/>
      <point x="239" y="824"/>
    </contour>
    <contour>
      <point x="310" y="-14" type="curve" smooth="yes"/>
      <point x="458" y="-14"/>
      <point x="535" y="29"/>
      <point x="595" y="78" type="curve"/>
      <point x="642" y="434" type="line"/>
      <point x="358" y="434" type="line"/>
      <point x="336" y="270" type="line"/>
      <point x="430" y="270" type="line"/>
      <point x="417" y="170" type="line"/>
      <point x="397" y="159"/>
      <point x="360" y="150"/>
      <point x="331" y="150" type="curve" smooth="yes"/>
      <point x="320" y="150" type="line" smooth="yes"/>
      <point x="225" y="150"/>
      <point x="207" y="234"/>
      <point x="225" y="370" type="curve" smooth="yes"/>
      <point x="230" y="408" type="line" smooth="yes"/>
      <point x="248" y="543"/>
      <point x="279" y="630"/>
      <point x="374" y="630" type="curve" smooth="yes"/>
      <point x="385" y="630" type="line" smooth="yes"/>
      <point x="460" y="630"/>
      <point x="471" y="570"/>
      <point x="459" y="480" type="curve"/>
      <point x="649" y="480" type="line"/>
      <point x="654" y="519" type="line" smooth="yes"/>
      <point x="678" y="707"/>
      <point x="582" y="794"/>
      <point x="391" y="794" type="curve" smooth="yes"/>
      <point x="181" y="794"/>
      <point x="73" y="678"/>
      <point x="37" y="408" type="curve" smooth="yes"/>
      <point x="32" y="370" type="line" smooth="yes"/>
      <point x="-4" y="100"/>
      <point x="100" y="-14"/>
    </contour>
  </outline>
</glyph>
<glyph name="gbreve" format="1">
  <advance width="585"/>
  <unicode hex="011F"/>
  <outline>
    <contour>
      <point x="311" y="576" type="curve" smooth="yes"/>
      <point x="459" y="576"/>
      <point x="521" y="663"/>
      <point x="533" y="780" type="curve"/>
      <point x="403" y="780" type="line"/>
      <point x="396" y="725"/>
      <point x="362" y="714"/>
      <point x="329" y="714" type="curve" smooth="yes"/>
      <point x="296" y="714"/>
      <point x="266" y="725"/>
      <point x="273" y="780" type="curve"/>
      <point x="143" y="780" type="line"/>
      <point x="125" y="663"/>
      <point x="163" y="576"/>
    </contour>
    <contour>
      <point x="304" y="11" type="line" smooth="yes"/>
      <point x="296" y="-46"/>
      <point x="276" y="-66"/>
      <point x="223" y="-66" type="curve" smooth="yes"/>
      <point x="168" y="-66"/>
      <point x="155" y="-37"/>
      <point x="159" y="0" type="curve"/>
      <point x="-14" y="0" type="line"/>
      <point x="-18" y="-27" type="line" smooth="yes"/>
      <point x="-33" y="-126"/>
      <point x="21" y="-214"/>
      <point x="215" y="-214" type="curve" smooth="yes"/>
      <point x="376" y="-214"/>
      <point x="466" y="-153"/>
      <point x="487" y="2" type="curve" smooth="yes"/>
      <point x="537" y="380" type="line"/>
      <point x="566" y="530" type="line"/>
      <point x="400" y="530" type="line"/>
      <point x="381" y="469" type="line"/>
      <point x="357" y="513"/>
      <point x="314" y="544"/>
      <point x="235" y="544" type="curve" smooth="yes"/>
      <point x="100" y="544"/>
      <point x="33" y="436"/>
      <point x="15" y="299" type="curve" smooth="yes"/>
      <point x="10" y="261" type="line" smooth="yes"/>
      <point x="-9" y="116"/>
      <point x="42" y="16"/>
      <point x="165" y="16" type="curve" smooth="yes"/>
      <point x="234" y="16"/>
      <point x="278" y="38"/>
      <point x="312" y="70" type="curve"/>
    </contour>
    <contour>
      <point x="331" y="215" type="line"/>
      <point x="319" y="200"/>
      <point x="293" y="174"/>
      <point x="253" y="174" type="curve" smooth="yes"/>
      <point x="203" y="174"/>
      <point x="186" y="209"/>
      <point x="193" y="261" type="curve" smooth="yes"/>
      <point x="198" y="299" type="line" smooth="yes"/>
      <point x="205" y="353"/>
      <point x="232" y="386"/>
      <point x="282" y="386" type="curve" smooth="yes"/>
      <point x="322" y="386"/>
      <point x="340" y="360"/>
      <point x="348" y="345" type="curve"/>
    </contour>
  </outline>
</glyph>
<glyph name="Gdotaccent" format="1">
  <advance width="680"/>
  <unicode hex="0120"/>
  <outline>
    <contour>
      <point x="491" y="950" type="line"/>
      <point x="341" y="950" type="line"/>
      <point x="326" y="840" type="line"/>
      <point x="476" y="840" type="line"/>
    </contour>
    <contour>
      <point x="310" y="-14" type="curve" smooth="yes"/>
      <point x="458" y="-14"/>
      <point x="535" y="29"/>
      <point x="595" y="78" type="curve"/>
      <point x="642" y="434" type="line"/>
      <point x="358" y="434" type="line"/>
      <point x="336" y="270" type="line"/>
      <point x="430" y="270" type="line"/>
      <point x="417" y="170" type="line"/>
      <point x="397" y="159"/>
      <point x="360" y="150"/>
      <point x="331" y="150" type="curve" smooth="yes"/>
      <point x="320" y="150" type="line" smooth="yes"/>
      <point x="225" y="150"/>
      <point x="207" y="234"/>
      <point x="225" y="370" type="curve" smooth="yes"/>
      <point x="230" y="408" type="line" smooth="yes"/>
      <point x="248" y="543"/>
      <point x="279" y="630"/>
      <point x="374" y="630" type="curve" smooth="yes"/>
      <point x="385" y="630" type="line" smooth="yes"/>
      <point x="460" y="630"/>
      <point x="471" y="570"/>
      <point x="459" y="480" type="curve"/>
      <point x="649" y="480" type="line"/>
      <point x="654" y="519" type="line" smooth="yes"/>
      <point x="678" y="707"/>
      <point x="582" y="794"/>
      <point x="391" y="794" type="curve" smooth="yes"/>
      <point x="181" y="794"/>
      <point x="73" y="678"/>
      <point x="37" y="408" type="curve" smooth="yes"/>
      <point x="32" y="370" type="line" smooth="yes"/>
      <point x="-4" y="100"/>
      <point x="100" y="-14"/>
    </contour>
  </outline>
</glyph>
<glyph name="Gcommaaccent" format="1">
  <advance width="680"/>
  <unicode hex="0122"/>
  <outline>
    <contour>
      <point x="375" y="-40" type="line"/>
      <point x="215" y="-40" type="line"/>
      <point x="202" y="-140" type="line"/>
      <point x="290" y="-140" type="line"/>
      <point x="272" y="-163"/>
      <point x="241" y="-170"/>
      <point x="198" y="-170" type="curve"/>
      <point x="190" y="-230" type="line"/>
      <point x="300" y="-230"/>
      <point x="355" y="-195"/>
      <point x="367" y="-100" type="curve" smooth="yes"/>
    </contour>
    <contour>
      <point x="310" y="-14" type="curve" smooth="yes"/>
      <point x="458" y="-14"/>
      <point x="535" y="29"/>
      <point x="595" y="78" type="curve"/>
      <point x="642" y="434" type="line"/>
      <point x="358" y="434" type="line"/>
      <point x="336" y="270" type="line"/>
      <point x="430" y="270" type="line"/>
      <point x="417" y="170" type="line"/>
      <point x="397" y="159"/>
      <point x="360" y="150"/>
      <point x="331" y="150" type="curve" smooth="yes"/>
      <point x="320" y="150" type="line" smooth="yes"/>
      <point x="225" y="150"/>
      <point x="207" y="234"/>
      <point x="225" y="370" type="curve" smooth="yes"/>
      <point x="230" y="408" type="line" smooth="yes"/>
      <point x="248" y="543"/>
      <point x="279" y="630"/>
      <point x="374" y="630" type="curve" smooth="yes"/>
      <point x="385" y="630" type="line" smooth="yes"/>
      <point x="460" y="630"/>
      <point x="471" y="570"/>
      <point x="459" y="480" type="curve"/>
      <point x="649" y="480" type="line"/>
      <point x="654" y="519" type="line" smooth="yes"/>
      <point x="678" y="707"/>
      <point x="582" y="794"/>
      <point x="391" y="794" type="curve" smooth="yes"/>
      <point x="181" y="794"/>
      <point x="73" y="678"/>
      <point x="37" y="408" type="curve" smooth="yes"/>
      <point x="32" y="370" type="line" smooth="yes"/>
      <point x="-4" y="100"/>
      <point x="100" y="-14"/>
    </contour>
  </outline>
</glyph>
<glyph name="Hcircumflex" format="1">
  <advance width="670"/>
  <unicode hex="0124"/>
  <outline>
    <contour>
      <point x="483" y="780" type="line"/>
      <point x="444" y="480" type="line"/>
      <point x="254" y="480" type="line"/>
      <point x="293" y="780" type="line"/>
      <point x="103" y="780" type="line"/>
      <point x="1" y="0" type="line"/>
      <point x="191" y="0" type="line"/>
      <point x="232" y="316" type="line"/>
      <point x="422" y="316" type="line"/>
      <point x="381" y="0" type="line"/>
      <point x="571" y="0" type="line"/>
      <point x="673" y="780" type="line"/>
    </contour>
    <contour>
      <point x="336" y="840" type="line"/>
      <point x="401" y="879" type="line"/>
      <point x="456" y="840" type="line"/>
      <point x="621" y="840" type="line"/>
      <point x="506" y="950" type="line"/>
      <point x="316" y="950" type="line"/>
      <point x="171" y="840" type="line"/>
    </contour>
  </outline>
</glyph>
<glyph name="hcircumflex" format="1">
  <advance width="595"/>
  <unicode hex="0125"/>
  <outline>
    <contour>
      <point x="290" y="800" type="line"/>
      <point x="106" y="800" type="line"/>
      <point x="1" y="0" type="line"/>
      <point x="185" y="0" type="line"/>
      <point x="230" y="345" type="line"/>
      <point x="242" y="360"/>
      <point x="272" y="386"/>
      <point x="312" y="386" type="curve" smooth="yes"/>
      <point x="362" y="386"/>
      <point x="364" y="350"/>
      <point x="360" y="325" type="curve" smooth="yes"/>
      <point x="318" y="0" type="line"/>
      <point x="502" y="0" type="line"/>
      <point x="548" y="355" type="line" smooth="yes"/>
      <point x="561" y="450"/>
      <point x="533" y="544"/>
      <point x="408" y="544" type="curve" smooth="yes"/>
      <point x="340" y="544"/>
      <point x="287" y="520"/>
      <point x="248" y="483" type="curve"/>
    </contour>
    <contour>
      <point x="143" y="840" type="line"/>
      <point x="208" y="879" type="line"/>
      <point x="263" y="840" type="line"/>
      <point x="428" y="840" type="line"/>
      <point x="313" y="950" type="line"/>
      <point x="123" y="950" type="line"/>
      <point x="-22" y="840" type="line"/>
    </contour>
  </outline>
</glyph>
<glyph name="Hbar" format="1">
  <advance width="670"/>
  <unicode hex="0126"/>
  <outline>
    <contour>
      <point x="483" y="780" type="line"/>
      <point x="473" y="700" type="line"/>
      <point x="283" y="700" type="line"/>
      <point x="293" y="780" type="line"/>
      <point x="103" y="780" type="line"/>
      <point x="1" y="0" type="line"/>
      <point x="191" y="0" type="line"/>
      <point x="232" y="316" type="line"/>
      <point x="422" y="316" type="line"/>
      <point x="381" y="0" type="line"/>
      <point x="571" y="0" type="line"/>
      <point x="673" y="780" type="line"/>
    </contour>
    <contour>
      <point x="254" y="480" type="line"/>
      <point x="264" y="560" type="line"/>
      <point x="454" y="560" type="line"/>
      <point x="444" y="480" type="line"/>
    </contour>
  </outline>
</glyph>
<glyph name="hbar" format="1">
  <advance width="595"/>
  <unicode hex="0127"/>
  <outline>
    <contour>
      <point x="290" y="800" type="line"/>
      <point x="106" y="800" type="line"/>
      <point x="97" y="730" type="line"/>
      <point x="37" y="730" type="line"/>
      <point x="19" y="600" type="line"/>
      <point x="79" y="600" type="line"/>
      <point x="1" y="0" type="line"/>
      <point x="185" y="0" type="line"/>
      <point x="230" y="345" type="line"/>
      <point x="242" y="360"/>
      <point x="272" y="386"/>
      <point x="312" y="386" type="curve" smooth="yes"/>
      <point x="362" y="386"/>
      <point x="365" y="350"/>
      <point x="361" y="325" type="curve" smooth="yes"/>
      <point x="319" y="0" type="line"/>
      <point x="502" y="0" type="line"/>
      <point x="548" y="355" type="line" smooth="yes"/>
      <point x="561" y="450"/>
      <point x="533" y="544"/>
      <point x="408" y="544" type="curve" smooth="yes"/>
      <point x="340" y="544"/>
      <point x="287" y="520"/>
      <point x="248" y="483" type="curve"/>
      <point x="263" y="600" type="line"/>
      <point x="370" y="600" type="line"/>
      <point x="388" y="730" type="line"/>
      <point x="281" y="730" type="line"/>
    </contour>
  </outline>
</glyph>
<glyph name="Itilde" format="1">
  <advance width="300"/>
  <unicode hex="0128"/>
  <outline>
    <contour>
      <point x="298" y="780" type="line"/>
      <point x="108" y="780" type="line"/>
      <point x="6" y="0" type="line"/>
      <point x="196" y="0" type="line"/>
    </contour>
    <contour>
      <point x="326" y="950" type="line"/>
      <point x="323" y="927"/>
      <point x="307" y="920"/>
      <point x="289" y="920" type="curve" smooth="yes"/>
      <point x="252" y="920"/>
      <point x="208" y="966"/>
      <point x="143" y="966" type="curve" smooth="yes"/>
      <point x="87" y="966"/>
      <point x="29" y="935"/>
      <point x="16" y="840" type="curve"/>
      <point x="111" y="840" type="line"/>
      <point x="114" y="863"/>
      <point x="130" y="870"/>
      <point x="148" y="870" type="curve" smooth="yes"/>
      <point x="185" y="870"/>
      <point x="229" y="824"/>
      <point x="294" y="824" type="curve" smooth="yes"/>
      <point x="350" y="824"/>
      <point x="408" y="855"/>
      <point x="421" y="950" type="curve"/>
    </contour>
  </outline>
</glyph>
<glyph name="itilde" format="1">
  <advance width="280"/>
  <unicode hex="0129"/>
  <outline>
    <contour>
      <point x="-1" y="0" type="line"/>
      <point x="183" y="0" type="line"/>
      <point x="252" y="530" type="line"/>
      <point x="68" y="530" type="line"/>
    </contour>
    <contour>
      <point x="288" y="780" type="line"/>
      <point x="285" y="755"/>
      <point x="272" y="745"/>
      <point x="254" y="745" type="curve" smooth="yes"/>
      <point x="214" y="745"/>
      <point x="165" y="796"/>
      <point x="100" y="796" type="curve" smooth="yes"/>
      <point x="34" y="796"/>
      <point x="-26" y="745"/>
      <point x="-43" y="620" type="curve"/>
      <point x="77" y="620" type="line"/>
      <point x="80" y="645"/>
      <point x="94" y="655"/>
      <point x="112" y="655" type="curve" smooth="yes"/>
      <point x="152" y="655"/>
      <point x="200" y="604"/>
      <point x="265" y="604" type="curve" smooth="yes"/>
      <point x="331" y="604"/>
      <point x="392" y="655"/>
      <point x="408" y="780" type="curve"/>
    </contour>
  </outline>
</glyph>
<glyph name="Imacron" format="1">
  <advance width="300"/>
  <unicode hex="012A"/>
  <outline>
    <contour>
      <point x="298" y="780" type="line"/>
      <point x="108" y="780" type="line"/>
      <point x="6" y="0" type="line"/>
      <point x="196" y="0" type="line"/>
    </contour>
    <contour>
      <point x="51" y="840" type="line"/>
      <point x="371" y="840" type="line"/>
      <point x="386" y="950" type="line"/>
      <point x="66" y="950" type="line"/>
    </contour>
  </outline>
</glyph>
<glyph name="imacron" format="1">
  <advance width="280"/>
  <unicode hex="012B"/>
  <outline>
    <contour>
      <point x="-1" y="0" type="line"/>
      <point x="183" y="0" type="line"/>
      <point x="252" y="530" type="line"/>
      <point x="68" y="530" type="line"/>
    </contour>
    <contour>
      <point x="10" y="605" type="line"/>
      <point x="330" y="605" type="line"/>
      <point x="351" y="765" type="line"/>
      <point x="31" y="765" type="line"/>
    </contour>
  </outline>
</glyph>
<glyph name="Ibreve" format="1">
  <advance width="300"/>
  <unicode hex="012C"/>
  <outline>
    <contour>
      <point x="298" y="780" type="line"/>
      <point x="108" y="780" type="line"/>
      <point x="6" y="0" type="line"/>
      <point x="196" y="0" type="line"/>
    </contour>
    <contour>
      <point x="209" y="824" type="curve" smooth="yes"/>
      <point x="369" y="824"/>
      <point x="412" y="883"/>
      <point x="421" y="950" type="curve"/>
      <point x="296" y="950" type="line"/>
      <point x="293" y="930"/>
      <point x="272" y="920"/>
      <point x="222" y="920" type="curve" smooth="yes"/>
      <point x="172" y="920"/>
      <point x="153" y="930"/>
      <point x="156" y="950" type="curve"/>
      <point x="31" y="950" type="line"/>
      <point x="22" y="883"/>
      <point x="49" y="824"/>
    </contour>
  </outline>
</glyph>
<glyph name="ibreve" format="1">
  <advance width="280"/>
  <unicode hex="012D"/>
  <outline>
    <contour>
      <point x="-1" y="0" type="line"/>
      <point x="183" y="0" type="line"/>
      <point x="252" y="530" type="line"/>
      <point x="68" y="530" type="line"/>
    </contour>
    <contour>
      <point x="166" y="576" type="curve" smooth="yes"/>
      <point x="314" y="576"/>
      <point x="376" y="663"/>
      <point x="388" y="780" type="curve"/>
      <point x="258" y="780" type="line"/>
      <point x="251" y="725"/>
      <point x="217" y="714"/>
      <point x="184" y="714" type="curve" smooth="yes"/>
      <point x="151" y="714"/>
      <point x="121" y="725"/>
      <point x="128" y="780" type="curve"/>
      <point x="-2" y="780" type="line"/>
      <point x="-20" y="663"/>
      <point x="18" y="576"/>
    </contour>
  </outline>
</glyph>
<glyph name="Iogonek" format="1">
  <advance width="300"/>
  <unicode hex="012E"/>
  <outline>
    <contour>
      <point x="47" y="0" type="line"/>
      <point x="14" y="-32"/>
      <point x="-9" y="-75"/>
      <point x="-9" y="-123" type="curve" smooth="yes"/>
      <point x="-9" y="-186"/>
      <point x="41" y="-216"/>
      <point x="119" y="-216" type="curve" smooth="yes"/>
      <point x="164" y="-216"/>
      <point x="208" y="-203"/>
      <point x="230" y="-190" type="curve"/>
      <point x="204" y="-80" type="line"/>
      <point x="197" y="-84"/>
      <point x="185" y="-90"/>
      <point x="167" y="-90" type="curve" smooth="yes"/>
      <point x="146" y="-90"/>
      <point x="132" y="-79"/>
      <point x="132" y="-63" type="curve" smooth="yes"/>
      <point x="132" y="-29"/>
      <point x="171" y="-11"/>
      <point x="196" y="0" type="curve"/>
      <point x="298" y="780" type="line"/>
      <point x="108" y="780" type="line"/>
      <point x="6" y="0" type="line"/>
    </contour>
  </outline>
</glyph>
<glyph name="iogonek" format="1">
  <advance width="280"/>
  <unicode hex="012F"/>
  <outline>
    <contour>
      <point x="288" y="780" type="line"/>
      <point x="98" y="780" type="line"/>
      <point x="73" y="590" type="line"/>
      <point x="263" y="590" type="line"/>
    </contour>
    <contour>
      <point x="-22" y="-123" type="curve" smooth="yes"/>
      <point x="-22" y="-186"/>
      <point x="28" y="-216"/>
      <point x="106" y="-216" type="curve" smooth="yes"/>
      <point x="151" y="-216"/>
      <point x="195" y="-203"/>
      <point x="217" y="-190" type="curve"/>
      <point x="191" y="-80" type="line"/>
      <point x="184" y="-84"/>
      <point x="172" y="-90"/>
      <point x="154" y="-90" type="curve" smooth="yes"/>
      <point x="133" y="-90"/>
      <point x="119" y="-79"/>
      <point x="119" y="-63" type="curve" smooth="yes"/>
      <point x="119" y="-29"/>
      <point x="158" y="-11"/>
      <point x="183" y="0" type="curve"/>
      <point x="252" y="530" type="line"/>
      <point x="68" y="530" type="line"/>
      <point x="-1" y="0" type="line"/>
      <point x="34" y="0" type="line"/>
      <point x="1" y="-32"/>
      <point x="-22" y="-75"/>
    </contour>
  </outline>
</glyph>
<glyph name="Idotaccent" format="1">
  <advance width="300"/>
  <unicode hex="0130"/>
  <outline>
    <contour>
      <point x="298" y="780" type="line"/>
      <point x="108" y="780" type="line"/>
      <point x="6" y="0" type="line"/>
      <point x="196" y="0" type="line"/>
    </contour>
    <contour>
      <point x="301" y="950" type="line"/>
      <point x="151" y="950" type="line"/>
      <point x="136" y="840" type="line"/>
      <point x="286" y="840" type="line"/>
    </contour>
  </outline>
</glyph>
<glyph name="dotlessi" format="1">
  <advance width="280"/>
  <unicode hex="0131"/>
  <outline>
    <contour>
      <point x="-1" y="0" type="line"/>
      <point x="183" y="0" type="line"/>
      <point x="252" y="530" type="line"/>
      <point x="68" y="530" type="line"/>
    </contour>
  </outline>
</glyph>
<glyph name="IJ" format="1">
  <advance width="641"/>
  <unicode hex="0132"/>
  <outline>
    <contour>
      <point x="386" y="223" type="line" smooth="yes"/>
      <point x="378" y="161"/>
      <point x="348" y="150"/>
      <point x="305" y="150" type="curve" smooth="yes"/>
      <point x="288" y="150"/>
      <point x="263" y="155"/>
      <point x="256" y="158" type="curve"/>
      <point x="236" y="3" type="line"/>
      <point x="246" y="-4"/>
      <point x="279" y="-14"/>
      <point x="334" y="-14" type="curve" smooth="yes"/>
      <point x="457" y="-14"/>
      <point x="552" y="42"/>
      <point x="573" y="202" type="curve" smooth="yes"/>
      <point x="649" y="780" type="line"/>
      <point x="459" y="780" type="line"/>
    </contour>
    <contour>
      <point x="298" y="780" type="line"/>
      <point x="108" y="780" type="line"/>
      <point x="6" y="0" type="line"/>
      <point x="196" y="0" type="line"/>
    </contour>
  </outline>
</glyph>
<glyph name="ij" format="1">
  <advance width="510"/>
  <unicode hex="0133"/>
  <outline>
    <contour>
      <point x="230" y="15" type="line" smooth="yes"/>
      <point x="223" y="-45"/>
      <point x="192" y="-56"/>
      <point x="150" y="-56" type="curve" smooth="yes"/>
      <point x="134" y="-56"/>
      <point x="110" y="-52"/>
      <point x="105" y="-50" type="curve"/>
      <point x="85" y="-200" type="line"/>
      <point x="94" y="-205"/>
      <point x="122" y="-214"/>
      <point x="172" y="-214" type="curve" smooth="yes"/>
      <point x="299" y="-214"/>
      <point x="391" y="-160"/>
      <point x="412" y="-5" type="curve" smooth="yes"/>
      <point x="482" y="530" type="line"/>
      <point x="298" y="530" type="line"/>
    </contour>
    <contour>
      <point x="-1" y="0" type="line"/>
      <point x="183" y="0" type="line"/>
      <point x="252" y="530" type="line"/>
      <point x="68" y="530" type="line"/>
    </contour>
    <contour>
      <point x="288" y="780" type="line"/>
      <point x="98" y="780" type="line"/>
      <point x="73" y="590" type="line"/>
      <point x="263" y="590" type="line"/>
    </contour>
    <contour>
      <point x="518" y="780" type="line"/>
      <point x="328" y="780" type="line"/>
      <point x="303" y="590" type="line"/>
      <point x="493" y="590" type="line"/>
    </contour>
  </outline>
</glyph>
<glyph name="Jcircumflex" format="1">
  <advance width="550"/>
  <unicode hex="0134"/>
  <outline>
    <contour>
      <point x="411" y="840" type="line"/>
      <point x="476" y="879" type="line"/>
      <point x="531" y="840" type="line"/>
      <point x="696" y="840" type="line"/>
      <point x="581" y="950" type="line"/>
      <point x="391" y="950" type="line"/>
      <point x="246" y="840" type="line"/>
    </contour>
    <contour>
      <point x="368" y="780" type="line"/>
      <point x="300" y="260" type="line" smooth="yes"/>
      <point x="291" y="192"/>
      <point x="273" y="150"/>
      <point x="226" y="150" type="curve" smooth="yes"/>
      <point x="179" y="150"/>
      <point x="177" y="192"/>
      <point x="187" y="270" type="curve"/>
      <point x="7" y="270" type="line"/>
      <point x="3" y="240" type="line" smooth="yes"/>
      <point x="-18" y="78"/>
      <point x="36" y="-14"/>
      <point x="216" y="-14" type="curve" smooth="yes"/>
      <point x="386" y="-14"/>
      <point x="466" y="78"/>
      <point x="487" y="238" type="curve" smooth="yes"/>
      <point x="558" y="780" type="line"/>
    </contour>
  </outline>
</glyph>
<glyph name="Kcommaaccent" format="1">
  <advance width="645"/>
  <unicode hex="0136"/>
  <outline>
    <contour>
      <point x="293" y="780" type="line"/>
      <point x="103" y="780" type="line"/>
      <point x="1" y="0" type="line"/>
      <point x="191" y="0" type="line"/>
      <point x="219" y="220" type="line"/>
      <point x="283" y="297" type="line"/>
      <point x="371" y="0" type="line"/>
      <point x="581" y="0" type="line"/>
      <point x="429" y="473" type="line"/>
      <point x="683" y="780" type="line"/>
      <point x="453" y="780" type="line"/>
      <point x="258" y="512" type="line"/>
    </contour>
    <contour>
      <point x="350" y="-40" type="line"/>
      <point x="190" y="-40" type="line"/>
      <point x="177" y="-140" type="line"/>
      <point x="265" y="-140" type="line"/>
      <point x="247" y="-163"/>
      <point x="216" y="-170"/>
      <point x="173" y="-170" type="curve"/>
      <point x="165" y="-230" type="line"/>
      <point x="275" y="-230"/>
      <point x="330" y="-195"/>
      <point x="342" y="-100" type="curve" smooth="yes"/>
    </contour>
  </outline>
</glyph>
<glyph name="Lacute" format="1">
  <advance width="530"/>
  <unicode hex="0139"/>
  <outline>
    <contour>
      <point x="466" y="0" type="line"/>
      <point x="487" y="164" type="line"/>
      <point x="212" y="164" type="line"/>
      <point x="293" y="780" type="line"/>
      <point x="103" y="780" type="line"/>
      <point x="1" y="0" type="line"/>
    </contour>
    <contour>
      <point x="183" y="950" type="line"/>
      <point x="115" y="840" type="line"/>
      <point x="297" y="840" type="line"/>
      <point x="376" y="950" type="line"/>
    </contour>
  </outline>
</glyph>
<glyph name="lacute" format="1">
  <advance width="280"/>
  <unicode hex="013A"/>
  <outline>
    <contour>
      <point x="-1" y="0" type="line"/>
      <point x="183" y="0" type="line"/>
      <point x="288" y="800" type="line"/>
      <point x="104" y="800" type="line"/>
    </contour>
    <contour>
      <point x="178" y="950" type="line"/>
      <point x="110" y="840" type="line"/>
      <point x="292" y="840" type="line"/>
      <point x="371" y="950" type="line"/>
    </contour>
  </outline>
</glyph>
<glyph name="Lcommaaccent" format="1">
  <advance width="530"/>
  <unicode hex="013B"/>
  <outline>
    <contour>
      <point x="466" y="0" type="line"/>
      <point x="487" y="164" type="line"/>
      <point x="212" y="164" type="line"/>
      <point x="293" y="780" type="line"/>
      <point x="103" y="780" type="line"/>
      <point x="1" y="0" type="line"/>
    </contour>
    <contour>
      <point x="307" y="-40" type="line"/>
      <point x="147" y="-40" type="line"/>
      <point x="134" y="-140" type="line"/>
      <point x="222" y="-140" type="line"/>
      <point x="204" y="-163"/>
      <point x="173" y="-170"/>
      <point x="130" y="-170" type="curve"/>
      <point x="122" y="-230" type="line"/>
      <point x="232" y="-230"/>
      <point x="287" y="-195"/>
      <point x="299" y="-100" type="curve" smooth="yes"/>
    </contour>
  </outline>
</glyph>
<glyph name="lcommaaccent" format="1">
  <advance width="280"/>
  <unicode hex="013C"/>
  <outline>
    <contour>
      <point x="-1" y="0" type="line"/>
      <point x="183" y="0" type="line"/>
      <point x="288" y="800" type="line"/>
      <point x="104" y="800" type="line"/>
    </contour>
    <contour>
      <point x="165" y="-40" type="line"/>
      <point x="5" y="-40" type="line"/>
      <point x="-8" y="-140" type="line"/>
      <point x="80" y="-140" type="line"/>
      <point x="62" y="-163"/>
      <point x="31" y="-170"/>
      <point x="-12" y="-170" type="curve"/>
      <point x="-20" y="-230" type="line"/>
      <point x="90" y="-230"/>
      <point x="145" y="-195"/>
      <point x="157" y="-100" type="curve" smooth="yes"/>
    </contour>
  </outline>
</glyph>
<glyph name="Lcaron" format="1">
  <advance width="530"/>
  <unicode hex="013D"/>
  <outline>
    <contour>
      <point x="466" y="0" type="line"/>
      <point x="487" y="164" type="line"/>
      <point x="212" y="164" type="line"/>
      <point x="293" y="780" type="line"/>
      <point x="103" y="780" type="line"/>
      <point x="1" y="0" type="line"/>
    </contour>
    <contour>
      <point x="399" y="800" type="line"/>
      <point x="371" y="590" type="line"/>
      <point x="451" y="590" type="line"/>
      <point x="504" y="800" type="line"/>
    </contour>
  </outline>
</glyph>
<glyph name="lcaron" format="1">
  <advance width="280"/>
  <unicode hex="013E"/>
  <outline>
    <contour>
      <point x="-1" y="0" type="line"/>
      <point x="183" y="0" type="line"/>
      <point x="288" y="800" type="line"/>
      <point x="104" y="800" type="line"/>
    </contour>
    <contour>
      <point x="338" y="800" type="line"/>
      <point x="310" y="590" type="line"/>
      <point x="390" y="590" type="line"/>
      <point x="443" y="800" type="line"/>
    </contour>
  </outline>
</glyph>
<glyph name="Ldot" format="1">
  <advance width="530"/>
  <unicode hex="013F"/>
  <outline>
    <contour>
      <point x="466" y="0" type="line"/>
      <point x="487" y="164" type="line"/>
      <point x="212" y="164" type="line"/>
      <point x="293" y="780" type="line"/>
      <point x="103" y="780" type="line"/>
      <point x="1" y="0" type="line"/>
    </contour>
    <contour>
      <point x="520" y="493" type="line"/>
      <point x="330" y="493" type="line"/>
      <point x="305" y="303" type="line"/>
      <point x="495" y="303" type="line"/>
    </contour>
  </outline>
</glyph>
